%TF.GenerationSoftware,KiCad,Pcbnew,10.0.0*%
%TF.CreationDate,2026-04-10T10:10:15+02:00*%
%TF.ProjectId,TAITO  PC040DA new,54414954-4f20-4205-9043-303430444120,0.9*%
%TF.SameCoordinates,Original*%
%TF.FileFunction,Legend,Top*%
%TF.FilePolarity,Positive*%
%FSLAX46Y46*%
G04 Gerber Fmt 4.6, Leading zero omitted, Abs format (unit mm)*
G04 Created by KiCad (PCBNEW 10.0.0) date 2026-04-10 10:10:15*
%MOMM*%
%LPD*%
G01*
G04 APERTURE LIST*
%ADD10C,0.100000*%
%ADD11C,0.150000*%
%ADD12C,0.000000*%
%ADD13C,0.120000*%
G04 APERTURE END LIST*
D10*
X82189439Y-138777068D02*
X82189439Y-138434211D01*
X82789439Y-138605639D02*
X82189439Y-138605639D01*
X82618010Y-138262782D02*
X82618010Y-137977068D01*
X82789439Y-138319925D02*
X82189439Y-138119925D01*
X82189439Y-138119925D02*
X82789439Y-137919925D01*
X82789439Y-137719924D02*
X82189439Y-137719924D01*
X82189439Y-137519925D02*
X82189439Y-137177068D01*
X82789439Y-137348496D02*
X82189439Y-137348496D01*
X82189439Y-136862782D02*
X82189439Y-136748496D01*
X82189439Y-136748496D02*
X82218010Y-136691353D01*
X82218010Y-136691353D02*
X82275153Y-136634210D01*
X82275153Y-136634210D02*
X82389439Y-136605639D01*
X82389439Y-136605639D02*
X82589439Y-136605639D01*
X82589439Y-136605639D02*
X82703725Y-136634210D01*
X82703725Y-136634210D02*
X82760868Y-136691353D01*
X82760868Y-136691353D02*
X82789439Y-136748496D01*
X82789439Y-136748496D02*
X82789439Y-136862782D01*
X82789439Y-136862782D02*
X82760868Y-136919925D01*
X82760868Y-136919925D02*
X82703725Y-136977067D01*
X82703725Y-136977067D02*
X82589439Y-137005639D01*
X82589439Y-137005639D02*
X82389439Y-137005639D01*
X82389439Y-137005639D02*
X82275153Y-136977067D01*
X82275153Y-136977067D02*
X82218010Y-136919925D01*
X82218010Y-136919925D02*
X82189439Y-136862782D01*
X82789439Y-135891353D02*
X82189439Y-135891353D01*
X82189439Y-135891353D02*
X82189439Y-135662782D01*
X82189439Y-135662782D02*
X82218010Y-135605639D01*
X82218010Y-135605639D02*
X82246582Y-135577068D01*
X82246582Y-135577068D02*
X82303725Y-135548496D01*
X82303725Y-135548496D02*
X82389439Y-135548496D01*
X82389439Y-135548496D02*
X82446582Y-135577068D01*
X82446582Y-135577068D02*
X82475153Y-135605639D01*
X82475153Y-135605639D02*
X82503725Y-135662782D01*
X82503725Y-135662782D02*
X82503725Y-135891353D01*
X82732296Y-134948496D02*
X82760868Y-134977068D01*
X82760868Y-134977068D02*
X82789439Y-135062782D01*
X82789439Y-135062782D02*
X82789439Y-135119925D01*
X82789439Y-135119925D02*
X82760868Y-135205639D01*
X82760868Y-135205639D02*
X82703725Y-135262782D01*
X82703725Y-135262782D02*
X82646582Y-135291353D01*
X82646582Y-135291353D02*
X82532296Y-135319925D01*
X82532296Y-135319925D02*
X82446582Y-135319925D01*
X82446582Y-135319925D02*
X82332296Y-135291353D01*
X82332296Y-135291353D02*
X82275153Y-135262782D01*
X82275153Y-135262782D02*
X82218010Y-135205639D01*
X82218010Y-135205639D02*
X82189439Y-135119925D01*
X82189439Y-135119925D02*
X82189439Y-135062782D01*
X82189439Y-135062782D02*
X82218010Y-134977068D01*
X82218010Y-134977068D02*
X82246582Y-134948496D01*
X82189439Y-134577068D02*
X82189439Y-134519925D01*
X82189439Y-134519925D02*
X82218010Y-134462782D01*
X82218010Y-134462782D02*
X82246582Y-134434211D01*
X82246582Y-134434211D02*
X82303725Y-134405639D01*
X82303725Y-134405639D02*
X82418010Y-134377068D01*
X82418010Y-134377068D02*
X82560868Y-134377068D01*
X82560868Y-134377068D02*
X82675153Y-134405639D01*
X82675153Y-134405639D02*
X82732296Y-134434211D01*
X82732296Y-134434211D02*
X82760868Y-134462782D01*
X82760868Y-134462782D02*
X82789439Y-134519925D01*
X82789439Y-134519925D02*
X82789439Y-134577068D01*
X82789439Y-134577068D02*
X82760868Y-134634211D01*
X82760868Y-134634211D02*
X82732296Y-134662782D01*
X82732296Y-134662782D02*
X82675153Y-134691353D01*
X82675153Y-134691353D02*
X82560868Y-134719925D01*
X82560868Y-134719925D02*
X82418010Y-134719925D01*
X82418010Y-134719925D02*
X82303725Y-134691353D01*
X82303725Y-134691353D02*
X82246582Y-134662782D01*
X82246582Y-134662782D02*
X82218010Y-134634211D01*
X82218010Y-134634211D02*
X82189439Y-134577068D01*
X82389439Y-133862782D02*
X82789439Y-133862782D01*
X82160868Y-134005639D02*
X82589439Y-134148496D01*
X82589439Y-134148496D02*
X82589439Y-133777067D01*
X82189439Y-133434210D02*
X82189439Y-133377067D01*
X82189439Y-133377067D02*
X82218010Y-133319924D01*
X82218010Y-133319924D02*
X82246582Y-133291353D01*
X82246582Y-133291353D02*
X82303725Y-133262781D01*
X82303725Y-133262781D02*
X82418010Y-133234210D01*
X82418010Y-133234210D02*
X82560868Y-133234210D01*
X82560868Y-133234210D02*
X82675153Y-133262781D01*
X82675153Y-133262781D02*
X82732296Y-133291353D01*
X82732296Y-133291353D02*
X82760868Y-133319924D01*
X82760868Y-133319924D02*
X82789439Y-133377067D01*
X82789439Y-133377067D02*
X82789439Y-133434210D01*
X82789439Y-133434210D02*
X82760868Y-133491353D01*
X82760868Y-133491353D02*
X82732296Y-133519924D01*
X82732296Y-133519924D02*
X82675153Y-133548495D01*
X82675153Y-133548495D02*
X82560868Y-133577067D01*
X82560868Y-133577067D02*
X82418010Y-133577067D01*
X82418010Y-133577067D02*
X82303725Y-133548495D01*
X82303725Y-133548495D02*
X82246582Y-133519924D01*
X82246582Y-133519924D02*
X82218010Y-133491353D01*
X82218010Y-133491353D02*
X82189439Y-133434210D01*
X82789439Y-132977066D02*
X82189439Y-132977066D01*
X82189439Y-132977066D02*
X82189439Y-132834209D01*
X82189439Y-132834209D02*
X82218010Y-132748495D01*
X82218010Y-132748495D02*
X82275153Y-132691352D01*
X82275153Y-132691352D02*
X82332296Y-132662781D01*
X82332296Y-132662781D02*
X82446582Y-132634209D01*
X82446582Y-132634209D02*
X82532296Y-132634209D01*
X82532296Y-132634209D02*
X82646582Y-132662781D01*
X82646582Y-132662781D02*
X82703725Y-132691352D01*
X82703725Y-132691352D02*
X82760868Y-132748495D01*
X82760868Y-132748495D02*
X82789439Y-132834209D01*
X82789439Y-132834209D02*
X82789439Y-132977066D01*
X82618010Y-132405638D02*
X82618010Y-132119924D01*
X82789439Y-132462781D02*
X82189439Y-132262781D01*
X82189439Y-132262781D02*
X82789439Y-132062781D01*
X83755405Y-138348496D02*
X83469691Y-138548496D01*
X83755405Y-138691353D02*
X83155405Y-138691353D01*
X83155405Y-138691353D02*
X83155405Y-138462782D01*
X83155405Y-138462782D02*
X83183976Y-138405639D01*
X83183976Y-138405639D02*
X83212548Y-138377068D01*
X83212548Y-138377068D02*
X83269691Y-138348496D01*
X83269691Y-138348496D02*
X83355405Y-138348496D01*
X83355405Y-138348496D02*
X83412548Y-138377068D01*
X83412548Y-138377068D02*
X83441119Y-138405639D01*
X83441119Y-138405639D02*
X83469691Y-138462782D01*
X83469691Y-138462782D02*
X83469691Y-138691353D01*
X83726834Y-137862782D02*
X83755405Y-137919925D01*
X83755405Y-137919925D02*
X83755405Y-138034211D01*
X83755405Y-138034211D02*
X83726834Y-138091353D01*
X83726834Y-138091353D02*
X83669691Y-138119925D01*
X83669691Y-138119925D02*
X83441119Y-138119925D01*
X83441119Y-138119925D02*
X83383976Y-138091353D01*
X83383976Y-138091353D02*
X83355405Y-138034211D01*
X83355405Y-138034211D02*
X83355405Y-137919925D01*
X83355405Y-137919925D02*
X83383976Y-137862782D01*
X83383976Y-137862782D02*
X83441119Y-137834211D01*
X83441119Y-137834211D02*
X83498262Y-137834211D01*
X83498262Y-137834211D02*
X83555405Y-138119925D01*
X83355405Y-137577067D02*
X83955405Y-137577067D01*
X83383976Y-137577067D02*
X83355405Y-137519925D01*
X83355405Y-137519925D02*
X83355405Y-137405639D01*
X83355405Y-137405639D02*
X83383976Y-137348496D01*
X83383976Y-137348496D02*
X83412548Y-137319925D01*
X83412548Y-137319925D02*
X83469691Y-137291353D01*
X83469691Y-137291353D02*
X83641119Y-137291353D01*
X83641119Y-137291353D02*
X83698262Y-137319925D01*
X83698262Y-137319925D02*
X83726834Y-137348496D01*
X83726834Y-137348496D02*
X83755405Y-137405639D01*
X83755405Y-137405639D02*
X83755405Y-137519925D01*
X83755405Y-137519925D02*
X83726834Y-137577067D01*
X83755405Y-137034210D02*
X83355405Y-137034210D01*
X83469691Y-137034210D02*
X83412548Y-137005639D01*
X83412548Y-137005639D02*
X83383976Y-136977068D01*
X83383976Y-136977068D02*
X83355405Y-136919925D01*
X83355405Y-136919925D02*
X83355405Y-136862782D01*
X83755405Y-136577067D02*
X83726834Y-136634210D01*
X83726834Y-136634210D02*
X83698262Y-136662781D01*
X83698262Y-136662781D02*
X83641119Y-136691353D01*
X83641119Y-136691353D02*
X83469691Y-136691353D01*
X83469691Y-136691353D02*
X83412548Y-136662781D01*
X83412548Y-136662781D02*
X83383976Y-136634210D01*
X83383976Y-136634210D02*
X83355405Y-136577067D01*
X83355405Y-136577067D02*
X83355405Y-136491353D01*
X83355405Y-136491353D02*
X83383976Y-136434210D01*
X83383976Y-136434210D02*
X83412548Y-136405639D01*
X83412548Y-136405639D02*
X83469691Y-136377067D01*
X83469691Y-136377067D02*
X83641119Y-136377067D01*
X83641119Y-136377067D02*
X83698262Y-136405639D01*
X83698262Y-136405639D02*
X83726834Y-136434210D01*
X83726834Y-136434210D02*
X83755405Y-136491353D01*
X83755405Y-136491353D02*
X83755405Y-136577067D01*
X83155405Y-135548496D02*
X83155405Y-135491353D01*
X83155405Y-135491353D02*
X83183976Y-135434210D01*
X83183976Y-135434210D02*
X83212548Y-135405639D01*
X83212548Y-135405639D02*
X83269691Y-135377067D01*
X83269691Y-135377067D02*
X83383976Y-135348496D01*
X83383976Y-135348496D02*
X83526834Y-135348496D01*
X83526834Y-135348496D02*
X83641119Y-135377067D01*
X83641119Y-135377067D02*
X83698262Y-135405639D01*
X83698262Y-135405639D02*
X83726834Y-135434210D01*
X83726834Y-135434210D02*
X83755405Y-135491353D01*
X83755405Y-135491353D02*
X83755405Y-135548496D01*
X83755405Y-135548496D02*
X83726834Y-135605639D01*
X83726834Y-135605639D02*
X83698262Y-135634210D01*
X83698262Y-135634210D02*
X83641119Y-135662781D01*
X83641119Y-135662781D02*
X83526834Y-135691353D01*
X83526834Y-135691353D02*
X83383976Y-135691353D01*
X83383976Y-135691353D02*
X83269691Y-135662781D01*
X83269691Y-135662781D02*
X83212548Y-135634210D01*
X83212548Y-135634210D02*
X83183976Y-135605639D01*
X83183976Y-135605639D02*
X83155405Y-135548496D01*
X83698262Y-135091352D02*
X83726834Y-135062781D01*
X83726834Y-135062781D02*
X83755405Y-135091352D01*
X83755405Y-135091352D02*
X83726834Y-135119924D01*
X83726834Y-135119924D02*
X83698262Y-135091352D01*
X83698262Y-135091352D02*
X83755405Y-135091352D01*
X83412548Y-134719924D02*
X83383976Y-134777067D01*
X83383976Y-134777067D02*
X83355405Y-134805638D01*
X83355405Y-134805638D02*
X83298262Y-134834210D01*
X83298262Y-134834210D02*
X83269691Y-134834210D01*
X83269691Y-134834210D02*
X83212548Y-134805638D01*
X83212548Y-134805638D02*
X83183976Y-134777067D01*
X83183976Y-134777067D02*
X83155405Y-134719924D01*
X83155405Y-134719924D02*
X83155405Y-134605638D01*
X83155405Y-134605638D02*
X83183976Y-134548496D01*
X83183976Y-134548496D02*
X83212548Y-134519924D01*
X83212548Y-134519924D02*
X83269691Y-134491353D01*
X83269691Y-134491353D02*
X83298262Y-134491353D01*
X83298262Y-134491353D02*
X83355405Y-134519924D01*
X83355405Y-134519924D02*
X83383976Y-134548496D01*
X83383976Y-134548496D02*
X83412548Y-134605638D01*
X83412548Y-134605638D02*
X83412548Y-134719924D01*
X83412548Y-134719924D02*
X83441119Y-134777067D01*
X83441119Y-134777067D02*
X83469691Y-134805638D01*
X83469691Y-134805638D02*
X83526834Y-134834210D01*
X83526834Y-134834210D02*
X83641119Y-134834210D01*
X83641119Y-134834210D02*
X83698262Y-134805638D01*
X83698262Y-134805638D02*
X83726834Y-134777067D01*
X83726834Y-134777067D02*
X83755405Y-134719924D01*
X83755405Y-134719924D02*
X83755405Y-134605638D01*
X83755405Y-134605638D02*
X83726834Y-134548496D01*
X83726834Y-134548496D02*
X83698262Y-134519924D01*
X83698262Y-134519924D02*
X83641119Y-134491353D01*
X83641119Y-134491353D02*
X83526834Y-134491353D01*
X83526834Y-134491353D02*
X83469691Y-134519924D01*
X83469691Y-134519924D02*
X83441119Y-134548496D01*
X83441119Y-134548496D02*
X83412548Y-134605638D01*
X84721371Y-138691353D02*
X84121371Y-138691353D01*
X84121371Y-138691353D02*
X84721371Y-138348496D01*
X84721371Y-138348496D02*
X84121371Y-138348496D01*
X84121371Y-137948497D02*
X84121371Y-137834211D01*
X84121371Y-137834211D02*
X84149942Y-137777068D01*
X84149942Y-137777068D02*
X84207085Y-137719925D01*
X84207085Y-137719925D02*
X84321371Y-137691354D01*
X84321371Y-137691354D02*
X84521371Y-137691354D01*
X84521371Y-137691354D02*
X84635657Y-137719925D01*
X84635657Y-137719925D02*
X84692800Y-137777068D01*
X84692800Y-137777068D02*
X84721371Y-137834211D01*
X84721371Y-137834211D02*
X84721371Y-137948497D01*
X84721371Y-137948497D02*
X84692800Y-138005640D01*
X84692800Y-138005640D02*
X84635657Y-138062782D01*
X84635657Y-138062782D02*
X84521371Y-138091354D01*
X84521371Y-138091354D02*
X84321371Y-138091354D01*
X84321371Y-138091354D02*
X84207085Y-138062782D01*
X84207085Y-138062782D02*
X84149942Y-138005640D01*
X84149942Y-138005640D02*
X84121371Y-137948497D01*
X84121371Y-137519926D02*
X84721371Y-137319926D01*
X84721371Y-137319926D02*
X84121371Y-137119926D01*
X84721371Y-136919925D02*
X84121371Y-136919925D01*
X84721371Y-136634211D02*
X84121371Y-136634211D01*
X84121371Y-136634211D02*
X84721371Y-136291354D01*
X84721371Y-136291354D02*
X84121371Y-136291354D01*
X84121371Y-136091355D02*
X84121371Y-135748498D01*
X84721371Y-135919926D02*
X84121371Y-135919926D01*
X84721371Y-135548497D02*
X84121371Y-135548497D01*
X84664228Y-134919926D02*
X84692800Y-134948498D01*
X84692800Y-134948498D02*
X84721371Y-135034212D01*
X84721371Y-135034212D02*
X84721371Y-135091355D01*
X84721371Y-135091355D02*
X84692800Y-135177069D01*
X84692800Y-135177069D02*
X84635657Y-135234212D01*
X84635657Y-135234212D02*
X84578514Y-135262783D01*
X84578514Y-135262783D02*
X84464228Y-135291355D01*
X84464228Y-135291355D02*
X84378514Y-135291355D01*
X84378514Y-135291355D02*
X84264228Y-135262783D01*
X84264228Y-135262783D02*
X84207085Y-135234212D01*
X84207085Y-135234212D02*
X84149942Y-135177069D01*
X84149942Y-135177069D02*
X84121371Y-135091355D01*
X84121371Y-135091355D02*
X84121371Y-135034212D01*
X84121371Y-135034212D02*
X84149942Y-134948498D01*
X84149942Y-134948498D02*
X84178514Y-134919926D01*
D11*
X98824819Y-138961904D02*
X99634342Y-138961904D01*
X99634342Y-138961904D02*
X99729580Y-138914285D01*
X99729580Y-138914285D02*
X99777200Y-138866666D01*
X99777200Y-138866666D02*
X99824819Y-138771428D01*
X99824819Y-138771428D02*
X99824819Y-138580952D01*
X99824819Y-138580952D02*
X99777200Y-138485714D01*
X99777200Y-138485714D02*
X99729580Y-138438095D01*
X99729580Y-138438095D02*
X99634342Y-138390476D01*
X99634342Y-138390476D02*
X98824819Y-138390476D01*
X98920057Y-137961904D02*
X98872438Y-137914285D01*
X98872438Y-137914285D02*
X98824819Y-137819047D01*
X98824819Y-137819047D02*
X98824819Y-137580952D01*
X98824819Y-137580952D02*
X98872438Y-137485714D01*
X98872438Y-137485714D02*
X98920057Y-137438095D01*
X98920057Y-137438095D02*
X99015295Y-137390476D01*
X99015295Y-137390476D02*
X99110533Y-137390476D01*
X99110533Y-137390476D02*
X99253390Y-137438095D01*
X99253390Y-137438095D02*
X99824819Y-138009523D01*
X99824819Y-138009523D02*
X99824819Y-137390476D01*
D10*
X111142371Y-138099999D02*
X110856657Y-138299999D01*
X111142371Y-138442856D02*
X110542371Y-138442856D01*
X110542371Y-138442856D02*
X110542371Y-138214285D01*
X110542371Y-138214285D02*
X110570942Y-138157142D01*
X110570942Y-138157142D02*
X110599514Y-138128571D01*
X110599514Y-138128571D02*
X110656657Y-138099999D01*
X110656657Y-138099999D02*
X110742371Y-138099999D01*
X110742371Y-138099999D02*
X110799514Y-138128571D01*
X110799514Y-138128571D02*
X110828085Y-138157142D01*
X110828085Y-138157142D02*
X110856657Y-138214285D01*
X110856657Y-138214285D02*
X110856657Y-138442856D01*
X110542371Y-137585714D02*
X110542371Y-137699999D01*
X110542371Y-137699999D02*
X110570942Y-137757142D01*
X110570942Y-137757142D02*
X110599514Y-137785714D01*
X110599514Y-137785714D02*
X110685228Y-137842856D01*
X110685228Y-137842856D02*
X110799514Y-137871428D01*
X110799514Y-137871428D02*
X111028085Y-137871428D01*
X111028085Y-137871428D02*
X111085228Y-137842856D01*
X111085228Y-137842856D02*
X111113800Y-137814285D01*
X111113800Y-137814285D02*
X111142371Y-137757142D01*
X111142371Y-137757142D02*
X111142371Y-137642856D01*
X111142371Y-137642856D02*
X111113800Y-137585714D01*
X111113800Y-137585714D02*
X111085228Y-137557142D01*
X111085228Y-137557142D02*
X111028085Y-137528571D01*
X111028085Y-137528571D02*
X110885228Y-137528571D01*
X110885228Y-137528571D02*
X110828085Y-137557142D01*
X110828085Y-137557142D02*
X110799514Y-137585714D01*
X110799514Y-137585714D02*
X110770942Y-137642856D01*
X110770942Y-137642856D02*
X110770942Y-137757142D01*
X110770942Y-137757142D02*
X110799514Y-137814285D01*
X110799514Y-137814285D02*
X110828085Y-137842856D01*
X110828085Y-137842856D02*
X110885228Y-137871428D01*
X115942371Y-135499999D02*
X115656657Y-135699999D01*
X115942371Y-135842856D02*
X115342371Y-135842856D01*
X115342371Y-135842856D02*
X115342371Y-135614285D01*
X115342371Y-135614285D02*
X115370942Y-135557142D01*
X115370942Y-135557142D02*
X115399514Y-135528571D01*
X115399514Y-135528571D02*
X115456657Y-135499999D01*
X115456657Y-135499999D02*
X115542371Y-135499999D01*
X115542371Y-135499999D02*
X115599514Y-135528571D01*
X115599514Y-135528571D02*
X115628085Y-135557142D01*
X115628085Y-135557142D02*
X115656657Y-135614285D01*
X115656657Y-135614285D02*
X115656657Y-135842856D01*
X115399514Y-135271428D02*
X115370942Y-135242856D01*
X115370942Y-135242856D02*
X115342371Y-135185714D01*
X115342371Y-135185714D02*
X115342371Y-135042856D01*
X115342371Y-135042856D02*
X115370942Y-134985714D01*
X115370942Y-134985714D02*
X115399514Y-134957142D01*
X115399514Y-134957142D02*
X115456657Y-134928571D01*
X115456657Y-134928571D02*
X115513800Y-134928571D01*
X115513800Y-134928571D02*
X115599514Y-134957142D01*
X115599514Y-134957142D02*
X115942371Y-135299999D01*
X115942371Y-135299999D02*
X115942371Y-134928571D01*
X93442371Y-137699999D02*
X93156657Y-137899999D01*
X93442371Y-138042856D02*
X92842371Y-138042856D01*
X92842371Y-138042856D02*
X92842371Y-137814285D01*
X92842371Y-137814285D02*
X92870942Y-137757142D01*
X92870942Y-137757142D02*
X92899514Y-137728571D01*
X92899514Y-137728571D02*
X92956657Y-137699999D01*
X92956657Y-137699999D02*
X93042371Y-137699999D01*
X93042371Y-137699999D02*
X93099514Y-137728571D01*
X93099514Y-137728571D02*
X93128085Y-137757142D01*
X93128085Y-137757142D02*
X93156657Y-137814285D01*
X93156657Y-137814285D02*
X93156657Y-138042856D01*
X93099514Y-137357142D02*
X93070942Y-137414285D01*
X93070942Y-137414285D02*
X93042371Y-137442856D01*
X93042371Y-137442856D02*
X92985228Y-137471428D01*
X92985228Y-137471428D02*
X92956657Y-137471428D01*
X92956657Y-137471428D02*
X92899514Y-137442856D01*
X92899514Y-137442856D02*
X92870942Y-137414285D01*
X92870942Y-137414285D02*
X92842371Y-137357142D01*
X92842371Y-137357142D02*
X92842371Y-137242856D01*
X92842371Y-137242856D02*
X92870942Y-137185714D01*
X92870942Y-137185714D02*
X92899514Y-137157142D01*
X92899514Y-137157142D02*
X92956657Y-137128571D01*
X92956657Y-137128571D02*
X92985228Y-137128571D01*
X92985228Y-137128571D02*
X93042371Y-137157142D01*
X93042371Y-137157142D02*
X93070942Y-137185714D01*
X93070942Y-137185714D02*
X93099514Y-137242856D01*
X93099514Y-137242856D02*
X93099514Y-137357142D01*
X93099514Y-137357142D02*
X93128085Y-137414285D01*
X93128085Y-137414285D02*
X93156657Y-137442856D01*
X93156657Y-137442856D02*
X93213800Y-137471428D01*
X93213800Y-137471428D02*
X93328085Y-137471428D01*
X93328085Y-137471428D02*
X93385228Y-137442856D01*
X93385228Y-137442856D02*
X93413800Y-137414285D01*
X93413800Y-137414285D02*
X93442371Y-137357142D01*
X93442371Y-137357142D02*
X93442371Y-137242856D01*
X93442371Y-137242856D02*
X93413800Y-137185714D01*
X93413800Y-137185714D02*
X93385228Y-137157142D01*
X93385228Y-137157142D02*
X93328085Y-137128571D01*
X93328085Y-137128571D02*
X93213800Y-137128571D01*
X93213800Y-137128571D02*
X93156657Y-137157142D01*
X93156657Y-137157142D02*
X93128085Y-137185714D01*
X93128085Y-137185714D02*
X93099514Y-137242856D01*
X115942371Y-138199999D02*
X115656657Y-138399999D01*
X115942371Y-138542856D02*
X115342371Y-138542856D01*
X115342371Y-138542856D02*
X115342371Y-138314285D01*
X115342371Y-138314285D02*
X115370942Y-138257142D01*
X115370942Y-138257142D02*
X115399514Y-138228571D01*
X115399514Y-138228571D02*
X115456657Y-138199999D01*
X115456657Y-138199999D02*
X115542371Y-138199999D01*
X115542371Y-138199999D02*
X115599514Y-138228571D01*
X115599514Y-138228571D02*
X115628085Y-138257142D01*
X115628085Y-138257142D02*
X115656657Y-138314285D01*
X115656657Y-138314285D02*
X115656657Y-138542856D01*
X115342371Y-137999999D02*
X115342371Y-137628571D01*
X115342371Y-137628571D02*
X115570942Y-137828571D01*
X115570942Y-137828571D02*
X115570942Y-137742856D01*
X115570942Y-137742856D02*
X115599514Y-137685714D01*
X115599514Y-137685714D02*
X115628085Y-137657142D01*
X115628085Y-137657142D02*
X115685228Y-137628571D01*
X115685228Y-137628571D02*
X115828085Y-137628571D01*
X115828085Y-137628571D02*
X115885228Y-137657142D01*
X115885228Y-137657142D02*
X115913800Y-137685714D01*
X115913800Y-137685714D02*
X115942371Y-137742856D01*
X115942371Y-137742856D02*
X115942371Y-137914285D01*
X115942371Y-137914285D02*
X115913800Y-137971428D01*
X115913800Y-137971428D02*
X115885228Y-137999999D01*
X111242371Y-133099999D02*
X110956657Y-133299999D01*
X111242371Y-133442856D02*
X110642371Y-133442856D01*
X110642371Y-133442856D02*
X110642371Y-133214285D01*
X110642371Y-133214285D02*
X110670942Y-133157142D01*
X110670942Y-133157142D02*
X110699514Y-133128571D01*
X110699514Y-133128571D02*
X110756657Y-133099999D01*
X110756657Y-133099999D02*
X110842371Y-133099999D01*
X110842371Y-133099999D02*
X110899514Y-133128571D01*
X110899514Y-133128571D02*
X110928085Y-133157142D01*
X110928085Y-133157142D02*
X110956657Y-133214285D01*
X110956657Y-133214285D02*
X110956657Y-133442856D01*
X110842371Y-132585714D02*
X111242371Y-132585714D01*
X110613800Y-132728571D02*
X111042371Y-132871428D01*
X111042371Y-132871428D02*
X111042371Y-132499999D01*
X99070000Y-136715228D02*
X99041428Y-136743800D01*
X99041428Y-136743800D02*
X98955714Y-136772371D01*
X98955714Y-136772371D02*
X98898571Y-136772371D01*
X98898571Y-136772371D02*
X98812857Y-136743800D01*
X98812857Y-136743800D02*
X98755714Y-136686657D01*
X98755714Y-136686657D02*
X98727143Y-136629514D01*
X98727143Y-136629514D02*
X98698571Y-136515228D01*
X98698571Y-136515228D02*
X98698571Y-136429514D01*
X98698571Y-136429514D02*
X98727143Y-136315228D01*
X98727143Y-136315228D02*
X98755714Y-136258085D01*
X98755714Y-136258085D02*
X98812857Y-136200942D01*
X98812857Y-136200942D02*
X98898571Y-136172371D01*
X98898571Y-136172371D02*
X98955714Y-136172371D01*
X98955714Y-136172371D02*
X99041428Y-136200942D01*
X99041428Y-136200942D02*
X99070000Y-136229514D01*
X99298571Y-136229514D02*
X99327143Y-136200942D01*
X99327143Y-136200942D02*
X99384286Y-136172371D01*
X99384286Y-136172371D02*
X99527143Y-136172371D01*
X99527143Y-136172371D02*
X99584286Y-136200942D01*
X99584286Y-136200942D02*
X99612857Y-136229514D01*
X99612857Y-136229514D02*
X99641428Y-136286657D01*
X99641428Y-136286657D02*
X99641428Y-136343800D01*
X99641428Y-136343800D02*
X99612857Y-136429514D01*
X99612857Y-136429514D02*
X99270000Y-136772371D01*
X99270000Y-136772371D02*
X99641428Y-136772371D01*
X121770000Y-136815228D02*
X121741428Y-136843800D01*
X121741428Y-136843800D02*
X121655714Y-136872371D01*
X121655714Y-136872371D02*
X121598571Y-136872371D01*
X121598571Y-136872371D02*
X121512857Y-136843800D01*
X121512857Y-136843800D02*
X121455714Y-136786657D01*
X121455714Y-136786657D02*
X121427143Y-136729514D01*
X121427143Y-136729514D02*
X121398571Y-136615228D01*
X121398571Y-136615228D02*
X121398571Y-136529514D01*
X121398571Y-136529514D02*
X121427143Y-136415228D01*
X121427143Y-136415228D02*
X121455714Y-136358085D01*
X121455714Y-136358085D02*
X121512857Y-136300942D01*
X121512857Y-136300942D02*
X121598571Y-136272371D01*
X121598571Y-136272371D02*
X121655714Y-136272371D01*
X121655714Y-136272371D02*
X121741428Y-136300942D01*
X121741428Y-136300942D02*
X121770000Y-136329514D01*
X122341428Y-136872371D02*
X121998571Y-136872371D01*
X122170000Y-136872371D02*
X122170000Y-136272371D01*
X122170000Y-136272371D02*
X122112857Y-136358085D01*
X122112857Y-136358085D02*
X122055714Y-136415228D01*
X122055714Y-136415228D02*
X121998571Y-136443800D01*
X115942371Y-133099999D02*
X115656657Y-133299999D01*
X115942371Y-133442856D02*
X115342371Y-133442856D01*
X115342371Y-133442856D02*
X115342371Y-133214285D01*
X115342371Y-133214285D02*
X115370942Y-133157142D01*
X115370942Y-133157142D02*
X115399514Y-133128571D01*
X115399514Y-133128571D02*
X115456657Y-133099999D01*
X115456657Y-133099999D02*
X115542371Y-133099999D01*
X115542371Y-133099999D02*
X115599514Y-133128571D01*
X115599514Y-133128571D02*
X115628085Y-133157142D01*
X115628085Y-133157142D02*
X115656657Y-133214285D01*
X115656657Y-133214285D02*
X115656657Y-133442856D01*
X115942371Y-132528571D02*
X115942371Y-132871428D01*
X115942371Y-132699999D02*
X115342371Y-132699999D01*
X115342371Y-132699999D02*
X115428085Y-132757142D01*
X115428085Y-132757142D02*
X115485228Y-132814285D01*
X115485228Y-132814285D02*
X115513800Y-132871428D01*
X93442371Y-133499999D02*
X93156657Y-133699999D01*
X93442371Y-133842856D02*
X92842371Y-133842856D01*
X92842371Y-133842856D02*
X92842371Y-133614285D01*
X92842371Y-133614285D02*
X92870942Y-133557142D01*
X92870942Y-133557142D02*
X92899514Y-133528571D01*
X92899514Y-133528571D02*
X92956657Y-133499999D01*
X92956657Y-133499999D02*
X93042371Y-133499999D01*
X93042371Y-133499999D02*
X93099514Y-133528571D01*
X93099514Y-133528571D02*
X93128085Y-133557142D01*
X93128085Y-133557142D02*
X93156657Y-133614285D01*
X93156657Y-133614285D02*
X93156657Y-133842856D01*
X92842371Y-133299999D02*
X92842371Y-132899999D01*
X92842371Y-132899999D02*
X93442371Y-133157142D01*
X111242371Y-135699999D02*
X110956657Y-135899999D01*
X111242371Y-136042856D02*
X110642371Y-136042856D01*
X110642371Y-136042856D02*
X110642371Y-135814285D01*
X110642371Y-135814285D02*
X110670942Y-135757142D01*
X110670942Y-135757142D02*
X110699514Y-135728571D01*
X110699514Y-135728571D02*
X110756657Y-135699999D01*
X110756657Y-135699999D02*
X110842371Y-135699999D01*
X110842371Y-135699999D02*
X110899514Y-135728571D01*
X110899514Y-135728571D02*
X110928085Y-135757142D01*
X110928085Y-135757142D02*
X110956657Y-135814285D01*
X110956657Y-135814285D02*
X110956657Y-136042856D01*
X110642371Y-135157142D02*
X110642371Y-135442856D01*
X110642371Y-135442856D02*
X110928085Y-135471428D01*
X110928085Y-135471428D02*
X110899514Y-135442856D01*
X110899514Y-135442856D02*
X110870942Y-135385714D01*
X110870942Y-135385714D02*
X110870942Y-135242856D01*
X110870942Y-135242856D02*
X110899514Y-135185714D01*
X110899514Y-135185714D02*
X110928085Y-135157142D01*
X110928085Y-135157142D02*
X110985228Y-135128571D01*
X110985228Y-135128571D02*
X111128085Y-135128571D01*
X111128085Y-135128571D02*
X111185228Y-135157142D01*
X111185228Y-135157142D02*
X111213800Y-135185714D01*
X111213800Y-135185714D02*
X111242371Y-135242856D01*
X111242371Y-135242856D02*
X111242371Y-135385714D01*
X111242371Y-135385714D02*
X111213800Y-135442856D01*
X111213800Y-135442856D02*
X111185228Y-135471428D01*
D11*
X122454819Y-139161904D02*
X123264342Y-139161904D01*
X123264342Y-139161904D02*
X123359580Y-139114285D01*
X123359580Y-139114285D02*
X123407200Y-139066666D01*
X123407200Y-139066666D02*
X123454819Y-138971428D01*
X123454819Y-138971428D02*
X123454819Y-138780952D01*
X123454819Y-138780952D02*
X123407200Y-138685714D01*
X123407200Y-138685714D02*
X123359580Y-138638095D01*
X123359580Y-138638095D02*
X123264342Y-138590476D01*
X123264342Y-138590476D02*
X122454819Y-138590476D01*
X123454819Y-137590476D02*
X123454819Y-138161904D01*
X123454819Y-137876190D02*
X122454819Y-137876190D01*
X122454819Y-137876190D02*
X122597676Y-137971428D01*
X122597676Y-137971428D02*
X122692914Y-138066666D01*
X122692914Y-138066666D02*
X122740533Y-138161904D01*
D12*
%TO.C,G\u002A\u002A\u002A*%
G36*
X88475440Y-137229018D02*
G01*
X88511601Y-137235540D01*
X88536696Y-137246579D01*
X88556372Y-137261459D01*
X88604025Y-137290729D01*
X88646105Y-137301496D01*
X88686933Y-137307044D01*
X88703096Y-137314891D01*
X88730203Y-137325264D01*
X88779968Y-137333733D01*
X88791430Y-137334881D01*
X88893933Y-137350568D01*
X88993250Y-137377435D01*
X89080420Y-137411883D01*
X89146485Y-137450313D01*
X89182486Y-137489127D01*
X89183965Y-137492568D01*
X89210782Y-137516525D01*
X89235751Y-137521670D01*
X89268521Y-137533453D01*
X89276379Y-137550364D01*
X89293999Y-137573854D01*
X89331379Y-137585391D01*
X89375452Y-137600895D01*
X89393085Y-137640143D01*
X89393318Y-137641764D01*
X89407487Y-137682369D01*
X89438484Y-137743367D01*
X89479992Y-137812501D01*
X89486134Y-137821906D01*
X89564049Y-137955957D01*
X89612008Y-138080545D01*
X89633941Y-138207477D01*
X89636379Y-138273241D01*
X89625514Y-138388894D01*
X89590036Y-138476474D01*
X89525615Y-138541751D01*
X89427921Y-138590497D01*
X89388531Y-138603668D01*
X89341635Y-138612892D01*
X89312324Y-138610021D01*
X89280567Y-138600854D01*
X89229488Y-138595212D01*
X89172853Y-138593398D01*
X89124426Y-138595714D01*
X89097974Y-138602462D01*
X89096379Y-138605274D01*
X89082104Y-138620746D01*
X89045250Y-138613260D01*
X88998343Y-138587004D01*
X88964763Y-138568360D01*
X88921228Y-138555228D01*
X88859065Y-138546058D01*
X88769601Y-138539297D01*
X88716379Y-138536545D01*
X88650995Y-138528625D01*
X88596581Y-138513977D01*
X88584612Y-138508387D01*
X88534602Y-138493558D01*
X88501869Y-138495205D01*
X88463270Y-138494910D01*
X88447455Y-138484170D01*
X88418966Y-138467300D01*
X88385198Y-138462410D01*
X88346591Y-138452544D01*
X88336379Y-138422379D01*
X88322060Y-138388723D01*
X88298095Y-138382347D01*
X88261105Y-138367355D01*
X88208998Y-138327951D01*
X88149634Y-138272493D01*
X88090869Y-138209338D01*
X88040563Y-138146847D01*
X88006573Y-138093376D01*
X87996379Y-138061422D01*
X87987875Y-138029264D01*
X87976379Y-138022064D01*
X87960574Y-138005159D01*
X87956379Y-137978604D01*
X87943795Y-137927978D01*
X87928578Y-137903545D01*
X87912938Y-137869479D01*
X87896463Y-137807575D01*
X87882210Y-137729841D01*
X87879577Y-137711056D01*
X87868000Y-137631009D01*
X87856385Y-137563547D01*
X87846877Y-137520871D01*
X87845237Y-137515902D01*
X87844133Y-137487080D01*
X87855496Y-137481638D01*
X87873145Y-137465531D01*
X87874509Y-137446611D01*
X87878360Y-137402860D01*
X87894526Y-137353733D01*
X87916472Y-137314846D01*
X87935256Y-137301496D01*
X87946685Y-137286845D01*
X87943611Y-137271473D01*
X87937227Y-137244349D01*
X87939239Y-137239527D01*
X87960711Y-137238294D01*
X88014797Y-137236224D01*
X88094128Y-137233571D01*
X88191333Y-137230590D01*
X88228312Y-137229514D01*
X88341019Y-137226708D01*
X88420987Y-137226309D01*
X88475440Y-137229018D01*
G37*
G36*
X88695084Y-133091476D02*
G01*
X88726379Y-133105693D01*
X88778642Y-133122949D01*
X88852848Y-133137290D01*
X88916379Y-133144238D01*
X89075989Y-133167940D01*
X89213669Y-133217307D01*
X89221107Y-133220964D01*
X89269986Y-133236122D01*
X89291671Y-133238297D01*
X89325996Y-133246621D01*
X89384601Y-133268672D01*
X89456094Y-133300072D01*
X89472120Y-133307656D01*
X89543637Y-133338927D01*
X89603763Y-133359733D01*
X89641748Y-133366495D01*
X89646388Y-133365626D01*
X89677712Y-133371094D01*
X89688350Y-133386338D01*
X89713566Y-133414221D01*
X89729362Y-133418439D01*
X89770116Y-133430599D01*
X89782223Y-133438736D01*
X89841749Y-133482978D01*
X89906396Y-133522355D01*
X89963520Y-133549822D01*
X89997267Y-133558549D01*
X90029206Y-133570877D01*
X90036379Y-133587584D01*
X90049814Y-133613603D01*
X90084735Y-133657850D01*
X90133065Y-133711921D01*
X90186727Y-133767409D01*
X90237643Y-133815910D01*
X90277736Y-133849018D01*
X90296991Y-133858786D01*
X90314699Y-133874770D01*
X90316379Y-133885696D01*
X90328586Y-133917581D01*
X90358667Y-133961580D01*
X90365755Y-133970114D01*
X90406150Y-134025147D01*
X90436923Y-134080356D01*
X90438181Y-134083314D01*
X90459699Y-134122752D01*
X90478805Y-134139006D01*
X90493388Y-134155681D01*
X90496379Y-134176587D01*
X90510904Y-134220811D01*
X90526378Y-134239085D01*
X90551755Y-134272406D01*
X90556378Y-134290146D01*
X90569430Y-134325629D01*
X90583158Y-134343090D01*
X90608687Y-134383370D01*
X90621430Y-134419578D01*
X90634565Y-134466111D01*
X90656025Y-134532533D01*
X90672258Y-134579353D01*
X90702307Y-134666267D01*
X90733413Y-134760468D01*
X90745795Y-134799526D01*
X90766647Y-134865325D01*
X90784143Y-134918244D01*
X90791773Y-134939637D01*
X90806479Y-134986348D01*
X90809567Y-134999684D01*
X90819849Y-135050305D01*
X90834488Y-135121116D01*
X90855117Y-135220005D01*
X90865560Y-135269897D01*
X90881124Y-135359346D01*
X90892045Y-135450862D01*
X90895643Y-135513908D01*
X90899623Y-135575121D01*
X90909007Y-135618405D01*
X90916379Y-135630180D01*
X90935821Y-135661456D01*
X90920119Y-135707380D01*
X90870238Y-135765373D01*
X90863520Y-135771633D01*
X90807963Y-135814456D01*
X90752672Y-135844690D01*
X90733520Y-135850982D01*
X90692766Y-135865482D01*
X90676379Y-135881968D01*
X90661143Y-135899901D01*
X90656607Y-135900393D01*
X90627882Y-135912305D01*
X90595959Y-135935421D01*
X90560807Y-135960682D01*
X90540730Y-135968135D01*
X90519400Y-135980664D01*
X90500244Y-136003162D01*
X90469563Y-136032913D01*
X90449303Y-136040503D01*
X90422534Y-136053902D01*
X90379859Y-136088406D01*
X90346379Y-136120566D01*
X90298748Y-136164816D01*
X90258904Y-136193892D01*
X90241692Y-136200630D01*
X90212602Y-136216865D01*
X90202477Y-136233610D01*
X90180177Y-136268641D01*
X90141448Y-136312645D01*
X90133105Y-136320844D01*
X90096315Y-136364080D01*
X90077158Y-136402309D01*
X90076379Y-136408586D01*
X90061551Y-136443623D01*
X90047839Y-136453035D01*
X90009632Y-136486742D01*
X89976568Y-136550656D01*
X89950988Y-136635054D01*
X89935235Y-136730211D01*
X89931652Y-136826400D01*
X89939856Y-136901370D01*
X89967665Y-136977247D01*
X90015352Y-137048312D01*
X90073975Y-137104879D01*
X90134598Y-137137260D01*
X90161338Y-137141370D01*
X90209783Y-137154489D01*
X90238026Y-137172886D01*
X90281732Y-137193308D01*
X90354501Y-137207856D01*
X90445775Y-137216158D01*
X90544998Y-137217845D01*
X90641611Y-137212545D01*
X90725059Y-137199888D01*
X90757268Y-137191114D01*
X90843623Y-137170448D01*
X90919191Y-137166772D01*
X90930234Y-137168143D01*
X90990314Y-137169431D01*
X91037237Y-137156200D01*
X91037693Y-137155919D01*
X91074345Y-137142564D01*
X91099879Y-137156883D01*
X91136185Y-137174269D01*
X91188210Y-137181402D01*
X91236476Y-137188381D01*
X91259631Y-137214807D01*
X91263784Y-137228222D01*
X91282574Y-137269071D01*
X91318209Y-137323427D01*
X91362802Y-137381559D01*
X91408463Y-137433734D01*
X91447305Y-137470224D01*
X91469211Y-137481638D01*
X91498128Y-137497436D01*
X91516378Y-137521670D01*
X91553823Y-137554562D01*
X91587082Y-137561701D01*
X91624334Y-137568426D01*
X91636379Y-137581089D01*
X91651058Y-137592054D01*
X91666633Y-137588857D01*
X91707354Y-137589670D01*
X91721633Y-137597494D01*
X91752112Y-137606517D01*
X91811375Y-137612676D01*
X91888249Y-137614966D01*
X91913293Y-137614745D01*
X91990791Y-137615047D01*
X92051586Y-137618472D01*
X92085722Y-137624342D01*
X92089473Y-137626752D01*
X92113555Y-137641805D01*
X92133487Y-137625692D01*
X92136379Y-137609599D01*
X92148759Y-137586837D01*
X92165738Y-137588709D01*
X92197920Y-137588496D01*
X92206918Y-137580843D01*
X92234026Y-137566037D01*
X92267559Y-137561701D01*
X92304665Y-137556437D01*
X92316535Y-137546689D01*
X92332981Y-137528818D01*
X92371267Y-137506619D01*
X92415220Y-137488223D01*
X92445921Y-137481638D01*
X92474081Y-137467117D01*
X92507842Y-137434205D01*
X92532292Y-137398880D01*
X92536379Y-137384713D01*
X92552112Y-137364491D01*
X92587681Y-137340830D01*
X92643323Y-137322784D01*
X92680104Y-137339008D01*
X92698629Y-137390166D01*
X92700323Y-137464381D01*
X92693596Y-137528182D01*
X92682899Y-137575640D01*
X92675323Y-137590724D01*
X92661279Y-137623410D01*
X92656379Y-137665965D01*
X92638995Y-137726779D01*
X92596379Y-137785025D01*
X92559419Y-137828430D01*
X92538293Y-137862347D01*
X92536378Y-137869857D01*
X92522601Y-137893641D01*
X92486497Y-137934767D01*
X92436378Y-137983862D01*
X92386623Y-138028530D01*
X92350812Y-138058563D01*
X92336404Y-138067718D01*
X92336378Y-138067552D01*
X92324624Y-138072933D01*
X92303800Y-138091840D01*
X92267463Y-138113488D01*
X92243800Y-138113914D01*
X92219673Y-138115076D01*
X92216379Y-138123200D01*
X92199862Y-138144050D01*
X92161379Y-138165416D01*
X92103864Y-138189390D01*
X92040014Y-138216726D01*
X92037177Y-138217961D01*
X91983252Y-138238903D01*
X91941306Y-138250922D01*
X91937177Y-138251540D01*
X91896849Y-138261552D01*
X91850077Y-138278629D01*
X91800708Y-138295762D01*
X91766257Y-138302284D01*
X91732932Y-138314764D01*
X91726618Y-138321913D01*
X91701233Y-138331854D01*
X91650316Y-138335053D01*
X91617917Y-138333509D01*
X91532460Y-138335334D01*
X91466571Y-138353913D01*
X91389315Y-138379356D01*
X91320731Y-138374531D01*
X91298503Y-138364069D01*
X91257597Y-138357346D01*
X91210445Y-138367401D01*
X91162874Y-138378398D01*
X91134688Y-138367109D01*
X91128320Y-138359839D01*
X91091022Y-138333716D01*
X91051493Y-138347052D01*
X91030627Y-138369909D01*
X91011581Y-138390218D01*
X90986058Y-138398166D01*
X90942576Y-138394903D01*
X90884766Y-138384534D01*
X90805705Y-138370575D01*
X90706761Y-138355027D01*
X90607777Y-138340989D01*
X90596379Y-138339493D01*
X90510893Y-138326011D01*
X90434724Y-138309787D01*
X90381276Y-138293790D01*
X90372372Y-138289841D01*
X90320104Y-138269536D01*
X90279821Y-138262253D01*
X90234887Y-138247676D01*
X90216005Y-138231778D01*
X90204955Y-138222221D01*
X91396379Y-138222221D01*
X91408874Y-138240839D01*
X91434197Y-138234826D01*
X91447380Y-138220600D01*
X91474687Y-138208346D01*
X91508560Y-138210973D01*
X91541871Y-138214653D01*
X91554619Y-138195644D01*
X91556379Y-138161207D01*
X91552641Y-138119267D01*
X91536287Y-138107873D01*
X91515419Y-138112439D01*
X91466547Y-138111905D01*
X91440419Y-138099742D01*
X91417976Y-138083998D01*
X91424268Y-138093999D01*
X91431379Y-138102091D01*
X91452705Y-138141980D01*
X91453275Y-138179997D01*
X91433832Y-138201252D01*
X91426379Y-138202206D01*
X91399763Y-138213013D01*
X91396379Y-138222221D01*
X90204955Y-138222221D01*
X90193472Y-138212290D01*
X90167174Y-138217794D01*
X90144259Y-138231778D01*
X90094813Y-138254989D01*
X90058076Y-138262253D01*
X90017239Y-138275770D01*
X90001792Y-138291892D01*
X89971817Y-138316268D01*
X89922380Y-138334101D01*
X89920798Y-138334426D01*
X89875678Y-138339509D01*
X89856695Y-138327106D01*
X89853047Y-138309790D01*
X89849360Y-138265568D01*
X89844530Y-138204539D01*
X89843579Y-138192198D01*
X89841791Y-138172182D01*
X91356379Y-138172182D01*
X91366379Y-138182190D01*
X91376379Y-138172182D01*
X91366379Y-138162174D01*
X91356379Y-138172182D01*
X89841791Y-138172182D01*
X89838215Y-138132150D01*
X90876379Y-138132150D01*
X90886379Y-138142158D01*
X90896379Y-138132150D01*
X90886379Y-138122143D01*
X90876379Y-138132150D01*
X89838215Y-138132150D01*
X89834937Y-138095446D01*
X89834445Y-138092119D01*
X89996379Y-138092119D01*
X90006379Y-138102127D01*
X90016379Y-138092119D01*
X90006379Y-138082111D01*
X89996379Y-138092119D01*
X89834445Y-138092119D01*
X89824855Y-138027273D01*
X89815072Y-137992040D01*
X90096379Y-137992040D01*
X90106379Y-138002048D01*
X91641826Y-138002048D01*
X91643386Y-138045339D01*
X91647375Y-138057223D01*
X91650493Y-138047083D01*
X91653802Y-137988758D01*
X91650555Y-137957603D01*
X91711736Y-137957603D01*
X91720833Y-137977028D01*
X91744073Y-137999454D01*
X91754385Y-137988124D01*
X91756379Y-137951219D01*
X91752988Y-137917222D01*
X91738734Y-137917500D01*
X91728384Y-137926200D01*
X91711736Y-137957603D01*
X91650555Y-137957603D01*
X91650493Y-137957012D01*
X91645547Y-137947527D01*
X91642409Y-137972675D01*
X91641826Y-138002048D01*
X90106379Y-138002048D01*
X90116379Y-137992040D01*
X90106379Y-137982032D01*
X90096379Y-137992040D01*
X89815072Y-137992040D01*
X89810687Y-137976248D01*
X89807200Y-137968688D01*
X91523045Y-137968688D01*
X91525791Y-137980588D01*
X91536379Y-137982032D01*
X91552841Y-137974709D01*
X91549712Y-137968688D01*
X91525977Y-137966293D01*
X91523045Y-137968688D01*
X89807200Y-137968688D01*
X89789789Y-137930935D01*
X89778564Y-137911189D01*
X89747308Y-137849181D01*
X89725444Y-137789801D01*
X89722634Y-137778150D01*
X89702062Y-137729235D01*
X89700422Y-137727565D01*
X90019602Y-137727565D01*
X90024469Y-137738750D01*
X90044607Y-137760238D01*
X90056184Y-137755830D01*
X90056379Y-137753032D01*
X90042173Y-137736103D01*
X90036036Y-137731835D01*
X90316379Y-137731835D01*
X90326379Y-137741843D01*
X90336379Y-137731835D01*
X90326379Y-137721827D01*
X90316379Y-137731835D01*
X90036036Y-137731835D01*
X90033288Y-137729924D01*
X90019602Y-137727565D01*
X89700422Y-137727565D01*
X89681679Y-137708483D01*
X89963045Y-137708483D01*
X89965791Y-137720383D01*
X89976379Y-137721827D01*
X89992841Y-137714504D01*
X89989712Y-137708483D01*
X89965977Y-137706088D01*
X89963045Y-137708483D01*
X89681679Y-137708483D01*
X89673736Y-137700396D01*
X89643218Y-137670894D01*
X89636379Y-137649433D01*
X89623113Y-137621749D01*
X90376379Y-137621749D01*
X90383696Y-137638224D01*
X90389712Y-137635092D01*
X90392105Y-137611338D01*
X90389712Y-137608405D01*
X90377822Y-137611152D01*
X90376379Y-137621749D01*
X89623113Y-137621749D01*
X89622663Y-137620811D01*
X89599557Y-137591725D01*
X90676379Y-137591725D01*
X90686379Y-137601733D01*
X90696379Y-137591725D01*
X90686379Y-137581717D01*
X90676379Y-137591725D01*
X89599557Y-137591725D01*
X89586707Y-137575549D01*
X89585241Y-137574034D01*
X90763175Y-137574034D01*
X90766379Y-137581717D01*
X90792873Y-137600985D01*
X90798739Y-137601733D01*
X90807538Y-137591725D01*
X91196379Y-137591725D01*
X91206379Y-137601733D01*
X91216379Y-137591725D01*
X91206379Y-137581717D01*
X91196379Y-137591725D01*
X90807538Y-137591725D01*
X90809582Y-137589400D01*
X90806379Y-137581717D01*
X90779884Y-137562448D01*
X90774018Y-137561701D01*
X90763175Y-137574034D01*
X89585241Y-137574034D01*
X89536379Y-137523527D01*
X89486278Y-137473462D01*
X89484659Y-137471630D01*
X90556379Y-137471630D01*
X90566379Y-137481638D01*
X90576379Y-137471630D01*
X90566379Y-137461622D01*
X90556379Y-137471630D01*
X89484659Y-137471630D01*
X89450372Y-137432823D01*
X89436298Y-137410270D01*
X89436292Y-137410072D01*
X89423627Y-137386662D01*
X89411922Y-137371552D01*
X90736379Y-137371552D01*
X90746379Y-137381559D01*
X90756379Y-137371552D01*
X90746379Y-137361544D01*
X90736379Y-137371552D01*
X89411922Y-137371552D01*
X89390741Y-137344209D01*
X89362102Y-137311504D01*
X89996379Y-137311504D01*
X90006379Y-137321512D01*
X90016379Y-137311504D01*
X90006379Y-137301496D01*
X89996379Y-137311504D01*
X89362102Y-137311504D01*
X89351292Y-137299159D01*
X89318343Y-137268137D01*
X89483045Y-137268137D01*
X89485791Y-137280036D01*
X89496379Y-137281481D01*
X89512841Y-137274157D01*
X89509712Y-137268137D01*
X89485977Y-137265741D01*
X89483045Y-137268137D01*
X89318343Y-137268137D01*
X89283568Y-137235396D01*
X89205901Y-137177446D01*
X89128832Y-137131916D01*
X89062902Y-137105413D01*
X89035669Y-137101339D01*
X89003566Y-137092255D01*
X88996379Y-137079974D01*
X88980758Y-137067755D01*
X88955419Y-137071620D01*
X88909531Y-137072078D01*
X88885837Y-137060857D01*
X88851873Y-137047213D01*
X88801211Y-137056695D01*
X88793812Y-137059203D01*
X88725940Y-137075411D01*
X88656186Y-137080502D01*
X88597694Y-137074643D01*
X88563611Y-137058001D01*
X88562372Y-137056271D01*
X88527867Y-137027015D01*
X88469101Y-136997252D01*
X88401324Y-136972726D01*
X88339783Y-136959183D01*
X88306379Y-136959818D01*
X88273270Y-136965328D01*
X88226379Y-136970710D01*
X88164353Y-136984827D01*
X88106701Y-137008421D01*
X88052189Y-137031008D01*
X87979110Y-137053269D01*
X87936892Y-137063278D01*
X87864080Y-137083432D01*
X87813263Y-137113824D01*
X87775058Y-137163534D01*
X87740086Y-137241645D01*
X87732929Y-137260729D01*
X87715102Y-137334159D01*
X87703056Y-137434588D01*
X87696838Y-137550810D01*
X87696495Y-137671623D01*
X87702077Y-137785821D01*
X87713629Y-137882200D01*
X87730001Y-137946600D01*
X87752992Y-137999952D01*
X87772051Y-138035540D01*
X87777489Y-138042079D01*
X87790539Y-138066659D01*
X87804433Y-138113875D01*
X87806275Y-138122143D01*
X87824624Y-138186947D01*
X87847716Y-138244174D01*
X87863715Y-138297345D01*
X87862989Y-138339193D01*
X87855155Y-138359081D01*
X87839013Y-138371585D01*
X87806696Y-138378311D01*
X87750342Y-138380864D01*
X87662084Y-138380849D01*
X87659060Y-138380828D01*
X87572477Y-138381304D01*
X87499157Y-138383744D01*
X87449607Y-138387700D01*
X87436379Y-138390328D01*
X87397490Y-138388101D01*
X87371549Y-138374698D01*
X87319817Y-138357292D01*
X87237532Y-138357698D01*
X87150209Y-138358780D01*
X87046794Y-138348809D01*
X86936267Y-138329965D01*
X86827610Y-138304429D01*
X86729803Y-138274382D01*
X86651827Y-138242004D01*
X86602664Y-138209475D01*
X86596226Y-138201993D01*
X86560289Y-138170832D01*
X86531963Y-138162174D01*
X86501989Y-138150312D01*
X86496379Y-138136539D01*
X86479545Y-138112598D01*
X86438648Y-138089142D01*
X86434920Y-138087687D01*
X86389527Y-138061121D01*
X86382852Y-138037868D01*
X86977205Y-138037868D01*
X86993916Y-138061571D01*
X87011379Y-138068314D01*
X87055769Y-138078392D01*
X87073538Y-138075974D01*
X87074500Y-138072103D01*
X87336379Y-138072103D01*
X87346379Y-138082111D01*
X87356379Y-138072103D01*
X87346379Y-138062095D01*
X87336379Y-138072103D01*
X87074500Y-138072103D01*
X87076379Y-138064546D01*
X87061326Y-138035339D01*
X87028953Y-138013153D01*
X86998439Y-138010845D01*
X86997255Y-138011514D01*
X86977205Y-138037868D01*
X86382852Y-138037868D01*
X86379778Y-138027158D01*
X86374016Y-137983450D01*
X86354378Y-137940904D01*
X86331916Y-137877379D01*
X86328407Y-137783000D01*
X86328465Y-137781875D01*
X86332402Y-137731835D01*
X87436379Y-137731835D01*
X87446379Y-137741843D01*
X87456379Y-137731835D01*
X87446379Y-137721827D01*
X87436379Y-137731835D01*
X86332402Y-137731835D01*
X86336832Y-137675530D01*
X86348935Y-137593113D01*
X86350250Y-137588389D01*
X87083045Y-137588389D01*
X87085791Y-137600288D01*
X87096379Y-137601733D01*
X87112841Y-137594409D01*
X87109712Y-137588389D01*
X87085977Y-137585993D01*
X87083045Y-137588389D01*
X86350250Y-137588389D01*
X86363709Y-137540028D01*
X86379747Y-137521670D01*
X86390220Y-137509570D01*
X86387641Y-137503698D01*
X86387274Y-137491646D01*
X87036379Y-137491646D01*
X87046379Y-137501654D01*
X87056379Y-137491646D01*
X87046379Y-137481638D01*
X87036379Y-137491646D01*
X86387274Y-137491646D01*
X86386795Y-137475896D01*
X86397139Y-137426914D01*
X86414361Y-137370105D01*
X86434147Y-137318826D01*
X86438223Y-137311504D01*
X87336379Y-137311504D01*
X87346379Y-137321512D01*
X87356379Y-137311504D01*
X87346379Y-137301496D01*
X87336379Y-137311504D01*
X86438223Y-137311504D01*
X86452182Y-137286430D01*
X86459417Y-137281481D01*
X86473287Y-137264721D01*
X86476379Y-137242155D01*
X86479168Y-137231441D01*
X86796379Y-137231441D01*
X86806379Y-137241449D01*
X86816379Y-137231441D01*
X86806379Y-137221433D01*
X86796379Y-137231441D01*
X86479168Y-137231441D01*
X86485728Y-137206238D01*
X86495420Y-137191410D01*
X87416379Y-137191410D01*
X87426379Y-137201418D01*
X87436379Y-137191410D01*
X87426379Y-137181402D01*
X87416379Y-137191410D01*
X86495420Y-137191410D01*
X86516372Y-137159354D01*
X86572204Y-137096240D01*
X86620493Y-137047323D01*
X86642780Y-137026643D01*
X86665573Y-137012008D01*
X86696004Y-137002230D01*
X86741208Y-136996122D01*
X86808315Y-136992495D01*
X86904460Y-136990161D01*
X86970493Y-136989027D01*
X87124160Y-136983758D01*
X87258503Y-136973716D01*
X87365102Y-136959619D01*
X87401168Y-136952288D01*
X87498342Y-136934791D01*
X87602666Y-136928408D01*
X87729834Y-136932200D01*
X87733413Y-136932415D01*
X87824598Y-136937366D01*
X87885169Y-136938032D01*
X87924399Y-136933110D01*
X87928779Y-136931205D01*
X88956379Y-136931205D01*
X88966379Y-136941213D01*
X88976379Y-136931205D01*
X88966379Y-136921197D01*
X88956379Y-136931205D01*
X87928779Y-136931205D01*
X87951563Y-136921295D01*
X87965902Y-136909521D01*
X89057957Y-136909521D01*
X89061635Y-136935482D01*
X89068462Y-136935792D01*
X89069279Y-136931205D01*
X89696379Y-136931205D01*
X89706379Y-136941213D01*
X89716379Y-136931205D01*
X89706379Y-136921197D01*
X89696379Y-136931205D01*
X89069279Y-136931205D01*
X89073236Y-136909003D01*
X89070041Y-136897428D01*
X89061160Y-136889847D01*
X89057957Y-136909521D01*
X87965902Y-136909521D01*
X87975936Y-136901282D01*
X87979627Y-136897776D01*
X87986685Y-136887837D01*
X89563045Y-136887837D01*
X89565791Y-136899737D01*
X89576379Y-136901181D01*
X89592841Y-136893858D01*
X89589712Y-136887837D01*
X89565977Y-136885442D01*
X89563045Y-136887837D01*
X87986685Y-136887837D01*
X87991423Y-136881165D01*
X89616379Y-136881165D01*
X89623202Y-136900661D01*
X89625198Y-136901181D01*
X89642274Y-136887155D01*
X89646379Y-136881165D01*
X89644793Y-136862721D01*
X89637559Y-136861150D01*
X89617192Y-136875679D01*
X89616379Y-136881165D01*
X87991423Y-136881165D01*
X88014133Y-136849186D01*
X88015408Y-136830822D01*
X89204497Y-136830822D01*
X89206379Y-136841134D01*
X89231948Y-136860386D01*
X89237559Y-136861150D01*
X89255840Y-136845883D01*
X89256379Y-136841134D01*
X89240099Y-136823568D01*
X89225198Y-136821118D01*
X89204497Y-136830822D01*
X88015408Y-136830822D01*
X88017165Y-136805516D01*
X87988690Y-136775790D01*
X87980093Y-136772578D01*
X87945473Y-136769928D01*
X87882815Y-136771964D01*
X87803748Y-136778201D01*
X87776379Y-136781060D01*
X87632797Y-136796157D01*
X87491088Y-136809528D01*
X87357517Y-136820724D01*
X87238350Y-136829295D01*
X87139855Y-136834794D01*
X87068297Y-136836771D01*
X87029945Y-136834777D01*
X87029100Y-136834587D01*
X86986790Y-136824168D01*
X86921922Y-136808010D01*
X86868136Y-136794531D01*
X86777085Y-136776552D01*
X86720425Y-136777224D01*
X86697129Y-136796600D01*
X86696379Y-136803244D01*
X86681096Y-136820612D01*
X86676379Y-136821118D01*
X86658953Y-136804775D01*
X86656379Y-136789117D01*
X86643124Y-136754932D01*
X86610354Y-136710991D01*
X86601379Y-136701482D01*
X86541437Y-136637091D01*
X86537494Y-136630968D01*
X89516379Y-136630968D01*
X89526379Y-136640976D01*
X89536379Y-136630968D01*
X89526379Y-136620960D01*
X89516379Y-136630968D01*
X86537494Y-136630968D01*
X86508742Y-136586320D01*
X86500333Y-136536547D01*
X86513254Y-136475147D01*
X86534428Y-136415799D01*
X86545273Y-136390673D01*
X86560104Y-136374662D01*
X86587063Y-136365714D01*
X86634290Y-136361772D01*
X86709925Y-136360784D01*
X86752550Y-136360756D01*
X86837702Y-136362028D01*
X86907260Y-136365453D01*
X86951914Y-136370442D01*
X86963013Y-136374067D01*
X86991113Y-136385935D01*
X87030479Y-136393159D01*
X87067177Y-136399906D01*
X87111829Y-136414900D01*
X87173535Y-136441718D01*
X87261107Y-136483795D01*
X87303582Y-136495074D01*
X87363088Y-136500717D01*
X87373658Y-136500866D01*
X87433102Y-136508471D01*
X87473445Y-136527751D01*
X87476196Y-136530669D01*
X87503389Y-136551076D01*
X87516428Y-136550875D01*
X87543840Y-136548558D01*
X87595389Y-136553722D01*
X87623748Y-136558442D01*
X87700898Y-136565838D01*
X87758648Y-136552860D01*
X87768252Y-136548244D01*
X87823185Y-136524708D01*
X87850128Y-136526935D01*
X87852006Y-136555293D01*
X87851184Y-136558617D01*
X87848653Y-136582304D01*
X87864966Y-136587667D01*
X87909497Y-136577511D01*
X87911996Y-136576822D01*
X87976607Y-136565571D01*
X88035976Y-136565145D01*
X88038149Y-136565443D01*
X88082875Y-136563907D01*
X88102767Y-136538576D01*
X88103132Y-136537229D01*
X88123662Y-136510512D01*
X88171930Y-136501045D01*
X88183326Y-136500866D01*
X88233507Y-136505642D01*
X88263757Y-136517345D01*
X88265468Y-136519408D01*
X88294369Y-136531700D01*
X88351082Y-136531735D01*
X88426136Y-136521756D01*
X88510060Y-136504006D01*
X88593382Y-136480726D01*
X88666631Y-136454159D01*
X88679600Y-136447491D01*
X89723045Y-136447491D01*
X89725791Y-136459390D01*
X89736379Y-136460834D01*
X89752841Y-136453511D01*
X89749712Y-136447491D01*
X89725977Y-136445095D01*
X89723045Y-136447491D01*
X88679600Y-136447491D01*
X88720335Y-136426547D01*
X88742041Y-136406578D01*
X88769951Y-136386707D01*
X88821100Y-136366456D01*
X88842041Y-136360513D01*
X88961127Y-136321731D01*
X89048921Y-136274770D01*
X89056379Y-136269215D01*
X89090222Y-136255705D01*
X89147435Y-136243931D01*
X89215745Y-136235084D01*
X89282880Y-136230359D01*
X89336569Y-136230949D01*
X89364540Y-136238045D01*
X89365458Y-136239170D01*
X89389114Y-136245871D01*
X89443592Y-136249248D01*
X89519887Y-136249679D01*
X89608993Y-136247544D01*
X89701903Y-136243220D01*
X89789612Y-136237087D01*
X89863114Y-136229524D01*
X89913403Y-136220909D01*
X89928536Y-136215488D01*
X89958520Y-136204906D01*
X90010553Y-136192521D01*
X90026531Y-136189393D01*
X90084303Y-136170993D01*
X90126790Y-136144157D01*
X90132513Y-136137537D01*
X90168811Y-136107691D01*
X90195640Y-136100551D01*
X90222639Y-136090437D01*
X90222146Y-136060413D01*
X90223872Y-136014359D01*
X90234989Y-135992139D01*
X90246221Y-135962874D01*
X90228829Y-135950433D01*
X90195424Y-135961455D01*
X90153776Y-135975666D01*
X90112559Y-135980150D01*
X90068254Y-135987102D01*
X90046379Y-136000472D01*
X90020014Y-136013548D01*
X89970739Y-136020254D01*
X89959198Y-136020488D01*
X89903213Y-136026828D01*
X89863034Y-136042398D01*
X89859344Y-136045507D01*
X89826700Y-136058143D01*
X89767697Y-136065256D01*
X89694198Y-136067155D01*
X89618067Y-136064151D01*
X89551166Y-136056551D01*
X89505359Y-136044666D01*
X89493147Y-136035956D01*
X89479585Y-136021249D01*
X89476685Y-136037378D01*
X89466337Y-136053092D01*
X89430729Y-136056670D01*
X89381379Y-136051890D01*
X89272854Y-136038901D01*
X89157694Y-136027005D01*
X89051602Y-136017715D01*
X88973850Y-136012693D01*
X88916005Y-136003388D01*
X88872080Y-135985012D01*
X88869308Y-135982889D01*
X88845730Y-135969291D01*
X88808195Y-135958521D01*
X88751618Y-135950035D01*
X88670917Y-135943288D01*
X88561010Y-135937736D01*
X88416813Y-135932835D01*
X88396379Y-135932249D01*
X88240412Y-135925825D01*
X88122025Y-135916262D01*
X88038895Y-135903232D01*
X87988702Y-135886408D01*
X87972102Y-135872486D01*
X87948606Y-135865821D01*
X87892764Y-135860638D01*
X87812200Y-135856928D01*
X87714540Y-135854681D01*
X87607410Y-135853887D01*
X87498434Y-135854536D01*
X87395238Y-135856617D01*
X87305447Y-135860121D01*
X87236687Y-135865037D01*
X87196583Y-135871355D01*
X87191284Y-135873521D01*
X87160534Y-135881374D01*
X87101308Y-135888406D01*
X87025127Y-135893339D01*
X87006429Y-135894041D01*
X86921664Y-135897581D01*
X86845060Y-135902162D01*
X86791440Y-135906877D01*
X86786379Y-135907529D01*
X86617004Y-135929028D01*
X86479220Y-135941297D01*
X86365609Y-135943944D01*
X86268747Y-135936579D01*
X86181215Y-135918809D01*
X86095591Y-135890244D01*
X86043356Y-135868343D01*
X85994329Y-135849214D01*
X85959999Y-135840411D01*
X85958356Y-135840346D01*
X85941006Y-135830338D01*
X90276379Y-135830338D01*
X90286379Y-135840346D01*
X90296379Y-135830338D01*
X90286379Y-135820330D01*
X90276379Y-135830338D01*
X85941006Y-135830338D01*
X85937345Y-135828226D01*
X85936379Y-135823208D01*
X85925329Y-135798730D01*
X85896919Y-135754069D01*
X85871379Y-135718126D01*
X85826803Y-135653906D01*
X85802189Y-135605317D01*
X85790925Y-135558072D01*
X85788990Y-135540109D01*
X85771435Y-135502822D01*
X85761378Y-135494079D01*
X85737933Y-135466678D01*
X85747265Y-135444959D01*
X85769478Y-135440031D01*
X85791440Y-135437170D01*
X85785434Y-135421764D01*
X85769478Y-135403427D01*
X85740548Y-135363875D01*
X85743706Y-135345817D01*
X85776253Y-135349920D01*
X85804714Y-135353615D01*
X85804650Y-135332816D01*
X85803163Y-135328775D01*
X85806528Y-135291110D01*
X85822458Y-135276897D01*
X85844789Y-135249474D01*
X85844398Y-135231919D01*
X85851180Y-135203572D01*
X85868299Y-135191866D01*
X85890664Y-135179545D01*
X85881606Y-135163350D01*
X85864448Y-135149580D01*
X85838489Y-135126967D01*
X85846101Y-135115545D01*
X85868854Y-135108426D01*
X85909397Y-135084522D01*
X85951117Y-135042430D01*
X85954453Y-135038042D01*
X85989650Y-134999268D01*
X86019896Y-134980105D01*
X86023371Y-134979668D01*
X86052886Y-134965208D01*
X86077123Y-134943369D01*
X86527784Y-134943369D01*
X86528292Y-134979668D01*
X86533930Y-135028922D01*
X86540996Y-135097796D01*
X86544566Y-135135018D01*
X86556001Y-135207519D01*
X86573895Y-135272173D01*
X86583768Y-135295145D01*
X86609309Y-135348796D01*
X86637673Y-135416722D01*
X86646133Y-135438858D01*
X86708336Y-135550751D01*
X86800773Y-135638976D01*
X86846379Y-135666895D01*
X86914971Y-135694914D01*
X86974156Y-135696425D01*
X87009183Y-135680220D01*
X87756379Y-135680220D01*
X87763696Y-135696695D01*
X87769712Y-135693564D01*
X87772105Y-135669810D01*
X87769712Y-135666876D01*
X87757822Y-135669623D01*
X87756379Y-135680220D01*
X87009183Y-135680220D01*
X87033485Y-135668977D01*
X87102513Y-135610120D01*
X87114640Y-135598083D01*
X87162810Y-135545891D01*
X87195229Y-135503444D01*
X87205560Y-135479156D01*
X87205098Y-135477988D01*
X87209900Y-135461657D01*
X87220198Y-135459701D01*
X87259791Y-135441699D01*
X87301136Y-135396730D01*
X87337308Y-135336904D01*
X87361383Y-135274332D01*
X87366434Y-135221125D01*
X87363395Y-135209285D01*
X87363345Y-135183863D01*
X87371640Y-135179826D01*
X87387663Y-135162272D01*
X87406823Y-135117511D01*
X87416883Y-135084751D01*
X87434926Y-135024998D01*
X87451616Y-134981006D01*
X87457841Y-134969588D01*
X87465874Y-134940257D01*
X87471627Y-134883816D01*
X87473710Y-134821287D01*
X87476353Y-134753251D01*
X87482644Y-134702451D01*
X87490351Y-134681249D01*
X87502495Y-134655045D01*
X87511054Y-134606545D01*
X87511674Y-134599369D01*
X87514702Y-134575465D01*
X87846330Y-134575465D01*
X87847348Y-134583659D01*
X87851245Y-134605596D01*
X87855977Y-134659445D01*
X87860947Y-134737111D01*
X87865558Y-134830500D01*
X87865566Y-134830681D01*
X87870853Y-134953473D01*
X87876719Y-135089109D01*
X87882284Y-135217260D01*
X87885109Y-135282018D01*
X87898097Y-135428952D01*
X87922325Y-135551792D01*
X87956378Y-135646868D01*
X87998844Y-135710510D01*
X88048309Y-135739048D01*
X88061542Y-135740267D01*
X88100132Y-135753074D01*
X88107379Y-135758856D01*
X88137221Y-135771303D01*
X88192684Y-135781671D01*
X88263479Y-135789416D01*
X88339314Y-135793996D01*
X88409899Y-135794869D01*
X88464944Y-135791492D01*
X88494158Y-135783323D01*
X88496379Y-135779360D01*
X88512958Y-135763345D01*
X88532556Y-135760283D01*
X88576859Y-135748581D01*
X88607556Y-135730896D01*
X88608763Y-135730259D01*
X90476379Y-135730259D01*
X90486379Y-135740267D01*
X90496379Y-135730259D01*
X90493046Y-135726923D01*
X90563045Y-135726923D01*
X90565791Y-135738823D01*
X90576379Y-135740267D01*
X90592841Y-135732944D01*
X90589712Y-135726923D01*
X90565977Y-135724528D01*
X90563045Y-135726923D01*
X90493046Y-135726923D01*
X90486379Y-135720251D01*
X90476379Y-135730259D01*
X88608763Y-135730259D01*
X88652395Y-135707230D01*
X88681379Y-135700872D01*
X88711078Y-135690874D01*
X88716379Y-135680220D01*
X88733921Y-135666826D01*
X88776888Y-135660321D01*
X88784239Y-135660204D01*
X89216379Y-135660204D01*
X89223696Y-135676679D01*
X89229712Y-135673548D01*
X89232105Y-135649794D01*
X89229712Y-135646860D01*
X89217822Y-135649608D01*
X89216379Y-135660204D01*
X88784239Y-135660204D01*
X88838417Y-135651558D01*
X88851962Y-135640188D01*
X90516379Y-135640188D01*
X90523696Y-135656663D01*
X90529712Y-135653532D01*
X90532105Y-135629778D01*
X90529712Y-135626844D01*
X90517822Y-135629592D01*
X90516379Y-135640188D01*
X88851962Y-135640188D01*
X88863482Y-135630518D01*
X88886574Y-135609419D01*
X88900621Y-135610172D01*
X88925842Y-135600307D01*
X88954046Y-135562614D01*
X88958084Y-135554791D01*
X88989583Y-135509805D01*
X89020159Y-135488402D01*
X90237957Y-135488402D01*
X90241635Y-135514363D01*
X90248462Y-135514673D01*
X90253236Y-135487884D01*
X90250041Y-135476309D01*
X90241160Y-135468728D01*
X90237957Y-135488402D01*
X89020159Y-135488402D01*
X89024811Y-135485146D01*
X89028962Y-135484215D01*
X89061304Y-135465230D01*
X89103153Y-135422531D01*
X89105062Y-135420015D01*
X89476379Y-135420015D01*
X89483696Y-135436490D01*
X89489712Y-135433359D01*
X89492105Y-135409605D01*
X89489712Y-135406671D01*
X89477822Y-135409419D01*
X89476379Y-135420015D01*
X89105062Y-135420015D01*
X89132282Y-135384136D01*
X89136018Y-135378680D01*
X90181282Y-135378680D01*
X90184018Y-135379983D01*
X90202270Y-135365893D01*
X90206379Y-135359968D01*
X90211475Y-135341255D01*
X90208739Y-135339952D01*
X90190487Y-135354043D01*
X90186379Y-135359968D01*
X90181282Y-135378680D01*
X89136018Y-135378680D01*
X89173442Y-135324029D01*
X89209555Y-135271888D01*
X89225051Y-135249881D01*
X89240410Y-135209849D01*
X90076379Y-135209849D01*
X90086379Y-135219857D01*
X90096379Y-135209849D01*
X90086379Y-135199841D01*
X90076379Y-135209849D01*
X89240410Y-135209849D01*
X89242311Y-135204894D01*
X89248130Y-135169818D01*
X89596379Y-135169818D01*
X89606379Y-135179826D01*
X89616379Y-135169818D01*
X89606379Y-135159810D01*
X89596379Y-135169818D01*
X89248130Y-135169818D01*
X89253935Y-135134823D01*
X89257247Y-135079747D01*
X90346379Y-135079747D01*
X90347964Y-135098191D01*
X90355198Y-135099763D01*
X90375565Y-135085233D01*
X90376379Y-135079747D01*
X90369555Y-135060252D01*
X90367559Y-135059731D01*
X90350483Y-135073757D01*
X90346379Y-135079747D01*
X89257247Y-135079747D01*
X89258774Y-135054364D01*
X89255682Y-134978212D01*
X89249285Y-134939637D01*
X89247503Y-134927961D01*
X90117957Y-134927961D01*
X90121635Y-134953921D01*
X90128462Y-134954231D01*
X90133236Y-134927443D01*
X90130041Y-134915868D01*
X90121160Y-134908286D01*
X90117957Y-134927961D01*
X89247503Y-134927961D01*
X89242912Y-134897885D01*
X89238189Y-134849566D01*
X89876379Y-134849566D01*
X89886379Y-134859574D01*
X89896379Y-134849566D01*
X89886379Y-134839558D01*
X89876379Y-134849566D01*
X89238189Y-134849566D01*
X89236095Y-134828139D01*
X89229922Y-134742407D01*
X89227525Y-134699447D01*
X89214649Y-134545633D01*
X89193442Y-134427047D01*
X89164252Y-134345335D01*
X89147050Y-134319148D01*
X89128430Y-134281371D01*
X89112236Y-134222792D01*
X89108238Y-134200527D01*
X89083555Y-134119307D01*
X89045578Y-134062691D01*
X89012274Y-134023246D01*
X88996562Y-133992600D01*
X88996379Y-133990427D01*
X88995455Y-133988888D01*
X90196379Y-133988888D01*
X90206379Y-133998896D01*
X90216379Y-133988888D01*
X90206379Y-133978880D01*
X90196379Y-133988888D01*
X88995455Y-133988888D01*
X88981985Y-133966448D01*
X88947502Y-133928841D01*
X90116379Y-133928841D01*
X90132066Y-133955384D01*
X90145751Y-133958864D01*
X90165928Y-133945603D01*
X90163611Y-133928841D01*
X90143980Y-133902354D01*
X90134239Y-133898817D01*
X90118384Y-133915060D01*
X90116379Y-133928841D01*
X88947502Y-133928841D01*
X88944372Y-133925428D01*
X88891890Y-133874908D01*
X88832890Y-133822427D01*
X88775723Y-133775528D01*
X88728741Y-133741749D01*
X88709024Y-133730962D01*
X88657721Y-133719299D01*
X88603398Y-133717310D01*
X88555523Y-133714010D01*
X88527454Y-133700381D01*
X88527185Y-133699965D01*
X88501370Y-133689153D01*
X88476480Y-133698605D01*
X88429955Y-133713365D01*
X88372693Y-133720255D01*
X88335427Y-133723768D01*
X88328394Y-133730410D01*
X88331379Y-133731931D01*
X88352349Y-133757941D01*
X88356379Y-133780390D01*
X88345896Y-133811667D01*
X88312419Y-133814975D01*
X88252903Y-133790587D01*
X88251379Y-133789794D01*
X88211076Y-133773356D01*
X88196611Y-133781221D01*
X88196321Y-133784913D01*
X88181052Y-133810932D01*
X88143646Y-133843744D01*
X88136379Y-133848778D01*
X88096398Y-133883347D01*
X88076828Y-133915656D01*
X88076436Y-133919380D01*
X88062413Y-133952019D01*
X88028006Y-133992688D01*
X88020703Y-133999443D01*
X87978113Y-134054879D01*
X87939447Y-134135406D01*
X87910380Y-134226125D01*
X87896587Y-134312132D01*
X87896162Y-134326450D01*
X87890037Y-134384723D01*
X87874912Y-134456492D01*
X87867668Y-134482450D01*
X87852750Y-134538030D01*
X87846330Y-134575465D01*
X87514702Y-134575465D01*
X87518829Y-134542881D01*
X87528994Y-134501020D01*
X87529691Y-134499290D01*
X87536347Y-134480037D01*
X87541828Y-134452971D01*
X87546880Y-134411083D01*
X87552250Y-134347366D01*
X87558684Y-134254812D01*
X87563268Y-134184060D01*
X87567602Y-134101760D01*
X87566822Y-134050298D01*
X87559560Y-134020655D01*
X87544450Y-134003815D01*
X87535098Y-133998210D01*
X87503042Y-133959699D01*
X87496379Y-133920087D01*
X87487857Y-133875364D01*
X87454693Y-133848973D01*
X87435494Y-133841460D01*
X87372474Y-133813326D01*
X87320494Y-133782740D01*
X87278642Y-133759712D01*
X87236603Y-133756015D01*
X87183769Y-133766995D01*
X87118737Y-133789743D01*
X87062645Y-133818442D01*
X87053769Y-133824611D01*
X87008468Y-133857724D01*
X86976379Y-133879655D01*
X86957058Y-133898535D01*
X86973834Y-133916526D01*
X86973941Y-133916595D01*
X86989291Y-133940790D01*
X86982247Y-133964438D01*
X86959988Y-133970132D01*
X86953191Y-133966901D01*
X86925643Y-133971273D01*
X86884875Y-134001821D01*
X86838269Y-134050408D01*
X86793207Y-134108897D01*
X86757073Y-134169152D01*
X86745074Y-134196293D01*
X86722294Y-134252053D01*
X86703427Y-134290312D01*
X86696964Y-134299132D01*
X86681537Y-134326910D01*
X86661218Y-134386223D01*
X86638141Y-134469196D01*
X86614441Y-134567956D01*
X86592252Y-134674628D01*
X86585797Y-134709270D01*
X86569758Y-134791088D01*
X86554244Y-134858335D01*
X86541694Y-134900893D01*
X86537561Y-134909428D01*
X86527784Y-134943369D01*
X86077123Y-134943369D01*
X86090576Y-134931247D01*
X86122914Y-134891909D01*
X86136378Y-134861649D01*
X86153853Y-134846742D01*
X86196855Y-134832822D01*
X86206379Y-134830871D01*
X86257434Y-134814099D01*
X86275954Y-134786512D01*
X86276379Y-134779785D01*
X86286359Y-134741447D01*
X86297559Y-134728741D01*
X86312048Y-134700749D01*
X86312866Y-134670779D01*
X86321713Y-134621838D01*
X86341685Y-134591198D01*
X86375220Y-134535290D01*
X86378394Y-134466540D01*
X86391784Y-134440551D01*
X86406024Y-134432140D01*
X86431898Y-134404656D01*
X86436378Y-134383827D01*
X86448821Y-134339278D01*
X86460379Y-134323151D01*
X86474293Y-134303318D01*
X86460379Y-134299132D01*
X86437737Y-134287972D01*
X86445596Y-134257278D01*
X86482231Y-134211228D01*
X86506378Y-134187767D01*
X86548389Y-134140601D01*
X86573367Y-134095840D01*
X86576378Y-134080635D01*
X86588217Y-134041393D01*
X86605116Y-134026635D01*
X86624656Y-134002147D01*
X86622976Y-133987232D01*
X86627764Y-133962754D01*
X86643245Y-133958864D01*
X86680401Y-133943419D01*
X86690385Y-133931673D01*
X86718439Y-133903941D01*
X86764292Y-133874269D01*
X86766379Y-133873169D01*
X86803717Y-133850935D01*
X86807975Y-133837199D01*
X86791379Y-133828164D01*
X86761833Y-133803624D01*
X86756379Y-133786589D01*
X86772945Y-133761472D01*
X86791379Y-133755658D01*
X86867528Y-133742869D01*
X86905493Y-133728683D01*
X87936379Y-133728683D01*
X87946379Y-133738691D01*
X87956379Y-133728683D01*
X87946379Y-133718675D01*
X87936379Y-133728683D01*
X86905493Y-133728683D01*
X86924893Y-133721434D01*
X86954342Y-133695189D01*
X86956378Y-133686317D01*
X86972653Y-133646975D01*
X86990221Y-133628604D01*
X88376379Y-133628604D01*
X88386379Y-133638612D01*
X88396379Y-133628604D01*
X88386379Y-133618596D01*
X88376379Y-133628604D01*
X86990221Y-133628604D01*
X87012551Y-133605253D01*
X88563045Y-133605253D01*
X88565791Y-133617152D01*
X88576379Y-133618596D01*
X88592841Y-133611273D01*
X88589712Y-133605253D01*
X88565977Y-133602857D01*
X88563045Y-133605253D01*
X87012551Y-133605253D01*
X87012755Y-133605040D01*
X87039176Y-133588573D01*
X87636379Y-133588573D01*
X87646379Y-133598581D01*
X87656379Y-133588573D01*
X87646379Y-133578565D01*
X87636379Y-133588573D01*
X87039176Y-133588573D01*
X87063602Y-133573349D01*
X87076378Y-133568557D01*
X87114916Y-133548541D01*
X87536379Y-133548541D01*
X87546379Y-133558549D01*
X87556379Y-133548541D01*
X87546379Y-133538533D01*
X87536379Y-133548541D01*
X87114916Y-133548541D01*
X87125167Y-133543217D01*
X87158353Y-133516542D01*
X87206321Y-133488352D01*
X87256379Y-133478486D01*
X87304013Y-133469535D01*
X87316379Y-133448462D01*
X87331289Y-133421902D01*
X87344239Y-133418439D01*
X87375114Y-133402294D01*
X87383611Y-133388415D01*
X87409383Y-133368399D01*
X88396379Y-133368399D01*
X88406379Y-133378407D01*
X88416379Y-133368399D01*
X88406379Y-133358392D01*
X88396379Y-133368399D01*
X87409383Y-133368399D01*
X87412893Y-133365673D01*
X87470751Y-133357755D01*
X87536998Y-133348962D01*
X87584264Y-133327083D01*
X87603642Y-133297034D01*
X87602111Y-133285265D01*
X87614831Y-133267560D01*
X87660262Y-133252688D01*
X87680355Y-133249103D01*
X87744035Y-133237032D01*
X87796433Y-133223115D01*
X87806379Y-133219470D01*
X87851395Y-133206801D01*
X87926048Y-133192022D01*
X88020142Y-133176694D01*
X88123482Y-133162380D01*
X88225873Y-133150640D01*
X88296204Y-133144443D01*
X88364555Y-133136924D01*
X88415669Y-133126592D01*
X88437446Y-133116475D01*
X88463582Y-133108093D01*
X88517510Y-133111319D01*
X88539695Y-133114973D01*
X88601004Y-133122945D01*
X88635191Y-133116807D01*
X88648454Y-133103948D01*
X88666422Y-133087281D01*
X88695084Y-133091476D01*
G37*
G36*
X86049330Y-137405830D02*
G01*
X86246379Y-137411583D01*
X86252474Y-137506658D01*
X86252358Y-137562777D01*
X86244990Y-137596705D01*
X86238892Y-137601733D01*
X86224518Y-137619892D01*
X86209250Y-137667192D01*
X86195319Y-137732863D01*
X86184956Y-137806135D01*
X86180390Y-137876240D01*
X86180339Y-137884438D01*
X86171005Y-137967882D01*
X86141061Y-138018918D01*
X86088182Y-138040743D01*
X86065675Y-138042079D01*
X86013067Y-138034837D01*
X85996379Y-138013405D01*
X85979809Y-137984315D01*
X85959173Y-137972912D01*
X85923571Y-137951401D01*
X85877493Y-137911060D01*
X85858688Y-137891500D01*
X85817913Y-137850271D01*
X85786890Y-137825314D01*
X85778611Y-137821906D01*
X85758902Y-137804076D01*
X85748989Y-137783056D01*
X86036379Y-137783056D01*
X86042806Y-137801242D01*
X86057554Y-137785377D01*
X86064010Y-137770827D01*
X86065407Y-137750165D01*
X86056149Y-137751993D01*
X86037089Y-137777619D01*
X86036379Y-137783056D01*
X85748989Y-137783056D01*
X85737445Y-137758578D01*
X85717949Y-137697401D01*
X85704124Y-137632536D01*
X85699678Y-137575972D01*
X85700111Y-137568178D01*
X85714857Y-137505574D01*
X85748788Y-137471538D01*
X85749245Y-137471309D01*
X85797144Y-137443262D01*
X85822197Y-137425064D01*
X85857740Y-137411991D01*
X85926677Y-137405507D01*
X86031884Y-137405367D01*
X86049330Y-137405830D01*
G37*
G36*
X91091119Y-136007961D02*
G01*
X91182245Y-136016803D01*
X91276689Y-136030265D01*
X91365526Y-136047296D01*
X91439832Y-136066848D01*
X91486379Y-136085446D01*
X91542428Y-136114712D01*
X91610852Y-136149365D01*
X91633833Y-136160769D01*
X91723627Y-136213137D01*
X91779890Y-136268988D01*
X91808752Y-136337002D01*
X91816379Y-136419277D01*
X91813913Y-136485846D01*
X91801627Y-136531619D01*
X91772187Y-136568608D01*
X91718261Y-136608823D01*
X91688919Y-136628033D01*
X91647837Y-136648825D01*
X91600859Y-136657002D01*
X91533626Y-136654422D01*
X91506019Y-136651684D01*
X91436235Y-136645533D01*
X91394372Y-136647465D01*
X91368754Y-136659881D01*
X91348471Y-136684092D01*
X91323549Y-136737735D01*
X91315742Y-136780536D01*
X91303072Y-136838256D01*
X91272679Y-136882936D01*
X91233733Y-136901177D01*
X91233174Y-136901181D01*
X91194065Y-136912408D01*
X91185379Y-136918638D01*
X91151727Y-136934615D01*
X91099451Y-136946125D01*
X91044019Y-136951409D01*
X91000901Y-136948709D01*
X90986405Y-136941256D01*
X90954686Y-136923317D01*
X90904806Y-136924224D01*
X90852822Y-136942097D01*
X90827668Y-136959840D01*
X90782156Y-136986858D01*
X90718293Y-137007668D01*
X90696379Y-137011790D01*
X90596798Y-137026231D01*
X90529799Y-137035002D01*
X90488458Y-137038699D01*
X90465849Y-137037916D01*
X90455048Y-137033247D01*
X90454333Y-137032573D01*
X90428784Y-137024043D01*
X90377954Y-137016272D01*
X90349958Y-137013673D01*
X90279900Y-137001472D01*
X90226988Y-136970724D01*
X90194714Y-136939430D01*
X90156087Y-136893120D01*
X90140219Y-136852691D01*
X90140779Y-136798381D01*
X90143005Y-136778088D01*
X90153701Y-136713362D01*
X90167550Y-136660931D01*
X90173103Y-136647508D01*
X90196363Y-136600522D01*
X90215018Y-136560913D01*
X90263129Y-136467678D01*
X90305297Y-136411485D01*
X90324909Y-136396407D01*
X90347940Y-136365103D01*
X90356379Y-136321320D01*
X90363495Y-136278473D01*
X90392918Y-136257029D01*
X90417275Y-136250472D01*
X90475776Y-136226808D01*
X90529505Y-136189475D01*
X90577433Y-136152411D01*
X90622199Y-136128736D01*
X90623318Y-136128370D01*
X90664913Y-136107658D01*
X90718532Y-136071811D01*
X90737843Y-136056935D01*
X90787156Y-136021590D01*
X90823414Y-136010339D01*
X90861520Y-136018641D01*
X90862425Y-136018983D01*
X90909243Y-136028582D01*
X90926898Y-136019647D01*
X90954521Y-136008333D01*
X91012236Y-136004788D01*
X91091119Y-136007961D01*
G37*
G36*
X91412254Y-134451710D02*
G01*
X91444528Y-134461888D01*
X91468166Y-134481274D01*
X91469859Y-134483123D01*
X91514199Y-134520536D01*
X91565972Y-134551703D01*
X91650770Y-134594836D01*
X91707547Y-134630481D01*
X91745704Y-134665297D01*
X91767469Y-134694427D01*
X91804423Y-134742094D01*
X91839780Y-134775642D01*
X91869033Y-134809442D01*
X91877285Y-134845346D01*
X91864977Y-134870653D01*
X91836379Y-134873790D01*
X91806012Y-134873868D01*
X91796553Y-134902661D01*
X91796379Y-134911487D01*
X91807151Y-134950325D01*
X91826379Y-134959652D01*
X91853171Y-134970701D01*
X91849681Y-134995060D01*
X91827574Y-135013827D01*
X91801619Y-135046728D01*
X91782524Y-135102465D01*
X91773830Y-135163984D01*
X91779078Y-135214226D01*
X91783846Y-135224464D01*
X91792514Y-135257245D01*
X91771671Y-135294409D01*
X91763255Y-135304025D01*
X91736468Y-135343719D01*
X91730553Y-135374876D01*
X91730591Y-135374979D01*
X91722333Y-135396315D01*
X91703045Y-135401579D01*
X91683270Y-135406731D01*
X91691379Y-135413255D01*
X91714870Y-135438853D01*
X91711299Y-135473924D01*
X91684209Y-135502166D01*
X91670973Y-135507143D01*
X91635378Y-135529533D01*
X91608002Y-135581094D01*
X91598765Y-135609392D01*
X91580475Y-135662651D01*
X91564284Y-135695340D01*
X91558483Y-135700236D01*
X91536974Y-135716936D01*
X91512062Y-135756905D01*
X91491413Y-135804942D01*
X91482693Y-135845848D01*
X91482863Y-135850160D01*
X91472533Y-135883970D01*
X91436875Y-135891516D01*
X91381597Y-135871791D01*
X91376379Y-135868938D01*
X91319212Y-135848433D01*
X91261055Y-135840641D01*
X91213728Y-135834031D01*
X91182821Y-135807433D01*
X91162351Y-135770291D01*
X91138404Y-135725581D01*
X91120386Y-135701551D01*
X91117559Y-135700236D01*
X91110394Y-135682105D01*
X91105826Y-135650196D01*
X91496379Y-135650196D01*
X91506379Y-135660204D01*
X91516379Y-135650196D01*
X91506379Y-135640188D01*
X91496379Y-135650196D01*
X91105826Y-135650196D01*
X91103682Y-135635216D01*
X91099936Y-135586869D01*
X91088610Y-135499351D01*
X91084067Y-135480062D01*
X91516379Y-135480062D01*
X91523696Y-135496537D01*
X91529712Y-135493406D01*
X91532105Y-135469652D01*
X91529712Y-135466718D01*
X91517822Y-135469466D01*
X91516379Y-135480062D01*
X91084067Y-135480062D01*
X91072280Y-135430023D01*
X91456379Y-135430023D01*
X91466379Y-135440031D01*
X91476379Y-135430023D01*
X91466379Y-135420015D01*
X91456379Y-135430023D01*
X91072280Y-135430023D01*
X91067063Y-135407874D01*
X91055062Y-135371700D01*
X91044332Y-135341981D01*
X91422044Y-135341981D01*
X91426241Y-135362037D01*
X91427664Y-135365835D01*
X91443508Y-135390345D01*
X91452516Y-135390521D01*
X91451459Y-135380541D01*
X91561241Y-135380541D01*
X91568037Y-135402686D01*
X91583375Y-135417841D01*
X91592124Y-135402766D01*
X91592273Y-135371519D01*
X91588462Y-135365389D01*
X91569227Y-135360725D01*
X91561241Y-135380541D01*
X91451459Y-135380541D01*
X91450273Y-135369347D01*
X91438860Y-135354630D01*
X91422044Y-135341981D01*
X91044332Y-135341981D01*
X91028878Y-135299177D01*
X91025564Y-135286576D01*
X91423045Y-135286576D01*
X91425791Y-135298476D01*
X91436379Y-135299920D01*
X91656379Y-135299920D01*
X91663696Y-135316396D01*
X91669712Y-135313264D01*
X91672105Y-135289510D01*
X91669712Y-135286576D01*
X91657822Y-135289324D01*
X91656379Y-135299920D01*
X91436379Y-135299920D01*
X91452841Y-135292597D01*
X91449712Y-135286576D01*
X91425977Y-135284181D01*
X91423045Y-135286576D01*
X91025564Y-135286576D01*
X91018139Y-135258345D01*
X91022030Y-135244316D01*
X91034513Y-135248727D01*
X91038935Y-135246545D01*
X91623045Y-135246545D01*
X91625791Y-135258444D01*
X91636379Y-135259889D01*
X91652841Y-135252565D01*
X91649712Y-135246545D01*
X91625977Y-135244149D01*
X91623045Y-135246545D01*
X91038935Y-135246545D01*
X91046412Y-135242856D01*
X91045910Y-135229865D01*
X91176379Y-135229865D01*
X91186379Y-135239873D01*
X91196379Y-135229865D01*
X91186379Y-135219857D01*
X91176379Y-135229865D01*
X91045910Y-135229865D01*
X91045718Y-135224889D01*
X91034051Y-135169818D01*
X91356379Y-135169818D01*
X91366379Y-135179826D01*
X91376379Y-135169818D01*
X91366379Y-135159810D01*
X91356379Y-135169818D01*
X91034051Y-135169818D01*
X91029811Y-135149802D01*
X91216379Y-135149802D01*
X91226379Y-135159810D01*
X91227559Y-135158629D01*
X91436379Y-135158629D01*
X91450897Y-135179011D01*
X91456379Y-135179826D01*
X91475859Y-135172997D01*
X91476379Y-135170999D01*
X91464067Y-135155987D01*
X91536685Y-135155987D01*
X91539921Y-135178387D01*
X91553748Y-135163838D01*
X91556379Y-135159810D01*
X91573358Y-135125583D01*
X91576072Y-135113593D01*
X91566820Y-135108103D01*
X91677957Y-135108103D01*
X91681635Y-135134063D01*
X91688462Y-135134373D01*
X91693236Y-135107584D01*
X91690041Y-135096010D01*
X91681160Y-135088428D01*
X91677957Y-135108103D01*
X91566820Y-135108103D01*
X91563829Y-135106328D01*
X91556379Y-135109771D01*
X91538976Y-135138335D01*
X91536685Y-135155987D01*
X91464067Y-135155987D01*
X91462364Y-135153910D01*
X91456379Y-135149802D01*
X91437949Y-135151389D01*
X91436379Y-135158629D01*
X91227559Y-135158629D01*
X91236379Y-135149802D01*
X91226379Y-135139794D01*
X91216379Y-135149802D01*
X91029811Y-135149802D01*
X91029763Y-135149575D01*
X91016648Y-135105687D01*
X91002905Y-135085118D01*
X90985071Y-135079762D01*
X90983666Y-135079747D01*
X90962246Y-135070686D01*
X90962121Y-135037209D01*
X90963759Y-135029708D01*
X91556379Y-135029708D01*
X91566379Y-135039715D01*
X91576379Y-135029708D01*
X91566379Y-135019700D01*
X91556379Y-135029708D01*
X90963759Y-135029708D01*
X90964851Y-135024704D01*
X90968057Y-135009692D01*
X91416379Y-135009692D01*
X91426379Y-135019700D01*
X91436379Y-135009692D01*
X91426379Y-134999684D01*
X91416379Y-135009692D01*
X90968057Y-135009692D01*
X90974976Y-134977297D01*
X90976639Y-134966324D01*
X91303045Y-134966324D01*
X91305791Y-134978224D01*
X91316379Y-134979668D01*
X91332841Y-134972345D01*
X91329712Y-134966324D01*
X91305977Y-134963929D01*
X91303045Y-134966324D01*
X90976639Y-134966324D01*
X90977650Y-134959652D01*
X91396379Y-134959652D01*
X91403696Y-134976128D01*
X91409712Y-134972996D01*
X91412065Y-134949644D01*
X91576379Y-134949644D01*
X91586379Y-134959652D01*
X91596379Y-134949644D01*
X91586379Y-134939637D01*
X91576379Y-134949644D01*
X91412065Y-134949644D01*
X91412105Y-134949242D01*
X91409712Y-134946309D01*
X91397822Y-134949056D01*
X91396379Y-134959652D01*
X90977650Y-134959652D01*
X90979166Y-134949644D01*
X90972054Y-134919145D01*
X90953798Y-134869581D01*
X91396379Y-134869581D01*
X91406379Y-134879589D01*
X91416379Y-134869581D01*
X91406379Y-134859574D01*
X91396379Y-134869581D01*
X90953798Y-134869581D01*
X90952710Y-134866626D01*
X90926796Y-134805140D01*
X90919497Y-134789518D01*
X91036379Y-134789518D01*
X91046379Y-134799526D01*
X91756379Y-134799526D01*
X91763696Y-134816002D01*
X91769712Y-134812870D01*
X91772105Y-134789116D01*
X91769712Y-134786182D01*
X91757822Y-134788930D01*
X91756379Y-134799526D01*
X91046379Y-134799526D01*
X91056379Y-134789518D01*
X91046379Y-134779511D01*
X91036379Y-134789518D01*
X90919497Y-134789518D01*
X90908149Y-134765232D01*
X91199602Y-134765232D01*
X91204469Y-134776418D01*
X91224607Y-134797906D01*
X91236184Y-134793498D01*
X91236379Y-134790700D01*
X91222173Y-134773770D01*
X91213288Y-134767591D01*
X91199602Y-134765232D01*
X90908149Y-134765232D01*
X90900793Y-134749487D01*
X91436379Y-134749487D01*
X91446379Y-134759495D01*
X91456379Y-134749487D01*
X91696379Y-134749487D01*
X91706379Y-134759495D01*
X91716379Y-134749487D01*
X91706379Y-134739479D01*
X91696379Y-134749487D01*
X91456379Y-134749487D01*
X91446379Y-134739479D01*
X91436379Y-134749487D01*
X90900793Y-134749487D01*
X90899975Y-134747737D01*
X90889966Y-134729471D01*
X91516379Y-134729471D01*
X91526379Y-134739479D01*
X91536379Y-134729471D01*
X91526379Y-134719463D01*
X91516379Y-134729471D01*
X90889966Y-134729471D01*
X90878998Y-134709455D01*
X91676379Y-134709455D01*
X91686379Y-134719463D01*
X91696379Y-134709455D01*
X91686379Y-134699447D01*
X91676379Y-134709455D01*
X90878998Y-134709455D01*
X90877910Y-134707469D01*
X90869629Y-134697184D01*
X90859148Y-134670039D01*
X90859629Y-134637137D01*
X90870021Y-134618203D01*
X91036379Y-134618203D01*
X91050897Y-134638586D01*
X91056379Y-134639400D01*
X91075859Y-134632571D01*
X91076379Y-134630574D01*
X91072674Y-134626056D01*
X91243045Y-134626056D01*
X91245791Y-134637956D01*
X91256379Y-134639400D01*
X91272841Y-134632077D01*
X91269712Y-134626056D01*
X91245977Y-134623661D01*
X91243045Y-134626056D01*
X91072674Y-134626056D01*
X91063919Y-134615381D01*
X91356379Y-134615381D01*
X91368898Y-134641959D01*
X91380379Y-134655413D01*
X91409479Y-134666387D01*
X91430526Y-134651245D01*
X91427691Y-134621514D01*
X91427456Y-134621128D01*
X91402744Y-134603385D01*
X91372388Y-134600481D01*
X91356439Y-134614037D01*
X91356379Y-134615381D01*
X91063919Y-134615381D01*
X91062364Y-134613485D01*
X91056379Y-134609377D01*
X91037949Y-134610964D01*
X91036379Y-134618203D01*
X90870021Y-134618203D01*
X90880109Y-134599822D01*
X90887640Y-134592259D01*
X91494403Y-134592259D01*
X91496066Y-134612376D01*
X91504533Y-134631936D01*
X91522770Y-134669541D01*
X91531982Y-134673257D01*
X91537916Y-134654072D01*
X91606002Y-134654072D01*
X91609146Y-134669424D01*
X91623342Y-134695760D01*
X91628518Y-134699447D01*
X91635510Y-134683103D01*
X91636379Y-134669424D01*
X91625912Y-134642782D01*
X91617006Y-134639400D01*
X91606002Y-134654072D01*
X91537916Y-134654072D01*
X91540665Y-134645184D01*
X91541722Y-134641127D01*
X91536949Y-134605117D01*
X91517210Y-134593787D01*
X91494403Y-134592259D01*
X90887640Y-134592259D01*
X90910456Y-134569345D01*
X91136379Y-134569345D01*
X91146379Y-134579353D01*
X91156379Y-134569345D01*
X91146379Y-134559337D01*
X91136379Y-134569345D01*
X90910456Y-134569345D01*
X90925090Y-134554648D01*
X90982765Y-134510559D01*
X91041328Y-134476499D01*
X91088974Y-134461412D01*
X91091737Y-134461295D01*
X91127761Y-134459976D01*
X91190978Y-134456959D01*
X91268647Y-134452856D01*
X91280265Y-134452213D01*
X91360961Y-134449050D01*
X91412254Y-134451710D01*
G37*
G36*
X90575961Y-133271819D02*
G01*
X90668402Y-133275836D01*
X90746089Y-133282494D01*
X90786379Y-133288788D01*
X90882627Y-133318468D01*
X90984073Y-133364726D01*
X91078871Y-133420783D01*
X91155175Y-133479859D01*
X91192547Y-133521216D01*
X91209907Y-133562431D01*
X91225489Y-133627148D01*
X91237655Y-133702794D01*
X91244766Y-133776792D01*
X91245183Y-133836570D01*
X91237844Y-133868793D01*
X91224703Y-133897431D01*
X91204776Y-133951752D01*
X91185931Y-134008904D01*
X91162563Y-134075267D01*
X91139901Y-134126658D01*
X91125348Y-134149014D01*
X91100822Y-134179871D01*
X91072338Y-134227534D01*
X91070591Y-134230883D01*
X91031727Y-134289657D01*
X90985559Y-134340970D01*
X90939239Y-134384621D01*
X90900822Y-134423321D01*
X90899976Y-134424231D01*
X90868731Y-134452967D01*
X90843058Y-134452805D01*
X90811379Y-134431395D01*
X90783137Y-134400562D01*
X90776379Y-134381993D01*
X90762722Y-134360363D01*
X90756379Y-134359180D01*
X90740001Y-134342457D01*
X90736379Y-134320090D01*
X90723632Y-134256212D01*
X90692100Y-134190162D01*
X90651841Y-134142990D01*
X90651686Y-134142875D01*
X90623050Y-134109696D01*
X90616379Y-134088006D01*
X90603122Y-134056177D01*
X90570323Y-134013731D01*
X90561055Y-134004074D01*
X90534313Y-133971127D01*
X90863253Y-133971127D01*
X90866379Y-133978880D01*
X90884351Y-133997975D01*
X90887559Y-133998896D01*
X90896149Y-133983410D01*
X90896379Y-133978880D01*
X90881003Y-133959634D01*
X90875198Y-133958864D01*
X90863253Y-133971127D01*
X90534313Y-133971127D01*
X90515388Y-133947811D01*
X90474971Y-133881219D01*
X90469954Y-133870807D01*
X90435212Y-133811170D01*
X90416532Y-133788730D01*
X90936379Y-133788730D01*
X90946379Y-133798738D01*
X90956379Y-133788730D01*
X90946379Y-133778723D01*
X90936379Y-133788730D01*
X90416532Y-133788730D01*
X90394438Y-133762190D01*
X90385759Y-133754643D01*
X90347887Y-133709939D01*
X90317578Y-133649479D01*
X90314183Y-133639172D01*
X90300586Y-133608589D01*
X90576379Y-133608589D01*
X90586379Y-133618596D01*
X90596379Y-133608589D01*
X90586379Y-133598581D01*
X90576379Y-133608589D01*
X90300586Y-133608589D01*
X90290703Y-133586361D01*
X90283530Y-133578565D01*
X90956379Y-133578565D01*
X90963202Y-133598060D01*
X90965198Y-133598581D01*
X90982274Y-133584555D01*
X90986379Y-133578565D01*
X90984793Y-133560121D01*
X90977559Y-133558549D01*
X90957192Y-133573079D01*
X90956379Y-133578565D01*
X90283530Y-133578565D01*
X90261992Y-133555157D01*
X90255788Y-133552595D01*
X90224907Y-133529575D01*
X90192960Y-133484242D01*
X90186705Y-133471993D01*
X90166216Y-133423771D01*
X90164709Y-133392901D01*
X90182603Y-133361276D01*
X90189476Y-133352033D01*
X90234095Y-133309200D01*
X90277178Y-133284153D01*
X90319374Y-133276610D01*
X90390521Y-133272106D01*
X90479692Y-133270542D01*
X90575961Y-133271819D01*
G37*
G36*
X89320270Y-132504800D02*
G01*
X89375779Y-132522704D01*
X89437054Y-132546390D01*
X89491535Y-132570826D01*
X89526661Y-132590977D01*
X89533045Y-132597885D01*
X89555969Y-132616432D01*
X89566009Y-132617808D01*
X89593239Y-132631967D01*
X89638066Y-132669083D01*
X89692774Y-132721121D01*
X89749648Y-132780043D01*
X89800972Y-132837812D01*
X89839028Y-132886391D01*
X89856102Y-132917743D01*
X89856379Y-132920254D01*
X89870712Y-132960202D01*
X89886379Y-132978092D01*
X89911989Y-133016256D01*
X89916379Y-133038139D01*
X89930805Y-133079769D01*
X89947390Y-133099027D01*
X89970333Y-133143067D01*
X89972390Y-133196552D01*
X89966628Y-133239926D01*
X89951389Y-133261849D01*
X89915428Y-133270975D01*
X89871175Y-133274430D01*
X89807661Y-133274658D01*
X89774031Y-133263485D01*
X89764035Y-133249410D01*
X89743988Y-133222233D01*
X89733366Y-133218281D01*
X89707383Y-133205791D01*
X89668310Y-133175189D01*
X89662445Y-133169852D01*
X89628458Y-133145116D01*
X89582339Y-133126085D01*
X89516707Y-133110948D01*
X89497199Y-133108195D01*
X89776379Y-133108195D01*
X89786379Y-133118202D01*
X89796379Y-133108195D01*
X89786379Y-133098187D01*
X89776379Y-133108195D01*
X89497199Y-133108195D01*
X89424179Y-133097890D01*
X89329541Y-133088071D01*
X89289579Y-133071857D01*
X89276292Y-133058015D01*
X89244663Y-133040233D01*
X89185772Y-133034433D01*
X89178129Y-133034645D01*
X89127444Y-133032573D01*
X89098775Y-133023527D01*
X89096379Y-133019126D01*
X89078407Y-133008530D01*
X89032509Y-133002112D01*
X88997560Y-133001166D01*
X88935338Y-132998955D01*
X88888848Y-132992471D01*
X88876229Y-132988008D01*
X88848612Y-132990966D01*
X88826476Y-133011115D01*
X88804732Y-133036361D01*
X88792382Y-133028973D01*
X88785667Y-133013120D01*
X88772804Y-132995493D01*
X88745476Y-132984859D01*
X88695406Y-132979600D01*
X88614314Y-132978098D01*
X88606407Y-132978092D01*
X88525131Y-132977517D01*
X88475181Y-132974105D01*
X88447881Y-132965325D01*
X88434558Y-132948646D01*
X88427632Y-132925925D01*
X88430819Y-132872293D01*
X88467276Y-132835049D01*
X88495636Y-132827974D01*
X89436379Y-132827974D01*
X89446379Y-132837982D01*
X89456379Y-132827974D01*
X89446379Y-132817966D01*
X89436379Y-132827974D01*
X88495636Y-132827974D01*
X88532014Y-132818899D01*
X88541379Y-132818603D01*
X88581336Y-132810291D01*
X88596505Y-132792946D01*
X88612831Y-132767765D01*
X88651948Y-132737374D01*
X88699362Y-132711054D01*
X88740578Y-132698092D01*
X88744939Y-132697871D01*
X88777348Y-132685999D01*
X88818318Y-132658211D01*
X88855125Y-132627816D01*
X89096379Y-132627816D01*
X89106379Y-132637824D01*
X89116379Y-132627816D01*
X89106379Y-132617808D01*
X89096379Y-132627816D01*
X88855125Y-132627816D01*
X88859310Y-132624360D01*
X88887101Y-132601373D01*
X88920827Y-132587106D01*
X88981563Y-132572383D01*
X89056428Y-132559719D01*
X89132541Y-132551625D01*
X89146379Y-132550796D01*
X89198653Y-132540590D01*
X89232807Y-132522734D01*
X89267772Y-132501024D01*
X89283089Y-132497714D01*
X89320270Y-132504800D01*
G37*
G36*
X88235545Y-134496151D02*
G01*
X88278769Y-134542467D01*
X88329094Y-134611747D01*
X88377616Y-134691078D01*
X88415821Y-134791478D01*
X88433356Y-134912448D01*
X88429410Y-135039810D01*
X88404249Y-135156171D01*
X88382333Y-135218425D01*
X88364004Y-135263718D01*
X88355005Y-135279905D01*
X88338901Y-135305372D01*
X88330547Y-135324940D01*
X88310071Y-135348345D01*
X88265149Y-135358682D01*
X88227006Y-135359968D01*
X88172594Y-135358975D01*
X88139190Y-135356462D01*
X88134430Y-135354964D01*
X88132714Y-135334209D01*
X88129556Y-135281782D01*
X88125431Y-135205993D01*
X88121539Y-135129786D01*
X88115669Y-134980388D01*
X88113700Y-134851391D01*
X88115509Y-134747128D01*
X88120975Y-134671928D01*
X88129977Y-134630122D01*
X88135767Y-134623095D01*
X88146422Y-134602455D01*
X88143715Y-134589632D01*
X88144341Y-134549959D01*
X88164474Y-134507900D01*
X88194149Y-134481487D01*
X88204708Y-134479274D01*
X88235545Y-134496151D01*
G37*
G36*
X87192414Y-134585168D02*
G01*
X87217272Y-134601354D01*
X87217842Y-134604373D01*
X87219153Y-134663399D01*
X87217898Y-134737330D01*
X87214663Y-134814550D01*
X87210033Y-134883445D01*
X87204596Y-134932399D01*
X87200456Y-134948866D01*
X87187591Y-134983980D01*
X87180738Y-135018157D01*
X87167178Y-135072768D01*
X87154527Y-135103224D01*
X87124895Y-135130617D01*
X87086095Y-135139175D01*
X87055217Y-135127037D01*
X87048575Y-135114775D01*
X87038446Y-135080126D01*
X87021966Y-135027127D01*
X87018715Y-135016929D01*
X87005982Y-134959853D01*
X87000722Y-134899848D01*
X87002990Y-134849571D01*
X87012841Y-134821678D01*
X87017859Y-134819542D01*
X87024499Y-134802891D01*
X87021702Y-134771746D01*
X87024272Y-134717249D01*
X87038671Y-134676671D01*
X87056600Y-134632395D01*
X87059698Y-134604373D01*
X87073893Y-134586348D01*
X87126237Y-134579439D01*
X87135502Y-134579353D01*
X87192414Y-134585168D01*
G37*
%TO.C,U2*%
D13*
X100735000Y-133540000D02*
X100800000Y-133540000D01*
X100735000Y-137660000D02*
X100735000Y-133540000D01*
X100800000Y-137660000D02*
X100735000Y-137660000D01*
X109540000Y-133540000D02*
X109605000Y-133540000D01*
X109605000Y-133540000D02*
X109605000Y-137660000D01*
X109605000Y-137660000D02*
X109540000Y-137660000D01*
X100800000Y-138200000D02*
X100470000Y-138440000D01*
X100470000Y-137960000D01*
X100800000Y-138200000D01*
G36*
X100800000Y-138200000D02*
G01*
X100470000Y-138440000D01*
X100470000Y-137960000D01*
X100800000Y-138200000D01*
G37*
%TO.C,R6*%
X113597064Y-137265000D02*
X113142936Y-137265000D01*
X113597064Y-138735000D02*
X113142936Y-138735000D01*
%TO.C,R2*%
X117842936Y-134765000D02*
X118297064Y-134765000D01*
X117842936Y-136235000D02*
X118297064Y-136235000D01*
%TO.C,R8*%
X95342936Y-136865000D02*
X95797064Y-136865000D01*
X95342936Y-138335000D02*
X95797064Y-138335000D01*
%TO.C,R3*%
X118297064Y-137365000D02*
X117842936Y-137365000D01*
X118297064Y-138835000D02*
X117842936Y-138835000D01*
%TO.C,R4*%
X113142936Y-132265000D02*
X113597064Y-132265000D01*
X113142936Y-133735000D02*
X113597064Y-133735000D01*
%TO.C,C2*%
X98435000Y-134161252D02*
X98435000Y-133638748D01*
X99905000Y-134161252D02*
X99905000Y-133638748D01*
%TO.C,C1*%
X121135000Y-134223752D02*
X121135000Y-133701248D01*
X122605000Y-134223752D02*
X122605000Y-133701248D01*
%TO.C,R1*%
X117842936Y-132265000D02*
X118297064Y-132265000D01*
X117842936Y-133735000D02*
X118297064Y-133735000D01*
%TO.C,R7*%
X95342936Y-132765000D02*
X95797064Y-132765000D01*
X95342936Y-134235000D02*
X95797064Y-134235000D01*
%TO.C,J1*%
X82120000Y-142590000D02*
X82120000Y-141260000D01*
X83450000Y-142590000D02*
X82120000Y-142590000D01*
X84720000Y-139930000D02*
X130500000Y-139930000D01*
X84720000Y-142590000D02*
X84720000Y-139930000D01*
X84720000Y-142590000D02*
X130500000Y-142590000D01*
X130500000Y-142590000D02*
X130500000Y-139930000D01*
%TO.C,R5*%
X113142936Y-134765000D02*
X113597064Y-134765000D01*
X113142936Y-136235000D02*
X113597064Y-136235000D01*
%TO.C,U1*%
X123747500Y-137885000D02*
X123747500Y-133265000D01*
X130517500Y-133265000D02*
X130517500Y-137885000D01*
X124442500Y-139765000D02*
X123962500Y-139765000D01*
X124202500Y-139435000D01*
X124442500Y-139765000D01*
G36*
X124442500Y-139765000D02*
G01*
X123962500Y-139765000D01*
X124202500Y-139435000D01*
X124442500Y-139765000D01*
G37*
%TD*%
M02*
