%TF.GenerationSoftware,KiCad,Pcbnew,10.0.0*%
%TF.CreationDate,2026-04-10T10:10:15+02:00*%
%TF.ProjectId,TAITO  PC040DA new,54414954-4f20-4205-9043-303430444120,0.9*%
%TF.SameCoordinates,Original*%
%TF.FileFunction,Soldermask,Top*%
%TF.FilePolarity,Negative*%
%FSLAX46Y46*%
G04 Gerber Fmt 4.6, Leading zero omitted, Abs format (unit mm)*
G04 Created by KiCad (PCBNEW 10.0.0) date 2026-04-10 10:10:15*
%MOMM*%
%LPD*%
G01*
G04 APERTURE LIST*
G04 Aperture macros list*
%AMRoundRect*
0 Rectangle with rounded corners*
0 $1 Rounding radius*
0 $2 $3 $4 $5 $6 $7 $8 $9 X,Y pos of 4 corners*
0 Add a 4 corners polygon primitive as box body*
4,1,4,$2,$3,$4,$5,$6,$7,$8,$9,$2,$3,0*
0 Add four circle primitives for the rounded corners*
1,1,$1+$1,$2,$3*
1,1,$1+$1,$4,$5*
1,1,$1+$1,$6,$7*
1,1,$1+$1,$8,$9*
0 Add four rect primitives between the rounded corners*
20,1,$1+$1,$2,$3,$4,$5,0*
20,1,$1+$1,$4,$5,$6,$7,0*
20,1,$1+$1,$6,$7,$8,$9,0*
20,1,$1+$1,$8,$9,$2,$3,0*%
G04 Aperture macros list end*
%ADD10RoundRect,0.150000X0.150000X-0.825000X0.150000X0.825000X-0.150000X0.825000X-0.150000X-0.825000X0*%
%ADD11RoundRect,0.250000X0.350000X0.450000X-0.350000X0.450000X-0.350000X-0.450000X0.350000X-0.450000X0*%
%ADD12RoundRect,0.250000X-0.350000X-0.450000X0.350000X-0.450000X0.350000X0.450000X-0.350000X0.450000X0*%
%ADD13RoundRect,0.250000X0.475000X-0.337500X0.475000X0.337500X-0.475000X0.337500X-0.475000X-0.337500X0*%
%ADD14R,1.700000X1.700000*%
%ADD15O,1.700000X1.700000*%
%ADD16RoundRect,0.100000X0.100000X-0.637500X0.100000X0.637500X-0.100000X0.637500X-0.100000X-0.637500X0*%
G04 APERTURE END LIST*
D10*
%TO.C,U2*%
X101360000Y-138075000D03*
X102630000Y-138075000D03*
X103900000Y-138075000D03*
X105170000Y-138075000D03*
X106440000Y-138075000D03*
X107710000Y-138075000D03*
X108980000Y-138075000D03*
X108980000Y-133125000D03*
X107710000Y-133125000D03*
X106440000Y-133125000D03*
X105170000Y-133125000D03*
X103900000Y-133125000D03*
X102630000Y-133125000D03*
X101360000Y-133125000D03*
%TD*%
D11*
%TO.C,R6*%
X114370000Y-138000000D03*
X112370000Y-138000000D03*
%TD*%
D12*
%TO.C,R2*%
X117070000Y-135500000D03*
X119070000Y-135500000D03*
%TD*%
%TO.C,R8*%
X94570000Y-137600000D03*
X96570000Y-137600000D03*
%TD*%
D11*
%TO.C,R3*%
X119070000Y-138100000D03*
X117070000Y-138100000D03*
%TD*%
D12*
%TO.C,R4*%
X112370000Y-133000000D03*
X114370000Y-133000000D03*
%TD*%
D13*
%TO.C,C2*%
X99170000Y-134937500D03*
X99170000Y-132862500D03*
%TD*%
%TO.C,C1*%
X121870000Y-135000000D03*
X121870000Y-132925000D03*
%TD*%
D12*
%TO.C,R1*%
X117070000Y-133000000D03*
X119070000Y-133000000D03*
%TD*%
%TO.C,R7*%
X94570000Y-133500000D03*
X96570000Y-133500000D03*
%TD*%
D14*
%TO.C,J1*%
X83450000Y-141260000D03*
D15*
X85990000Y-141260000D03*
X88530000Y-141260000D03*
X91070000Y-141260000D03*
X93610000Y-141260000D03*
X96150000Y-141260000D03*
X98690000Y-141260000D03*
X101230000Y-141260000D03*
X103770000Y-141260000D03*
X106310000Y-141260000D03*
X108850000Y-141260000D03*
X111390000Y-141260000D03*
X113930000Y-141260000D03*
X116470000Y-141260000D03*
X119010000Y-141260000D03*
X121550000Y-141260000D03*
X124090000Y-141260000D03*
X126630000Y-141260000D03*
X129170000Y-141260000D03*
%TD*%
D12*
%TO.C,R5*%
X112370000Y-135500000D03*
X114370000Y-135500000D03*
%TD*%
D16*
%TO.C,U1*%
X124207500Y-138437500D03*
X124857500Y-138437500D03*
X125507500Y-138437500D03*
X126157500Y-138437500D03*
X126807500Y-138437500D03*
X127457500Y-138437500D03*
X128107500Y-138437500D03*
X128757500Y-138437500D03*
X129407500Y-138437500D03*
X130057500Y-138437500D03*
X130057500Y-132712500D03*
X129407500Y-132712500D03*
X128757500Y-132712500D03*
X128107500Y-132712500D03*
X127457500Y-132712500D03*
X126807500Y-132712500D03*
X126157500Y-132712500D03*
X125507500Y-132712500D03*
X124857500Y-132712500D03*
X124207500Y-132712500D03*
%TD*%
M02*
