%TF.GenerationSoftware,KiCad,Pcbnew,10.0.0*%
%TF.CreationDate,2026-04-10T10:10:15+02:00*%
%TF.ProjectId,TAITO  PC040DA new,54414954-4f20-4205-9043-303430444120,0.9*%
%TF.SameCoordinates,Original*%
%TF.FileFunction,Copper,L1,Top*%
%TF.FilePolarity,Positive*%
%FSLAX46Y46*%
G04 Gerber Fmt 4.6, Leading zero omitted, Abs format (unit mm)*
G04 Created by KiCad (PCBNEW 10.0.0) date 2026-04-10 10:10:15*
%MOMM*%
%LPD*%
G01*
G04 APERTURE LIST*
G04 Aperture macros list*
%AMRoundRect*
0 Rectangle with rounded corners*
0 $1 Rounding radius*
0 $2 $3 $4 $5 $6 $7 $8 $9 X,Y pos of 4 corners*
0 Add a 4 corners polygon primitive as box body*
4,1,4,$2,$3,$4,$5,$6,$7,$8,$9,$2,$3,0*
0 Add four circle primitives for the rounded corners*
1,1,$1+$1,$2,$3*
1,1,$1+$1,$4,$5*
1,1,$1+$1,$6,$7*
1,1,$1+$1,$8,$9*
0 Add four rect primitives between the rounded corners*
20,1,$1+$1,$2,$3,$4,$5,0*
20,1,$1+$1,$4,$5,$6,$7,0*
20,1,$1+$1,$6,$7,$8,$9,0*
20,1,$1+$1,$8,$9,$2,$3,0*%
G04 Aperture macros list end*
%TA.AperFunction,SMDPad,CuDef*%
%ADD10RoundRect,0.150000X0.150000X-0.825000X0.150000X0.825000X-0.150000X0.825000X-0.150000X-0.825000X0*%
%TD*%
%TA.AperFunction,SMDPad,CuDef*%
%ADD11RoundRect,0.250000X0.350000X0.450000X-0.350000X0.450000X-0.350000X-0.450000X0.350000X-0.450000X0*%
%TD*%
%TA.AperFunction,SMDPad,CuDef*%
%ADD12RoundRect,0.250000X-0.350000X-0.450000X0.350000X-0.450000X0.350000X0.450000X-0.350000X0.450000X0*%
%TD*%
%TA.AperFunction,SMDPad,CuDef*%
%ADD13RoundRect,0.250000X0.475000X-0.337500X0.475000X0.337500X-0.475000X0.337500X-0.475000X-0.337500X0*%
%TD*%
%TA.AperFunction,ComponentPad*%
%ADD14R,1.700000X1.700000*%
%TD*%
%TA.AperFunction,ComponentPad*%
%ADD15O,1.700000X1.700000*%
%TD*%
%TA.AperFunction,SMDPad,CuDef*%
%ADD16RoundRect,0.100000X0.100000X-0.637500X0.100000X0.637500X-0.100000X0.637500X-0.100000X-0.637500X0*%
%TD*%
%TA.AperFunction,ViaPad*%
%ADD17C,0.600000*%
%TD*%
%TA.AperFunction,Conductor*%
%ADD18C,0.200000*%
%TD*%
G04 APERTURE END LIST*
D10*
%TO.P,U2,1*%
%TO.N,GND*%
X101360000Y-138075000D03*
%TO.P,U2,2*%
X102630000Y-138075000D03*
%TO.P,U2,3*%
%TO.N,unconnected-(U2-Pad3)*%
X103900000Y-138075000D03*
%TO.P,U2,4*%
%TO.N,GND*%
X105170000Y-138075000D03*
%TO.P,U2,5*%
X106440000Y-138075000D03*
%TO.P,U2,6*%
%TO.N,unconnected-(U2-Pad6)*%
X107710000Y-138075000D03*
%TO.P,U2,7,GND_7*%
%TO.N,GND*%
X108980000Y-138075000D03*
%TO.P,U2,8*%
%TO.N,Net-(U1-~{Mr})*%
X108980000Y-133125000D03*
%TO.P,U2,9*%
%TO.N,/~{HBL}*%
X107710000Y-133125000D03*
%TO.P,U2,10*%
%TO.N,Net-(U2-Pad10)*%
X106440000Y-133125000D03*
%TO.P,U2,11*%
X105170000Y-133125000D03*
%TO.P,U2,12*%
%TO.N,/~{VBL}*%
X103900000Y-133125000D03*
%TO.P,U2,13*%
%TO.N,/~{BLACK}*%
X102630000Y-133125000D03*
%TO.P,U2,14,VCC_14*%
%TO.N,+5V*%
X101360000Y-133125000D03*
%TD*%
D11*
%TO.P,R6,1*%
%TO.N,Net-(U1-Q2)*%
X114370000Y-138000000D03*
%TO.P,R6,2*%
%TO.N,Net-(R1-Pad2)*%
X112370000Y-138000000D03*
%TD*%
D12*
%TO.P,R2,1*%
%TO.N,Net-(U1-Q6)*%
X117070000Y-135500000D03*
%TO.P,R2,2*%
%TO.N,Net-(R1-Pad2)*%
X119070000Y-135500000D03*
%TD*%
%TO.P,R8,1*%
%TO.N,RGBout*%
X94570000Y-137600000D03*
%TO.P,R8,2*%
%TO.N,GND*%
X96570000Y-137600000D03*
%TD*%
D11*
%TO.P,R3,1*%
%TO.N,Net-(U1-Q5)*%
X119070000Y-138100000D03*
%TO.P,R3,2*%
%TO.N,Net-(R1-Pad2)*%
X117070000Y-138100000D03*
%TD*%
D12*
%TO.P,R4,1*%
%TO.N,Net-(U1-Q4)*%
X112370000Y-133000000D03*
%TO.P,R4,2*%
%TO.N,Net-(R1-Pad2)*%
X114370000Y-133000000D03*
%TD*%
D13*
%TO.P,C2,1*%
%TO.N,GND*%
X99170000Y-134937500D03*
%TO.P,C2,2*%
%TO.N,+5V*%
X99170000Y-132862500D03*
%TD*%
%TO.P,C1,1*%
%TO.N,GND*%
X121870000Y-135000000D03*
%TO.P,C1,2*%
%TO.N,+5V*%
X121870000Y-132925000D03*
%TD*%
D12*
%TO.P,R1,1*%
%TO.N,Net-(U1-Q7)*%
X117070000Y-133000000D03*
%TO.P,R1,2*%
%TO.N,Net-(R1-Pad2)*%
X119070000Y-133000000D03*
%TD*%
%TO.P,R7,1*%
%TO.N,RGBout*%
X94570000Y-133500000D03*
%TO.P,R7,2*%
%TO.N,Net-(R1-Pad2)*%
X96570000Y-133500000D03*
%TD*%
D14*
%TO.P,J1,1,Pin_1_1*%
%TO.N,unconnected-(J1-Pin_1-Pad1)*%
X83450000Y-141260000D03*
D15*
%TO.P,J1,2,Pin_2_2*%
%TO.N,unconnected-(J1-Pin_2-Pad2)*%
X85990000Y-141260000D03*
%TO.P,J1,3,Pin_3_3*%
%TO.N,RGBout*%
X88530000Y-141260000D03*
%TO.P,J1,4,Pin_4_4*%
%TO.N,+12V*%
X91070000Y-141260000D03*
%TO.P,J1,5,Pin_5_5*%
%TO.N,-5V*%
X93610000Y-141260000D03*
%TO.P,J1,6,Pin_6_6*%
%TO.N,GND*%
X96150000Y-141260000D03*
%TO.P,J1,7,Pin_7_7*%
%TO.N,+5V*%
X98690000Y-141260000D03*
%TO.P,J1,8,Pin_8_8*%
%TO.N,/6M*%
X101230000Y-141260000D03*
%TO.P,J1,9,Pin_9_9*%
%TO.N,/~{BLACK}*%
X103770000Y-141260000D03*
%TO.P,J1,10,Pin_10_10*%
%TO.N,/~{VBL}*%
X106310000Y-141260000D03*
%TO.P,J1,11,Pin_11_11*%
%TO.N,/~{HBL}*%
X108850000Y-141260000D03*
%TO.P,J1,12,Pin_12_12*%
%TO.N,unconnected-(J1-Pin_12-Pad12)*%
X111390000Y-141260000D03*
%TO.P,J1,13,Pin_13_13*%
%TO.N,unconnected-(J1-Pin_13-Pad13)*%
X113930000Y-141260000D03*
%TO.P,J1,14,Pin_14_14*%
%TO.N,Net-(J1-Pin_14)*%
X116470000Y-141260000D03*
%TO.P,J1,15,Pin_15_15*%
%TO.N,/CO11*%
X119010000Y-141260000D03*
%TO.P,J1,16,Pin_16_16*%
%TO.N,/CO12*%
X121550000Y-141260000D03*
%TO.P,J1,17,Pin_17_17*%
%TO.N,/CO13*%
X124090000Y-141260000D03*
%TO.P,J1,18,Pin_18_18*%
%TO.N,/CO14*%
X126630000Y-141260000D03*
%TO.P,J1,19,Pin_19_19*%
%TO.N,/CO15*%
X129170000Y-141260000D03*
%TD*%
D12*
%TO.P,R5,1*%
%TO.N,Net-(U1-Q3)*%
X112370000Y-135500000D03*
%TO.P,R5,2*%
%TO.N,Net-(R1-Pad2)*%
X114370000Y-135500000D03*
%TD*%
D16*
%TO.P,U1,1,~{Mr}_1*%
%TO.N,Net-(U1-~{Mr})*%
X124207500Y-138437500D03*
%TO.P,U1,2,Q0_2*%
%TO.N,unconnected-(U1-Q0-Pad2)*%
X124857500Y-138437500D03*
%TO.P,U1,3,D0_3*%
%TO.N,GND*%
X125507500Y-138437500D03*
%TO.P,U1,4,D1_4*%
X126157500Y-138437500D03*
%TO.P,U1,5,Q1_5*%
%TO.N,unconnected-(U1-Q1-Pad5)*%
X126807500Y-138437500D03*
%TO.P,U1,6,Q2_6*%
%TO.N,Net-(U1-Q2)*%
X127457500Y-138437500D03*
%TO.P,U1,7,D2_7*%
%TO.N,/CO15*%
X128107500Y-138437500D03*
%TO.P,U1,8,D3_8*%
%TO.N,/CO14*%
X128757500Y-138437500D03*
%TO.P,U1,9,Q3_9*%
%TO.N,Net-(U1-Q3)*%
X129407500Y-138437500D03*
%TO.P,U1,10,GND_10*%
%TO.N,GND*%
X130057500Y-138437500D03*
%TO.P,U1,11,Cp_11*%
%TO.N,/6M*%
X130057500Y-132712500D03*
%TO.P,U1,12,Q4_12*%
%TO.N,Net-(U1-Q4)*%
X129407500Y-132712500D03*
%TO.P,U1,13,D4_13*%
%TO.N,/CO13*%
X128757500Y-132712500D03*
%TO.P,U1,14,D5_14*%
%TO.N,/CO12*%
X128107500Y-132712500D03*
%TO.P,U1,15,Q5_15*%
%TO.N,Net-(U1-Q5)*%
X127457500Y-132712500D03*
%TO.P,U1,16,Q6_16*%
%TO.N,Net-(U1-Q6)*%
X126807500Y-132712500D03*
%TO.P,U1,17,D6_17*%
%TO.N,/CO11*%
X126157500Y-132712500D03*
%TO.P,U1,18,D7_18*%
%TO.N,Net-(J1-Pin_14)*%
X125507500Y-132712500D03*
%TO.P,U1,19,Q7_19*%
%TO.N,Net-(U1-Q7)*%
X124857500Y-132712500D03*
%TO.P,U1,20,VCC_20*%
%TO.N,+5V*%
X124207500Y-132712500D03*
%TD*%
D17*
%TO.N,GND*%
X120409100Y-134941000D03*
X125186502Y-136764100D03*
X120319983Y-140550000D03*
%TO.N,Net-(U1-~{Mr})*%
X115956400Y-138274100D03*
X109980800Y-134000900D03*
%TO.N,/~{HBL}*%
X108482100Y-135230000D03*
%TO.N,/~{VBL}*%
X104211600Y-135082200D03*
X105025000Y-139975000D03*
%TO.N,/~{BLACK}*%
X103389500Y-135296400D03*
%TO.N,+5V*%
X100477700Y-133028700D03*
X120407500Y-132202500D03*
%TO.N,Net-(U1-Q4)*%
X129611350Y-133988650D03*
X111100000Y-133600000D03*
%TO.N,Net-(U1-Q7)*%
X119301200Y-134221000D03*
X115800000Y-134100000D03*
%TO.N,/6M*%
X130451200Y-134192800D03*
%TO.N,Net-(J1-Pin_14)*%
X123400000Y-134462500D03*
%TO.N,/CO11*%
X120573300Y-135997600D03*
%TO.N,/CO12*%
X127055000Y-135755000D03*
%TO.N,/CO13*%
X128400000Y-135900000D03*
%TO.N,/CO14*%
X128753300Y-139698600D03*
%TD*%
%TO.N,GND*%
D18*
X121811000Y-134941000D02*
X121870000Y-135000000D01*
X101400000Y-136758500D02*
X99170000Y-136758500D01*
X108099700Y-136758500D02*
X106440000Y-136758500D01*
X99170000Y-134937500D02*
X99170000Y-136758500D01*
X106440000Y-138075000D02*
X105170000Y-138075000D01*
X98230500Y-142476700D02*
X119623300Y-142476700D01*
X120409100Y-134941000D02*
X121811000Y-134941000D01*
X99170000Y-136758500D02*
X97411500Y-136758500D01*
X130057500Y-138437500D02*
X130057500Y-137781200D01*
X96437900Y-141547900D02*
X97301700Y-141547900D01*
X96150000Y-141260000D02*
X96150000Y-140108300D01*
X126157500Y-137735100D02*
X125186502Y-136764102D01*
X97411500Y-136758500D02*
X96570000Y-137600000D01*
X106440000Y-136758500D02*
X106440000Y-138075000D01*
X126494700Y-137397900D02*
X126157500Y-137735100D01*
X119623300Y-142476700D02*
X120319983Y-141780017D01*
X101360000Y-138075000D02*
X101360000Y-136798500D01*
X125507500Y-138437500D02*
X126157500Y-138437500D01*
X108980000Y-138075000D02*
X108980000Y-137638800D01*
X101360000Y-136798500D02*
X101400000Y-136758500D01*
X129674200Y-137397900D02*
X126494700Y-137397900D01*
X130057500Y-137781200D02*
X129674200Y-137397900D01*
X96570000Y-139688300D02*
X96150000Y-140108300D01*
X96150000Y-141260000D02*
X96437900Y-141547900D01*
X97301700Y-141547900D02*
X98230500Y-142476700D01*
X108980000Y-137638800D02*
X108099700Y-136758500D01*
X96570000Y-137600000D02*
X96570000Y-139688300D01*
X126157500Y-137735100D02*
X126157500Y-138437500D01*
X125186502Y-136764102D02*
X125186502Y-136764100D01*
X120319983Y-141780017D02*
X120319983Y-140550000D01*
X102630000Y-138075000D02*
X101360000Y-138075000D01*
X106440000Y-136758500D02*
X101400000Y-136758500D01*
%TO.N,Net-(U1-~{Mr})*%
X123545000Y-139100000D02*
X116485256Y-139100000D01*
X124207500Y-138437500D02*
X123545000Y-139100000D01*
X109855900Y-134000900D02*
X108980000Y-133125000D01*
X109980800Y-134000900D02*
X109855900Y-134000900D01*
X116485256Y-139100000D02*
X115956400Y-138571144D01*
X115956400Y-138571144D02*
X115956400Y-138274100D01*
%TO.N,/~{HBL}*%
X107710000Y-133125000D02*
X107710000Y-134457900D01*
X107710000Y-134457900D02*
X108482100Y-135230000D01*
%TO.N,Net-(U2-Pad10)*%
X105170000Y-133125000D02*
X106440000Y-133125000D01*
%TO.N,/~{VBL}*%
X103900000Y-133125000D02*
X103900000Y-134770600D01*
X103900000Y-134770600D02*
X104211600Y-135082200D01*
X106310000Y-141260000D02*
X105025000Y-139975000D01*
%TO.N,/~{BLACK}*%
X102630000Y-134536900D02*
X102630000Y-133125000D01*
X103389500Y-135296400D02*
X102630000Y-134536900D01*
%TO.N,+5V*%
X99336200Y-133028700D02*
X99170000Y-132862500D01*
X121870000Y-132925000D02*
X121147500Y-132202500D01*
X100477700Y-133028700D02*
X99336200Y-133028700D01*
X122082500Y-132712500D02*
X121870000Y-132925000D01*
X121147500Y-132202500D02*
X120407500Y-132202500D01*
X100574000Y-133125000D02*
X100477700Y-133028700D01*
X124207500Y-132712500D02*
X122082500Y-132712500D01*
X101360000Y-133125000D02*
X100574000Y-133125000D01*
%TO.N,Net-(U1-Q2)*%
X127132499Y-139500000D02*
X127457500Y-139174999D01*
X115870000Y-139500000D02*
X127132499Y-139500000D01*
X114370000Y-138000000D02*
X115870000Y-139500000D01*
X127457500Y-139174999D02*
X127457500Y-138437500D01*
%TO.N,Net-(R1-Pad2)*%
X112370000Y-138000000D02*
X112370000Y-137500000D01*
X114370000Y-133000000D02*
X114370000Y-134127100D01*
X116069239Y-134750000D02*
X116692139Y-134127100D01*
X112370000Y-137500000D02*
X114370000Y-135500000D01*
X118699500Y-134100000D02*
X118699500Y-134602600D01*
X116692139Y-134127100D02*
X118672400Y-134127100D01*
X110384200Y-134450000D02*
X114289500Y-134450000D01*
X100509600Y-133889300D02*
X102560600Y-135940300D01*
X114370000Y-134530500D02*
X114370000Y-134127100D01*
X118672400Y-134127100D02*
X118699500Y-134100000D01*
X108893900Y-135940300D02*
X110384200Y-134450000D01*
X116970000Y-138100000D02*
X114370000Y-135500000D01*
X118699500Y-133370500D02*
X118699500Y-134100000D01*
X114289500Y-134450000D02*
X114370000Y-134530500D01*
X117070000Y-138100000D02*
X116970000Y-138100000D01*
X115530761Y-134750000D02*
X116069239Y-134750000D01*
X119070000Y-134973100D02*
X119070000Y-135500000D01*
X114370000Y-134127100D02*
X114907861Y-134127100D01*
X114370000Y-135500000D02*
X114370000Y-134530500D01*
X96959300Y-133889300D02*
X100509600Y-133889300D01*
X96570000Y-133500000D02*
X96959300Y-133889300D01*
X118699500Y-134602600D02*
X119070000Y-134973100D01*
X102560600Y-135940300D02*
X108893900Y-135940300D01*
X119070000Y-133000000D02*
X118699500Y-133370500D01*
X114907861Y-134127100D02*
X115530761Y-134750000D01*
%TO.N,Net-(U1-Q6)*%
X123584400Y-136599300D02*
X126807500Y-133376200D01*
X126807500Y-133376200D02*
X126807500Y-132712500D01*
X118169300Y-136599300D02*
X123584400Y-136599300D01*
X117070000Y-135500000D02*
X118169300Y-136599300D01*
%TO.N,RGBout*%
X89608500Y-140991500D02*
X88798500Y-140991500D01*
X94570000Y-137600000D02*
X94570000Y-133500000D01*
X88798500Y-140991500D02*
X88530000Y-141260000D01*
X93000000Y-137600000D02*
X89608500Y-140991500D01*
X94570000Y-137600000D02*
X93000000Y-137600000D01*
%TO.N,Net-(U1-Q5)*%
X127457500Y-132712500D02*
X127457500Y-133436300D01*
X127457500Y-133436300D02*
X122793800Y-138100000D01*
X122793800Y-138100000D02*
X119070000Y-138100000D01*
%TO.N,Net-(U1-Q4)*%
X129407500Y-133784800D02*
X129611350Y-133988650D01*
X129407500Y-132712500D02*
X129407500Y-133784800D01*
X111100000Y-133600000D02*
X111770000Y-133600000D01*
X129586700Y-133964000D02*
X129611350Y-133988650D01*
X111770000Y-133600000D02*
X112370000Y-133000000D01*
X129612300Y-133989600D02*
X129586700Y-133964000D01*
%TO.N,Net-(U1-Q7)*%
X120751756Y-134221000D02*
X121160256Y-133812500D01*
X121160256Y-133812500D02*
X124413456Y-133812500D01*
X119301200Y-134221000D02*
X120751756Y-134221000D01*
X117070000Y-133000000D02*
X116247100Y-133000000D01*
X124413456Y-133812500D02*
X124857500Y-133368456D01*
X115720000Y-133527100D02*
X115720000Y-134020000D01*
X115720000Y-134020000D02*
X115800000Y-134100000D01*
X116247100Y-133000000D02*
X115720000Y-133527100D01*
X124857500Y-133368456D02*
X124857500Y-132712500D01*
%TO.N,/6M*%
X130451200Y-133106200D02*
X130057500Y-132712500D01*
X130451200Y-134192800D02*
X130451200Y-133106200D01*
%TO.N,Net-(J1-Pin_14)*%
X125507500Y-133449999D02*
X124603599Y-134353900D01*
X123508600Y-134353900D02*
X123400000Y-134462500D01*
X125507500Y-132712500D02*
X125507500Y-133449999D01*
X124603599Y-134353900D02*
X123508600Y-134353900D01*
%TO.N,/CO11*%
X120573300Y-135997600D02*
X123551200Y-135997600D01*
X123551200Y-135997600D02*
X126157500Y-133391300D01*
X126157500Y-133391300D02*
X126157500Y-132712500D01*
%TO.N,/CO12*%
X128107500Y-132712500D02*
X128107500Y-134702500D01*
X128107500Y-134702500D02*
X127055000Y-135755000D01*
%TO.N,/CO13*%
X128757500Y-132712500D02*
X128757500Y-135542500D01*
X128757500Y-135542500D02*
X128400000Y-135900000D01*
%TO.N,/CO14*%
X128757500Y-139694400D02*
X128753300Y-139698600D01*
X128757500Y-138437500D02*
X128757500Y-139694400D01*
%TO.N,/CO15*%
X128107500Y-140197500D02*
X128107500Y-138437500D01*
X129170000Y-141260000D02*
X128107500Y-140197500D01*
%TO.N,Net-(U1-Q3)*%
X130400000Y-141800000D02*
X129700000Y-142500000D01*
X129407500Y-139187900D02*
X130400000Y-140180400D01*
X122800000Y-141800000D02*
X122800000Y-140785950D01*
X129700000Y-142500000D02*
X123500000Y-142500000D01*
X112666700Y-139900000D02*
X111433200Y-138666500D01*
X129407500Y-138437500D02*
X129407500Y-139187900D01*
X122800000Y-140785950D02*
X121914050Y-139900000D01*
X121914050Y-139900000D02*
X112666700Y-139900000D01*
X130400000Y-140180400D02*
X130400000Y-141800000D01*
X111433200Y-136436800D02*
X112370000Y-135500000D01*
X123500000Y-142500000D02*
X122800000Y-141800000D01*
X111433200Y-138666500D02*
X111433200Y-136436800D01*
%TD*%
M02*
