%TF.GenerationSoftware,KiCad,Pcbnew,10.0.0*%
%TF.CreationDate,2026-04-10T10:11:17+02:00*%
%TF.ProjectId,TAITO PC040DA Weighted OPAMP,54414954-4f20-4504-9330-343044412057,0.9*%
%TF.SameCoordinates,Original*%
%TF.FileFunction,Legend,Bot*%
%TF.FilePolarity,Positive*%
%FSLAX46Y46*%
G04 Gerber Fmt 4.6, Leading zero omitted, Abs format (unit mm)*
G04 Created by KiCad (PCBNEW 10.0.0) date 2026-04-10 10:11:17*
%MOMM*%
%LPD*%
G01*
G04 APERTURE LIST*
%ADD10C,0.300000*%
%ADD11C,0.000000*%
G04 APERTURE END LIST*
D10*
G36*
X128291761Y-133710027D02*
G01*
X128270603Y-133710027D01*
X128244800Y-133715154D01*
X128230711Y-133728729D01*
X128225540Y-133752800D01*
X128225540Y-134980120D01*
X128228641Y-134996985D01*
X128237997Y-135011627D01*
X128252106Y-135021564D01*
X128270603Y-135025000D01*
X128291761Y-135025000D01*
X128310345Y-135021542D01*
X128324550Y-135011536D01*
X128333845Y-134996850D01*
X128336915Y-134980120D01*
X128336915Y-133752800D01*
X128331738Y-133728737D01*
X128317625Y-133715159D01*
X128291761Y-133710027D01*
G37*
G36*
X128743488Y-133547819D02*
G01*
X127813197Y-133547819D01*
X127794763Y-133551379D01*
X127780683Y-133561741D01*
X127771395Y-133576706D01*
X127768318Y-133593797D01*
X127768318Y-133617520D01*
X127773420Y-133640884D01*
X127787407Y-133654152D01*
X127813197Y-133659193D01*
X128743488Y-133659193D01*
X128769217Y-133654156D01*
X128783180Y-133640893D01*
X128788276Y-133617520D01*
X128788276Y-133593797D01*
X128784975Y-133576703D01*
X128774904Y-133561649D01*
X128760233Y-133551219D01*
X128743488Y-133547819D01*
G37*
G36*
X127235899Y-133606437D02*
G01*
X127217744Y-133573630D01*
X127190880Y-133554629D01*
X127152459Y-133547819D01*
X127114016Y-133554749D01*
X127086335Y-133574328D01*
X127066822Y-133608452D01*
X126584228Y-134964733D01*
X126584228Y-134980028D01*
X126589491Y-135005576D01*
X126603608Y-135019733D01*
X126629016Y-135025000D01*
X126654112Y-135025000D01*
X126678993Y-135017911D01*
X126696519Y-134995874D01*
X127149895Y-133699585D01*
X127606018Y-134995874D01*
X127623558Y-135017905D01*
X127648517Y-135025000D01*
X127673704Y-135025000D01*
X127699104Y-135019727D01*
X127713225Y-135005545D01*
X127718492Y-134979937D01*
X127716202Y-134964275D01*
X127235899Y-133606437D01*
G37*
G36*
X127332711Y-134368475D02*
G01*
X126969186Y-134368475D01*
X126952334Y-134371616D01*
X126937678Y-134381114D01*
X126927681Y-134395521D01*
X126924214Y-134414453D01*
X126924214Y-134433962D01*
X126927677Y-134452815D01*
X126937678Y-134467210D01*
X126952334Y-134476708D01*
X126969186Y-134479849D01*
X127332711Y-134479849D01*
X127356767Y-134474619D01*
X127370402Y-134460306D01*
X127375575Y-134433962D01*
X127375575Y-134414453D01*
X127370398Y-134388048D01*
X127356759Y-134373711D01*
X127332711Y-134368475D01*
G37*
G36*
X126312569Y-133547819D02*
G01*
X126293152Y-133547819D01*
X126276008Y-133551166D01*
X126261004Y-133561374D01*
X126250566Y-133576108D01*
X126247173Y-133592790D01*
X126247173Y-134980028D01*
X126250571Y-134996789D01*
X126261004Y-135011536D01*
X126276001Y-135021671D01*
X126293152Y-135025000D01*
X126312569Y-135025000D01*
X126331438Y-135021540D01*
X126345908Y-135011536D01*
X126355407Y-134996880D01*
X126358548Y-134980028D01*
X126358548Y-133592790D01*
X126355411Y-133576017D01*
X126345908Y-133561374D01*
X126331494Y-133551306D01*
X126312569Y-133547819D01*
G37*
G36*
X125589458Y-133710027D02*
G01*
X125568300Y-133710027D01*
X125542497Y-133715154D01*
X125528409Y-133728729D01*
X125523237Y-133752800D01*
X125523237Y-134980120D01*
X125526338Y-134996985D01*
X125535694Y-135011627D01*
X125549804Y-135021564D01*
X125568300Y-135025000D01*
X125589458Y-135025000D01*
X125608042Y-135021542D01*
X125622247Y-135011536D01*
X125631542Y-134996850D01*
X125634612Y-134980120D01*
X125634612Y-133752800D01*
X125629435Y-133728737D01*
X125615322Y-133715159D01*
X125589458Y-133710027D01*
G37*
G36*
X126041185Y-133547819D02*
G01*
X125110894Y-133547819D01*
X125092460Y-133551379D01*
X125078380Y-133561741D01*
X125069092Y-133576706D01*
X125066015Y-133593797D01*
X125066015Y-133617520D01*
X125071117Y-133640884D01*
X125085104Y-133654152D01*
X125110894Y-133659193D01*
X126041185Y-133659193D01*
X126066914Y-133654156D01*
X126080877Y-133640893D01*
X126085973Y-133617520D01*
X126085973Y-133593797D01*
X126082672Y-133576703D01*
X126072601Y-133561649D01*
X126057930Y-133551219D01*
X126041185Y-133547819D01*
G37*
G36*
X124544495Y-133556337D02*
G01*
X124603240Y-133569857D01*
X124677943Y-133597461D01*
X124749532Y-133635645D01*
X124809285Y-133683099D01*
X124858396Y-133744241D01*
X124903715Y-133835140D01*
X124932562Y-133939507D01*
X124942916Y-134067140D01*
X124942916Y-134493130D01*
X124932929Y-134617248D01*
X124904723Y-134722016D01*
X124860361Y-134814127D01*
X124811483Y-134877172D01*
X124749182Y-134927819D01*
X124659900Y-134978563D01*
X124594018Y-135003514D01*
X124516736Y-135019370D01*
X124425976Y-135025000D01*
X124339659Y-135019098D01*
X124256699Y-135001547D01*
X124176299Y-134972243D01*
X124106253Y-134932953D01*
X124045874Y-134883491D01*
X123995910Y-134820215D01*
X123950436Y-134727237D01*
X123921540Y-134621034D01*
X123911235Y-134493130D01*
X123911235Y-134076299D01*
X124022609Y-134076299D01*
X124022609Y-134485986D01*
X124030563Y-134588200D01*
X124052834Y-134673015D01*
X124087910Y-134747524D01*
X124126565Y-134798495D01*
X124173634Y-134838431D01*
X124228415Y-134869936D01*
X124285817Y-134892971D01*
X124333469Y-134905290D01*
X124426068Y-134913625D01*
X124518667Y-134905290D01*
X124566250Y-134892979D01*
X124623722Y-134869936D01*
X124678625Y-134838490D01*
X124726578Y-134798495D01*
X124766047Y-134747428D01*
X124801408Y-134673015D01*
X124823611Y-134588205D01*
X124831542Y-134485986D01*
X124831542Y-134076299D01*
X124823590Y-133974289D01*
X124801408Y-133890369D01*
X124766267Y-133817103D01*
X124727677Y-133768004D01*
X124680549Y-133729974D01*
X124624821Y-133699677D01*
X124566617Y-133677706D01*
X124519766Y-133666521D01*
X124427167Y-133659193D01*
X124335484Y-133666521D01*
X124289515Y-133677659D01*
X124231437Y-133699677D01*
X124175709Y-133729974D01*
X124128580Y-133768004D01*
X124089784Y-133817065D01*
X124053842Y-133890369D01*
X124030841Y-133974350D01*
X124022609Y-134076299D01*
X123911235Y-134076299D01*
X123911235Y-134067140D01*
X123921250Y-133943301D01*
X123949337Y-133840452D01*
X123993608Y-133750278D01*
X124042668Y-133688319D01*
X124102298Y-133639785D01*
X124173002Y-133600667D01*
X124247030Y-133572039D01*
X124307458Y-133557344D01*
X124426984Y-133547819D01*
X124544495Y-133556337D01*
G37*
G36*
X122520607Y-133547819D02*
G01*
X122195642Y-133547819D01*
X122099582Y-133556826D01*
X122009447Y-133583550D01*
X121923617Y-133628510D01*
X121865256Y-133679643D01*
X121817738Y-133752067D01*
X121788103Y-133837937D01*
X121777529Y-133943584D01*
X121783968Y-134026435D01*
X121802540Y-134100020D01*
X121832704Y-134165909D01*
X121874707Y-134225318D01*
X121926788Y-134271537D01*
X121996979Y-134306936D01*
X122090039Y-134330435D01*
X122212129Y-134339166D01*
X122350431Y-134339166D01*
X122368810Y-134335633D01*
X122382946Y-134325335D01*
X122392158Y-134310364D01*
X122395219Y-134293187D01*
X122395219Y-134273770D01*
X122389914Y-134247545D01*
X122375777Y-134233121D01*
X122350523Y-134227791D01*
X122237500Y-134227791D01*
X122120241Y-134219853D01*
X122037856Y-134199270D01*
X121981619Y-134169593D01*
X121944866Y-134132261D01*
X121914320Y-134077029D01*
X121895485Y-134013674D01*
X121888904Y-133940286D01*
X121895573Y-133867391D01*
X121914045Y-133809248D01*
X121943103Y-133762770D01*
X121983060Y-133725872D01*
X122048630Y-133689275D01*
X122122310Y-133666932D01*
X122206084Y-133659193D01*
X122504396Y-133659193D01*
X122504396Y-134980211D01*
X122507730Y-134996915D01*
X122517951Y-135011627D01*
X122532738Y-135021703D01*
X122549550Y-135025000D01*
X122570616Y-135025000D01*
X122587500Y-135021679D01*
X122602307Y-135011536D01*
X122612451Y-134996817D01*
X122615771Y-134980028D01*
X122615771Y-133643257D01*
X122609878Y-133593001D01*
X122596079Y-133567694D01*
X122570760Y-133553758D01*
X122520607Y-133547819D01*
G37*
G36*
X121335144Y-133584180D02*
G01*
X121261459Y-133554589D01*
X121202246Y-133539759D01*
X121088306Y-133530233D01*
X120975558Y-133539759D01*
X120917865Y-133553840D01*
X120850078Y-133579967D01*
X120784644Y-133615041D01*
X120726522Y-133658278D01*
X120676259Y-133712789D01*
X120629252Y-133789528D01*
X120595505Y-133877680D01*
X120576495Y-133983151D01*
X120581959Y-134011637D01*
X120596240Y-134026967D01*
X120621192Y-134032519D01*
X120640151Y-134032519D01*
X120663378Y-134027842D01*
X120677609Y-134015016D01*
X120684848Y-133992127D01*
X120701458Y-133907986D01*
X120728537Y-133837613D01*
X120765784Y-133776835D01*
X120805382Y-133735489D01*
X120851554Y-133703502D01*
X120904941Y-133677145D01*
X120987541Y-133649978D01*
X121059913Y-133641608D01*
X121178432Y-133650034D01*
X121225931Y-133662361D01*
X121283395Y-133685480D01*
X121338060Y-133717129D01*
X121385061Y-133757379D01*
X121423571Y-133808554D01*
X121458701Y-133883592D01*
X121480903Y-133968866D01*
X121488834Y-134071628D01*
X121488834Y-134483513D01*
X121480112Y-134586185D01*
X121455587Y-134671641D01*
X121417303Y-134746408D01*
X121375536Y-134797854D01*
X121325158Y-134837953D01*
X121266268Y-134869753D01*
X121166656Y-134903266D01*
X121078598Y-134913625D01*
X120994392Y-134909368D01*
X120929579Y-134897963D01*
X120869360Y-134876679D01*
X120807671Y-134842550D01*
X120754280Y-134796662D01*
X120714566Y-134734124D01*
X120688601Y-134650716D01*
X120678986Y-134540300D01*
X120675240Y-134507149D01*
X120666804Y-134491939D01*
X120653089Y-134483546D01*
X120634931Y-134480582D01*
X120618444Y-134480582D01*
X120593537Y-134485825D01*
X120579610Y-134499998D01*
X120574389Y-134525737D01*
X120579284Y-134611267D01*
X120593256Y-134686516D01*
X120615513Y-134752882D01*
X120662352Y-134842100D01*
X120711684Y-134900710D01*
X120770907Y-134945324D01*
X120840644Y-134980486D01*
X120952073Y-135014895D01*
X121039946Y-135025000D01*
X121122458Y-135022153D01*
X121187591Y-135014467D01*
X121250757Y-134998407D01*
X121326810Y-134967847D01*
X121399527Y-134926745D01*
X121461906Y-134876714D01*
X121513635Y-134813233D01*
X121560184Y-134721009D01*
X121589760Y-134615782D01*
X121600209Y-134491390D01*
X121600209Y-134063843D01*
X121589951Y-133935559D01*
X121561191Y-133829003D01*
X121515827Y-133735862D01*
X121466120Y-133673299D01*
X121405759Y-133624264D01*
X121335144Y-133584180D01*
G37*
G36*
X120075674Y-133555413D02*
G01*
X120156628Y-133576809D01*
X120224936Y-133610763D01*
X120282684Y-133657209D01*
X120331123Y-133717262D01*
X120364362Y-133782079D01*
X120385260Y-133858828D01*
X120392672Y-133950178D01*
X120392672Y-134599559D01*
X120384474Y-134705219D01*
X120361710Y-134791190D01*
X120326137Y-134861187D01*
X120278092Y-134918021D01*
X120217966Y-134963669D01*
X120148369Y-134996887D01*
X120067498Y-135017676D01*
X119973002Y-135025000D01*
X119960271Y-135025000D01*
X119866919Y-135017706D01*
X119786731Y-134996967D01*
X119717432Y-134963757D01*
X119657288Y-134918021D01*
X119609242Y-134861187D01*
X119573669Y-134791190D01*
X119550905Y-134705219D01*
X119542707Y-134599559D01*
X119542707Y-133954300D01*
X119654082Y-133954300D01*
X119654082Y-134595437D01*
X119663956Y-134702454D01*
X119690534Y-134782191D01*
X119731239Y-134841109D01*
X119786407Y-134883409D01*
X119859214Y-134910413D01*
X119955142Y-134920311D01*
X119980329Y-134920311D01*
X120076221Y-134910414D01*
X120149003Y-134883414D01*
X120204156Y-134841117D01*
X120244852Y-134782201D01*
X120271425Y-134702461D01*
X120281297Y-134595437D01*
X120281297Y-133954300D01*
X120274746Y-133870363D01*
X120257010Y-133805956D01*
X120230002Y-133756903D01*
X120194194Y-133720102D01*
X120133093Y-133682968D01*
X120063881Y-133660351D01*
X119984451Y-133652507D01*
X119950928Y-133652507D01*
X119871499Y-133660351D01*
X119802287Y-133682968D01*
X119741185Y-133720102D01*
X119705377Y-133756903D01*
X119678370Y-133805956D01*
X119660633Y-133870363D01*
X119654082Y-133954300D01*
X119542707Y-133954300D01*
X119542707Y-133950178D01*
X119551251Y-133846896D01*
X119574860Y-133764227D01*
X119611685Y-133698048D01*
X119661592Y-133645363D01*
X119723374Y-133603266D01*
X119791835Y-133572968D01*
X119868204Y-133554293D01*
X119954043Y-133547819D01*
X119979322Y-133547819D01*
X120075674Y-133555413D01*
G37*
G36*
X118705929Y-133553620D02*
G01*
X118734891Y-133572300D01*
X118765374Y-133608086D01*
X119311256Y-134429383D01*
X119326438Y-134455171D01*
X119330674Y-134474904D01*
X119326369Y-134507693D01*
X119309789Y-134533520D01*
X119281772Y-134549808D01*
X119237434Y-134556053D01*
X118698604Y-134556053D01*
X118698604Y-134980211D01*
X118693540Y-135005904D01*
X118680177Y-135019884D01*
X118656564Y-135025000D01*
X118638062Y-135025000D01*
X118613121Y-135019782D01*
X118599211Y-135005707D01*
X118594007Y-134980211D01*
X118594007Y-134556053D01*
X118355687Y-134556053D01*
X118332670Y-134551038D01*
X118319612Y-134537302D01*
X118314654Y-134511998D01*
X118314654Y-134493405D01*
X118319517Y-134469443D01*
X118332487Y-134456246D01*
X118355687Y-134451365D01*
X118594007Y-134451365D01*
X118698604Y-134451365D01*
X119194112Y-134451365D01*
X118932619Y-134056974D01*
X118698604Y-133697570D01*
X118698604Y-134451365D01*
X118594007Y-134451365D01*
X118594007Y-133641516D01*
X118600005Y-133597948D01*
X118615620Y-133570335D01*
X118640244Y-133553881D01*
X118677172Y-133547819D01*
X118705929Y-133553620D01*
G37*
G36*
X117814473Y-133555413D02*
G01*
X117895427Y-133576809D01*
X117963736Y-133610763D01*
X118021483Y-133657209D01*
X118069923Y-133717262D01*
X118103162Y-133782079D01*
X118124060Y-133858828D01*
X118131472Y-133950178D01*
X118131472Y-134599559D01*
X118123274Y-134705219D01*
X118100510Y-134791190D01*
X118064937Y-134861187D01*
X118016892Y-134918021D01*
X117956766Y-134963669D01*
X117887169Y-134996887D01*
X117806298Y-135017676D01*
X117711802Y-135025000D01*
X117699071Y-135025000D01*
X117605719Y-135017706D01*
X117525530Y-134996967D01*
X117456232Y-134963757D01*
X117396087Y-134918021D01*
X117348042Y-134861187D01*
X117312469Y-134791190D01*
X117289705Y-134705219D01*
X117281507Y-134599559D01*
X117281507Y-133954300D01*
X117392882Y-133954300D01*
X117392882Y-134595437D01*
X117402756Y-134702454D01*
X117429334Y-134782191D01*
X117470039Y-134841109D01*
X117525207Y-134883409D01*
X117598014Y-134910413D01*
X117693941Y-134920311D01*
X117719129Y-134920311D01*
X117815021Y-134910414D01*
X117887803Y-134883414D01*
X117942956Y-134841117D01*
X117983651Y-134782201D01*
X118010224Y-134702461D01*
X118020097Y-134595437D01*
X118020097Y-133954300D01*
X118013546Y-133870363D01*
X117995809Y-133805956D01*
X117968802Y-133756903D01*
X117932994Y-133720102D01*
X117871892Y-133682968D01*
X117802680Y-133660351D01*
X117723251Y-133652507D01*
X117689728Y-133652507D01*
X117610298Y-133660351D01*
X117541086Y-133682968D01*
X117479985Y-133720102D01*
X117444177Y-133756903D01*
X117417169Y-133805956D01*
X117399433Y-133870363D01*
X117392882Y-133954300D01*
X117281507Y-133954300D01*
X117281507Y-133950178D01*
X117290051Y-133846896D01*
X117313659Y-133764227D01*
X117350485Y-133698048D01*
X117400392Y-133645363D01*
X117462174Y-133603266D01*
X117530635Y-133572968D01*
X117607003Y-133554293D01*
X117692842Y-133547819D01*
X117718121Y-133547819D01*
X117814473Y-133555413D01*
G37*
G36*
X117010776Y-133553561D02*
G01*
X117034211Y-133567694D01*
X117047501Y-133591903D01*
X117052896Y-133634830D01*
X117052896Y-134935881D01*
X117046885Y-134976588D01*
X117030987Y-135002902D01*
X117005297Y-135018976D01*
X116965976Y-135025000D01*
X116615273Y-135025000D01*
X116479102Y-135015407D01*
X116374254Y-134989488D01*
X116294260Y-134950303D01*
X116234071Y-134899062D01*
X116188151Y-134833770D01*
X116152800Y-134749205D01*
X116129452Y-134640786D01*
X116120865Y-134502930D01*
X116120865Y-134099380D01*
X116121085Y-134093793D01*
X116232240Y-134093793D01*
X116232240Y-134514654D01*
X116239357Y-134622849D01*
X116258616Y-134706793D01*
X116287688Y-134771315D01*
X116325479Y-134820293D01*
X116374479Y-134858653D01*
X116437037Y-134887716D01*
X116516288Y-134906691D01*
X116616189Y-134913625D01*
X116941521Y-134913625D01*
X116941521Y-133659193D01*
X116628646Y-133659193D01*
X116510384Y-133667343D01*
X116423125Y-133688942D01*
X116359853Y-133720878D01*
X116315129Y-133761867D01*
X116282108Y-133814310D01*
X116256143Y-133884077D01*
X116238716Y-133975518D01*
X116232240Y-134093793D01*
X116121085Y-134093793D01*
X116126107Y-133966208D01*
X116139824Y-133868479D01*
X116167330Y-133780433D01*
X116211723Y-133700501D01*
X116256127Y-133650203D01*
X116315980Y-133608975D01*
X116394657Y-133576969D01*
X116496752Y-133555685D01*
X116627821Y-133547819D01*
X116968082Y-133547819D01*
X117010776Y-133553561D01*
G37*
G36*
X115416987Y-133606437D02*
G01*
X115398833Y-133573630D01*
X115371968Y-133554629D01*
X115333548Y-133547819D01*
X115295105Y-133554749D01*
X115267423Y-133574328D01*
X115247910Y-133608452D01*
X114765317Y-134964733D01*
X114765317Y-134980028D01*
X114770580Y-135005576D01*
X114784696Y-135019733D01*
X114810105Y-135025000D01*
X114835201Y-135025000D01*
X114860082Y-135017911D01*
X114877608Y-134995874D01*
X115330983Y-133699585D01*
X115787107Y-134995874D01*
X115804647Y-135017905D01*
X115829605Y-135025000D01*
X115854793Y-135025000D01*
X115880193Y-135019727D01*
X115894313Y-135005545D01*
X115899581Y-134979937D01*
X115897291Y-134964275D01*
X115416987Y-133606437D01*
G37*
G36*
X115513799Y-134368475D02*
G01*
X115150274Y-134368475D01*
X115133423Y-134371616D01*
X115118767Y-134381114D01*
X115108770Y-134395521D01*
X115105303Y-134414453D01*
X115105303Y-134433962D01*
X115108766Y-134452815D01*
X115118767Y-134467210D01*
X115133423Y-134476708D01*
X115150274Y-134479849D01*
X115513799Y-134479849D01*
X115537856Y-134474619D01*
X115551491Y-134460306D01*
X115556664Y-134433962D01*
X115556664Y-134414453D01*
X115551487Y-134388048D01*
X115537848Y-134373711D01*
X115513799Y-134368475D01*
G37*
G36*
X113440177Y-133547819D02*
G01*
X113152124Y-133547819D01*
X113016432Y-133556027D01*
X112908877Y-133578417D01*
X112824314Y-133612402D01*
X112758475Y-133656546D01*
X112708193Y-133710699D01*
X112671664Y-133776020D01*
X112648627Y-133854844D01*
X112640404Y-133950453D01*
X112651552Y-134051340D01*
X112684463Y-134143390D01*
X112740055Y-134228982D01*
X112793946Y-134280102D01*
X112861848Y-134317866D01*
X112946895Y-134342107D01*
X113053388Y-134350889D01*
X113070607Y-134350889D01*
X112622086Y-134942659D01*
X112596441Y-134990561D01*
X112604676Y-135016575D01*
X112628681Y-135025000D01*
X112670538Y-135025000D01*
X112696103Y-135020194D01*
X112712761Y-135006956D01*
X113196454Y-134366368D01*
X113215158Y-134332573D01*
X113220084Y-134309948D01*
X113211420Y-134270514D01*
X113187614Y-134248064D01*
X113143606Y-134239515D01*
X113051190Y-134239515D01*
X112967633Y-134231823D01*
X112901347Y-134210572D01*
X112845981Y-134176294D01*
X112810122Y-134136200D01*
X112777145Y-134074610D01*
X112758059Y-134013384D01*
X112751779Y-133951461D01*
X112759809Y-133874718D01*
X112782322Y-133812597D01*
X112818531Y-133761862D01*
X112869779Y-133720623D01*
X112939355Y-133688604D01*
X113032117Y-133667179D01*
X113154139Y-133659193D01*
X113420027Y-133659193D01*
X113420027Y-134980028D01*
X113423121Y-134996830D01*
X113432484Y-135011536D01*
X113446601Y-135021543D01*
X113465090Y-135025000D01*
X113486248Y-135025000D01*
X113504832Y-135021542D01*
X113519037Y-135011536D01*
X113528328Y-134996837D01*
X113531402Y-134980028D01*
X113531402Y-133649576D01*
X113525833Y-133596996D01*
X113512809Y-133569801D01*
X113488355Y-133554296D01*
X113440177Y-133547819D01*
G37*
G36*
X112476273Y-134315352D02*
G01*
X112469268Y-134232995D01*
X112449535Y-134164203D01*
X112418109Y-134106419D01*
X112374790Y-134057798D01*
X112321673Y-134018914D01*
X112260971Y-133990695D01*
X112191268Y-133973107D01*
X112110733Y-133966939D01*
X112030196Y-133973182D01*
X111960919Y-133990940D01*
X111900973Y-134019380D01*
X111848874Y-134058531D01*
X111806358Y-134107387D01*
X111775547Y-134164991D01*
X111756242Y-134233086D01*
X111749406Y-134314070D01*
X111749406Y-134439183D01*
X111755606Y-134481588D01*
X111771967Y-134508922D01*
X111798314Y-134525561D01*
X111838524Y-134531782D01*
X112292541Y-134531782D01*
X112311132Y-134528383D01*
X112325239Y-134518592D01*
X112334527Y-134504224D01*
X112337604Y-134487635D01*
X112337604Y-134471240D01*
X112334531Y-134454729D01*
X112325239Y-134440374D01*
X112311125Y-134430512D01*
X112292541Y-134427093D01*
X111854003Y-134427093D01*
X111854003Y-134316634D01*
X111862799Y-134240888D01*
X111887281Y-134181603D01*
X111926727Y-134134918D01*
X111978339Y-134100368D01*
X112039217Y-134079106D01*
X112111832Y-134071628D01*
X112184470Y-134079083D01*
X112245743Y-134100328D01*
X112298037Y-134134918D01*
X112338027Y-134181730D01*
X112362791Y-134241052D01*
X112371676Y-134316726D01*
X112371676Y-134678236D01*
X112362793Y-134753848D01*
X112338031Y-134813142D01*
X112298037Y-134859952D01*
X112245764Y-134894590D01*
X112184833Y-134915812D01*
X112112931Y-134923242D01*
X112040852Y-134915989D01*
X111979887Y-134895315D01*
X111927734Y-134861693D01*
X111887566Y-134815956D01*
X111862841Y-134758347D01*
X111854003Y-134685197D01*
X111850929Y-134668388D01*
X111841639Y-134653689D01*
X111827814Y-134643436D01*
X111811230Y-134640042D01*
X111794286Y-134640042D01*
X111775884Y-134643515D01*
X111761771Y-134653598D01*
X111752472Y-134668271D01*
X111749406Y-134684922D01*
X111756265Y-134765366D01*
X111775623Y-134832832D01*
X111806508Y-134889756D01*
X111849149Y-134937896D01*
X111920320Y-134986871D01*
X112005878Y-135017191D01*
X112109726Y-135027930D01*
X112213448Y-135017075D01*
X112300135Y-134986227D01*
X112373416Y-134936065D01*
X112417518Y-134886821D01*
X112449352Y-134828915D01*
X112469242Y-134760619D01*
X112476273Y-134679518D01*
X112476273Y-134315352D01*
G37*
G36*
X111188516Y-133973187D02*
G01*
X111257626Y-133991009D01*
X111317814Y-134019640D01*
X111370494Y-134059172D01*
X111413453Y-134108389D01*
X111444573Y-134166410D01*
X111464068Y-134234989D01*
X111470969Y-134316543D01*
X111470969Y-135509699D01*
X111465947Y-135534042D01*
X111452470Y-135547540D01*
X111428196Y-135552564D01*
X111409146Y-135552564D01*
X111384881Y-135547534D01*
X111371399Y-135534011D01*
X111366372Y-135509608D01*
X111366372Y-134946872D01*
X111297780Y-134990528D01*
X111213212Y-135018055D01*
X111108452Y-135027930D01*
X111028635Y-135021655D01*
X110959354Y-135003726D01*
X110898798Y-134974872D01*
X110845586Y-134934965D01*
X110802005Y-134885318D01*
X110770590Y-134827392D01*
X110751007Y-134759551D01*
X110744103Y-134679518D01*
X110744103Y-134316726D01*
X110848700Y-134316726D01*
X110848700Y-134676129D01*
X110857529Y-134751795D01*
X110882192Y-134811493D01*
X110922064Y-134858945D01*
X110974391Y-134893676D01*
X111038629Y-134915453D01*
X111117978Y-134923242D01*
X111196697Y-134913294D01*
X111278778Y-134882098D01*
X111366372Y-134825972D01*
X111366372Y-134316726D01*
X111357515Y-134241029D01*
X111332835Y-134181708D01*
X111293008Y-134134918D01*
X111240893Y-134100318D01*
X111179861Y-134079078D01*
X111107536Y-134071628D01*
X111035083Y-134078978D01*
X110974053Y-134099903D01*
X110922064Y-134133910D01*
X110882374Y-134180142D01*
X110857633Y-134239697D01*
X110848700Y-134316726D01*
X110744103Y-134316726D01*
X110744103Y-134315352D01*
X110751113Y-134233001D01*
X110770862Y-134164211D01*
X110802315Y-134106425D01*
X110845677Y-134057798D01*
X110918049Y-134008301D01*
X111004440Y-133977736D01*
X111108635Y-133966939D01*
X111188516Y-133973187D01*
G37*
G36*
X110018976Y-133966939D02*
G01*
X109994897Y-133972105D01*
X109981327Y-133986168D01*
X109976203Y-134011911D01*
X109976203Y-134026657D01*
X109979273Y-134043387D01*
X109988568Y-134058073D01*
X110002399Y-134068249D01*
X110019068Y-134071628D01*
X110096151Y-134078942D01*
X110158238Y-134099315D01*
X110208478Y-134131620D01*
X110246230Y-134176336D01*
X110270206Y-134236166D01*
X110279003Y-134315993D01*
X110279003Y-134980120D01*
X110282480Y-134998601D01*
X110292559Y-135012726D01*
X110307174Y-135021943D01*
X110323975Y-135025000D01*
X110338629Y-135025000D01*
X110355445Y-135021946D01*
X110370136Y-135012726D01*
X110380144Y-134998609D01*
X110383600Y-134980120D01*
X110383600Y-134315718D01*
X110376673Y-134229513D01*
X110357393Y-134159172D01*
X110327140Y-134101675D01*
X110286056Y-134054775D01*
X110235098Y-134017699D01*
X110174873Y-133990378D01*
X110103590Y-133973085D01*
X110018976Y-133966939D01*
G37*
G36*
X109481637Y-133973107D02*
G01*
X109551341Y-133990695D01*
X109612043Y-134018914D01*
X109665160Y-134057798D01*
X109708479Y-134106419D01*
X109739904Y-134164203D01*
X109759638Y-134232995D01*
X109766643Y-134315352D01*
X109766643Y-134679518D01*
X109759627Y-134760637D01*
X109739784Y-134828939D01*
X109708032Y-134886839D01*
X109664061Y-134936065D01*
X109610384Y-134975491D01*
X109549453Y-135004014D01*
X109479913Y-135021733D01*
X109400004Y-135027930D01*
X109320030Y-135021687D01*
X109251087Y-135003904D01*
X109191278Y-134975385D01*
X109139153Y-134936065D01*
X109096696Y-134887045D01*
X109065910Y-134829224D01*
X109046611Y-134760850D01*
X109039776Y-134679518D01*
X109039776Y-134315535D01*
X109144373Y-134315535D01*
X109144373Y-134679335D01*
X109153132Y-134754728D01*
X109177518Y-134813779D01*
X109216822Y-134860319D01*
X109268229Y-134894665D01*
X109328867Y-134915806D01*
X109401195Y-134923242D01*
X109473565Y-134915851D01*
X109534960Y-134894742D01*
X109587674Y-134860319D01*
X109628115Y-134813628D01*
X109653096Y-134754570D01*
X109662046Y-134679335D01*
X109662046Y-134315535D01*
X109653098Y-134240361D01*
X109628120Y-134181332D01*
X109587674Y-134134643D01*
X109534953Y-134100166D01*
X109473559Y-134079029D01*
X109401195Y-134071628D01*
X109328873Y-134079073D01*
X109268236Y-134100243D01*
X109216822Y-134134643D01*
X109177514Y-134181180D01*
X109153130Y-134240204D01*
X109144373Y-134315535D01*
X109039776Y-134315535D01*
X109039776Y-134315352D01*
X109046612Y-134234018D01*
X109065913Y-134165662D01*
X109096699Y-134107873D01*
X109139153Y-134058897D01*
X109191273Y-134019580D01*
X109251240Y-133991029D01*
X109320538Y-133973205D01*
X109401103Y-133966939D01*
X109481637Y-133973107D01*
G37*
G36*
X107383350Y-133555413D02*
G01*
X107464304Y-133576809D01*
X107532612Y-133610763D01*
X107590360Y-133657209D01*
X107638799Y-133717262D01*
X107672038Y-133782079D01*
X107692936Y-133858828D01*
X107700348Y-133950178D01*
X107700348Y-134599559D01*
X107692150Y-134705219D01*
X107669386Y-134791190D01*
X107633813Y-134861187D01*
X107585768Y-134918021D01*
X107525643Y-134963669D01*
X107456045Y-134996887D01*
X107375174Y-135017676D01*
X107280678Y-135025000D01*
X107267947Y-135025000D01*
X107174595Y-135017706D01*
X107094407Y-134996967D01*
X107025109Y-134963757D01*
X106964964Y-134918021D01*
X106916918Y-134861187D01*
X106881346Y-134791190D01*
X106858581Y-134705219D01*
X106850383Y-134599559D01*
X106850383Y-133954300D01*
X106961758Y-133954300D01*
X106961758Y-134595437D01*
X106971632Y-134702454D01*
X106998210Y-134782191D01*
X107038915Y-134841109D01*
X107094084Y-134883409D01*
X107166890Y-134910413D01*
X107262818Y-134920311D01*
X107288005Y-134920311D01*
X107383897Y-134910414D01*
X107456680Y-134883414D01*
X107511832Y-134841117D01*
X107552528Y-134782201D01*
X107579101Y-134702461D01*
X107588974Y-134595437D01*
X107588974Y-133954300D01*
X107582422Y-133870363D01*
X107564686Y-133805956D01*
X107537678Y-133756903D01*
X107501871Y-133720102D01*
X107440769Y-133682968D01*
X107371557Y-133660351D01*
X107292127Y-133652507D01*
X107258605Y-133652507D01*
X107179175Y-133660351D01*
X107109963Y-133682968D01*
X107048861Y-133720102D01*
X107013053Y-133756903D01*
X106986046Y-133805956D01*
X106968310Y-133870363D01*
X106961758Y-133954300D01*
X106850383Y-133954300D01*
X106850383Y-133950178D01*
X106858927Y-133846896D01*
X106882536Y-133764227D01*
X106919361Y-133698048D01*
X106969269Y-133645363D01*
X107031050Y-133603266D01*
X107099512Y-133572968D01*
X107175880Y-133554293D01*
X107261719Y-133547819D01*
X107286998Y-133547819D01*
X107383350Y-133555413D01*
G37*
G36*
X106570217Y-134784858D02*
G01*
X106599790Y-134797762D01*
X106614877Y-134824185D01*
X106621772Y-134886239D01*
X106621772Y-134914083D01*
X106614831Y-134980073D01*
X106599790Y-135007964D01*
X106570103Y-135021581D01*
X106500780Y-135027930D01*
X106431147Y-135021660D01*
X106399755Y-135007964D01*
X106383129Y-134979853D01*
X106375575Y-134914083D01*
X106375575Y-134893017D01*
X106457641Y-134893017D01*
X106457641Y-134913716D01*
X106459848Y-134932486D01*
X106464693Y-134940369D01*
X106498674Y-134945865D01*
X106532745Y-134940369D01*
X106537524Y-134932499D01*
X106539706Y-134913716D01*
X106539706Y-134893017D01*
X106537524Y-134874235D01*
X106532745Y-134866364D01*
X106499681Y-134860868D01*
X106465701Y-134867371D01*
X106460017Y-134875911D01*
X106457641Y-134893017D01*
X106375575Y-134893017D01*
X106375575Y-134886239D01*
X106382856Y-134827891D01*
X106399755Y-134799869D01*
X106431268Y-134785388D01*
X106500780Y-134778803D01*
X106570217Y-134784858D01*
G37*
G36*
X105818129Y-133554499D02*
G01*
X105896314Y-133573314D01*
X105962542Y-133603061D01*
X106018736Y-133643440D01*
X106064073Y-133694543D01*
X106097472Y-133757453D01*
X106118782Y-133834690D01*
X106126448Y-133929662D01*
X106118107Y-134031427D01*
X106095236Y-134111497D01*
X106059858Y-134174333D01*
X106012240Y-134223186D01*
X105950867Y-134259756D01*
X106016223Y-134289859D01*
X106069617Y-134334766D01*
X106112617Y-134396318D01*
X106142480Y-134466754D01*
X106161018Y-134546205D01*
X106167480Y-134636379D01*
X106157953Y-134738564D01*
X106131471Y-134820640D01*
X106089596Y-134886842D01*
X106031669Y-134939977D01*
X105954900Y-134981081D01*
X105854704Y-135009277D01*
X105725095Y-135021885D01*
X105598861Y-135010410D01*
X105502728Y-134985780D01*
X105430499Y-134950720D01*
X105377233Y-134906481D01*
X105332809Y-134848955D01*
X105301653Y-134787598D01*
X105282883Y-134721470D01*
X105276482Y-134649293D01*
X105277390Y-134636653D01*
X105387857Y-134636653D01*
X105394273Y-134706151D01*
X105412167Y-134762448D01*
X105440520Y-134808253D01*
X105479723Y-134845389D01*
X105544259Y-134881441D01*
X105624386Y-134904481D01*
X105723996Y-134912800D01*
X105823599Y-134904437D01*
X105902978Y-134881364D01*
X105966255Y-134845389D01*
X106004434Y-134808389D01*
X106032189Y-134762481D01*
X106049781Y-134705763D01*
X106056106Y-134635463D01*
X106047450Y-134542972D01*
X106023289Y-134468007D01*
X105984939Y-134406943D01*
X105946590Y-134372287D01*
X105893458Y-134345483D01*
X105821407Y-134327498D01*
X105725095Y-134320756D01*
X105614261Y-134331064D01*
X105531573Y-134358835D01*
X105470367Y-134401434D01*
X105426339Y-134459279D01*
X105398187Y-134535756D01*
X105387857Y-134636653D01*
X105277390Y-134636653D01*
X105283473Y-134551989D01*
X105303268Y-134468778D01*
X105334734Y-134397326D01*
X105379859Y-134335227D01*
X105435206Y-134289968D01*
X105502346Y-134259756D01*
X105445000Y-134226346D01*
X105399170Y-134182459D01*
X105363586Y-134126949D01*
X105338585Y-134064676D01*
X105323529Y-133999182D01*
X105318431Y-133929662D01*
X105318566Y-133928013D01*
X105423028Y-133928013D01*
X105431861Y-134013974D01*
X105456522Y-134082959D01*
X105495935Y-134138673D01*
X105549675Y-134179533D01*
X105623661Y-134206145D01*
X105724546Y-134216067D01*
X105802844Y-134210124D01*
X105864628Y-134193854D01*
X105913194Y-134168824D01*
X105951051Y-134135467D01*
X105989451Y-134078034D01*
X106013354Y-134008551D01*
X106021851Y-133923800D01*
X106012155Y-133840006D01*
X105985171Y-133774379D01*
X105941708Y-133722666D01*
X105884460Y-133684853D01*
X105813629Y-133661050D01*
X105725553Y-133652507D01*
X105636157Y-133661154D01*
X105563973Y-133685288D01*
X105505368Y-133723674D01*
X105460671Y-133776273D01*
X105432971Y-133842948D01*
X105423028Y-133928013D01*
X105318566Y-133928013D01*
X105326221Y-133834795D01*
X105347895Y-133757574D01*
X105381930Y-133694592D01*
X105428249Y-133643348D01*
X105485388Y-133603023D01*
X105552623Y-133573295D01*
X105631873Y-133554492D01*
X105725553Y-133547819D01*
X105818129Y-133554499D01*
G37*
G36*
X128608208Y-136064888D02*
G01*
X128572267Y-136070654D01*
X128542686Y-136087464D01*
X128517807Y-136116637D01*
X128124995Y-136780778D01*
X127780041Y-137385814D01*
X127780041Y-136112790D01*
X127776971Y-136096060D01*
X127767677Y-136081374D01*
X127753463Y-136071296D01*
X127734887Y-136067819D01*
X127713729Y-136067819D01*
X127695248Y-136071295D01*
X127681123Y-136081374D01*
X127671757Y-136096067D01*
X127668667Y-136112790D01*
X127668667Y-137463117D01*
X127675406Y-137502027D01*
X127693671Y-137527231D01*
X127722165Y-137542287D01*
X127764013Y-137547930D01*
X127791752Y-137542947D01*
X127816543Y-137527795D01*
X127839484Y-137500303D01*
X128577250Y-136230851D01*
X128577250Y-137500028D01*
X128580589Y-137516810D01*
X128590806Y-137531536D01*
X128605537Y-137541676D01*
X128622404Y-137545000D01*
X128645577Y-137545000D01*
X128662348Y-137541639D01*
X128676260Y-137531536D01*
X128685551Y-137516837D01*
X128688625Y-137500028D01*
X128688625Y-136153823D01*
X128682872Y-136112612D01*
X128667851Y-136086393D01*
X128644048Y-136070692D01*
X128608208Y-136064888D01*
G37*
G36*
X127037238Y-136076337D02*
G01*
X127095983Y-136089857D01*
X127170686Y-136117461D01*
X127242275Y-136155645D01*
X127302028Y-136203099D01*
X127351138Y-136264241D01*
X127396458Y-136355140D01*
X127425304Y-136459507D01*
X127435659Y-136587140D01*
X127435659Y-137013130D01*
X127425671Y-137137248D01*
X127397465Y-137242016D01*
X127353103Y-137334127D01*
X127304226Y-137397172D01*
X127241925Y-137447819D01*
X127152643Y-137498563D01*
X127086760Y-137523514D01*
X127009479Y-137539370D01*
X126918719Y-137545000D01*
X126832402Y-137539098D01*
X126749442Y-137521547D01*
X126669042Y-137492243D01*
X126598996Y-137452953D01*
X126538616Y-137403491D01*
X126488652Y-137340215D01*
X126443178Y-137247237D01*
X126414283Y-137141034D01*
X126403977Y-137013130D01*
X126403977Y-136596299D01*
X126515352Y-136596299D01*
X126515352Y-137005986D01*
X126523306Y-137108200D01*
X126545577Y-137193015D01*
X126580653Y-137267524D01*
X126619308Y-137318495D01*
X126666377Y-137358431D01*
X126721157Y-137389936D01*
X126778560Y-137412971D01*
X126826212Y-137425290D01*
X126918811Y-137433625D01*
X127011409Y-137425290D01*
X127058992Y-137412979D01*
X127116464Y-137389936D01*
X127171367Y-137358490D01*
X127219321Y-137318495D01*
X127258789Y-137267428D01*
X127294151Y-137193015D01*
X127316353Y-137108205D01*
X127324284Y-137005986D01*
X127324284Y-136596299D01*
X127316332Y-136494289D01*
X127294151Y-136410369D01*
X127259009Y-136337103D01*
X127220420Y-136288004D01*
X127173291Y-136249974D01*
X127117563Y-136219677D01*
X127059360Y-136197706D01*
X127012508Y-136186521D01*
X126919910Y-136179193D01*
X126828227Y-136186521D01*
X126782258Y-136197659D01*
X126724180Y-136219677D01*
X126668452Y-136249974D01*
X126621323Y-136288004D01*
X126582527Y-136337065D01*
X126546584Y-136410369D01*
X126523583Y-136494350D01*
X126515352Y-136596299D01*
X126403977Y-136596299D01*
X126403977Y-136587140D01*
X126413992Y-136463301D01*
X126442079Y-136360452D01*
X126486351Y-136270278D01*
X126535410Y-136208319D01*
X126595040Y-136159785D01*
X126665744Y-136120667D01*
X126739772Y-136092039D01*
X126800200Y-136077344D01*
X126919726Y-136067819D01*
X127037238Y-136076337D01*
G37*
G36*
X125207889Y-136067819D02*
G01*
X125182702Y-136067819D01*
X125157224Y-136073083D01*
X125143087Y-136087220D01*
X125137822Y-136112698D01*
X125140020Y-136128360D01*
X125619500Y-137486290D01*
X125637770Y-137519057D01*
X125665043Y-137538133D01*
X125704313Y-137545000D01*
X125743481Y-137538019D01*
X125771522Y-137518371D01*
X125791141Y-137484275D01*
X126275017Y-136127994D01*
X126275017Y-136112698D01*
X126269746Y-136087229D01*
X126255584Y-136073088D01*
X126230046Y-136067819D01*
X126204858Y-136067819D01*
X126181436Y-136074683D01*
X126162360Y-136096945D01*
X125705412Y-137398820D01*
X125250571Y-136097036D01*
X125232819Y-136074917D01*
X125207889Y-136067819D01*
G37*
G36*
X124908661Y-136067819D02*
G01*
X124889244Y-136067819D01*
X124872100Y-136071166D01*
X124857096Y-136081374D01*
X124846658Y-136096108D01*
X124843265Y-136112790D01*
X124843265Y-137500028D01*
X124846663Y-137516789D01*
X124857096Y-137531536D01*
X124872093Y-137541671D01*
X124889244Y-137545000D01*
X124908661Y-137545000D01*
X124927530Y-137541540D01*
X124942001Y-137531536D01*
X124951499Y-137516880D01*
X124954640Y-137500028D01*
X124954640Y-136112790D01*
X124951503Y-136096017D01*
X124942001Y-136081374D01*
X124927586Y-136071306D01*
X124908661Y-136067819D01*
G37*
G36*
X124501997Y-136064888D02*
G01*
X124466057Y-136070654D01*
X124436475Y-136087464D01*
X124411597Y-136116637D01*
X124018784Y-136780778D01*
X123673831Y-137385814D01*
X123673831Y-136112790D01*
X123670761Y-136096060D01*
X123661466Y-136081374D01*
X123647253Y-136071296D01*
X123628676Y-136067819D01*
X123607519Y-136067819D01*
X123589037Y-136071295D01*
X123574912Y-136081374D01*
X123565546Y-136096067D01*
X123562456Y-136112790D01*
X123562456Y-137463117D01*
X123569195Y-137502027D01*
X123587460Y-137527231D01*
X123615954Y-137542287D01*
X123657802Y-137547930D01*
X123685541Y-137542947D01*
X123710332Y-137527795D01*
X123733273Y-137500303D01*
X124471039Y-136230851D01*
X124471039Y-137500028D01*
X124474378Y-137516810D01*
X124484595Y-137531536D01*
X124499326Y-137541676D01*
X124516194Y-137545000D01*
X124539366Y-137545000D01*
X124556138Y-137541639D01*
X124570049Y-137531536D01*
X124579340Y-137516837D01*
X124582414Y-137500028D01*
X124582414Y-136153823D01*
X124576661Y-136112612D01*
X124561640Y-136086393D01*
X124537837Y-136070692D01*
X124501997Y-136064888D01*
G37*
G36*
X122926722Y-136230027D02*
G01*
X122905565Y-136230027D01*
X122879762Y-136235154D01*
X122865673Y-136248729D01*
X122860502Y-136272800D01*
X122860502Y-137500120D01*
X122863603Y-137516985D01*
X122872958Y-137531627D01*
X122887068Y-137541564D01*
X122905565Y-137545000D01*
X122926722Y-137545000D01*
X122945306Y-137541542D01*
X122959512Y-137531536D01*
X122968807Y-137516850D01*
X122971877Y-137500120D01*
X122971877Y-136272800D01*
X122966700Y-136248737D01*
X122952587Y-136235159D01*
X122926722Y-136230027D01*
G37*
G36*
X123378449Y-136067819D02*
G01*
X122448159Y-136067819D01*
X122429725Y-136071379D01*
X122415644Y-136081741D01*
X122406357Y-136096706D01*
X122403279Y-136113797D01*
X122403279Y-136137520D01*
X122408381Y-136160884D01*
X122422368Y-136174152D01*
X122448159Y-136179193D01*
X123378449Y-136179193D01*
X123404179Y-136174156D01*
X123418141Y-136160893D01*
X123423237Y-136137520D01*
X123423237Y-136113797D01*
X123419936Y-136096703D01*
X123409865Y-136081649D01*
X123395195Y-136071219D01*
X123378449Y-136067819D01*
G37*
G36*
X122181446Y-136067819D02*
G01*
X122162028Y-136067819D01*
X122144884Y-136071166D01*
X122129880Y-136081374D01*
X122119443Y-136096108D01*
X122116050Y-136112790D01*
X122116050Y-137500028D01*
X122119447Y-137516789D01*
X122129880Y-137531536D01*
X122144877Y-137541671D01*
X122162028Y-137545000D01*
X122181446Y-137545000D01*
X122200315Y-137541540D01*
X122214785Y-137531536D01*
X122224283Y-137516880D01*
X122227424Y-137500028D01*
X122227424Y-136112790D01*
X122224287Y-136096017D01*
X122214785Y-136081374D01*
X122200370Y-136071306D01*
X122181446Y-136067819D01*
G37*
G36*
X121619443Y-136104180D02*
G01*
X121545758Y-136074589D01*
X121486544Y-136059759D01*
X121372605Y-136050233D01*
X121259856Y-136059759D01*
X121202164Y-136073840D01*
X121134377Y-136099967D01*
X121068943Y-136135041D01*
X121010820Y-136178278D01*
X120960558Y-136232789D01*
X120913551Y-136309528D01*
X120879804Y-136397680D01*
X120860794Y-136503151D01*
X120866258Y-136531637D01*
X120880539Y-136546967D01*
X120905491Y-136552519D01*
X120924450Y-136552519D01*
X120947677Y-136547842D01*
X120961907Y-136535016D01*
X120969146Y-136512127D01*
X120985757Y-136427986D01*
X121012835Y-136357613D01*
X121050083Y-136296835D01*
X121089680Y-136255489D01*
X121135853Y-136223502D01*
X121189240Y-136197145D01*
X121271840Y-136169978D01*
X121344212Y-136161608D01*
X121462731Y-136170034D01*
X121510229Y-136182361D01*
X121567694Y-136205480D01*
X121622359Y-136237129D01*
X121669360Y-136277379D01*
X121707870Y-136328554D01*
X121742999Y-136403592D01*
X121765202Y-136488866D01*
X121773133Y-136591628D01*
X121773133Y-137003513D01*
X121764411Y-137106185D01*
X121739885Y-137191641D01*
X121701602Y-137266408D01*
X121659835Y-137317854D01*
X121609456Y-137357953D01*
X121550566Y-137389753D01*
X121450955Y-137423266D01*
X121362896Y-137433625D01*
X121278691Y-137429368D01*
X121213878Y-137417963D01*
X121153658Y-137396679D01*
X121091970Y-137362550D01*
X121038578Y-137316662D01*
X120998865Y-137254124D01*
X120972900Y-137170716D01*
X120963285Y-137060300D01*
X120959539Y-137027149D01*
X120951103Y-137011939D01*
X120937388Y-137003546D01*
X120919229Y-137000582D01*
X120902743Y-137000582D01*
X120877836Y-137005825D01*
X120863909Y-137019998D01*
X120858688Y-137045737D01*
X120863583Y-137131267D01*
X120877555Y-137206516D01*
X120899812Y-137272882D01*
X120946651Y-137362100D01*
X120995983Y-137420710D01*
X121055205Y-137465324D01*
X121124943Y-137500486D01*
X121236371Y-137534895D01*
X121324245Y-137545000D01*
X121406757Y-137542153D01*
X121471890Y-137534467D01*
X121535055Y-137518407D01*
X121611108Y-137487847D01*
X121683826Y-137446745D01*
X121746205Y-137396714D01*
X121797934Y-137333233D01*
X121844482Y-137241009D01*
X121874059Y-137135782D01*
X121884508Y-137011390D01*
X121884508Y-136583843D01*
X121874250Y-136455559D01*
X121845490Y-136349003D01*
X121800126Y-136255862D01*
X121750418Y-136193299D01*
X121690058Y-136144264D01*
X121619443Y-136104180D01*
G37*
D11*
%TO.C,G\u002A\u002A\u002A*%
G36*
X90673764Y-135220209D02*
G01*
X90726108Y-135227118D01*
X90740303Y-135245143D01*
X90743401Y-135273165D01*
X90761330Y-135317441D01*
X90775729Y-135358019D01*
X90778299Y-135412516D01*
X90775502Y-135443661D01*
X90782142Y-135460312D01*
X90787160Y-135462448D01*
X90797011Y-135490341D01*
X90799279Y-135540618D01*
X90794019Y-135600623D01*
X90781286Y-135657699D01*
X90778035Y-135667897D01*
X90761555Y-135720896D01*
X90751426Y-135755545D01*
X90744784Y-135767807D01*
X90713906Y-135779945D01*
X90675106Y-135771387D01*
X90645474Y-135743994D01*
X90632823Y-135713538D01*
X90619263Y-135658927D01*
X90612410Y-135624750D01*
X90599545Y-135589636D01*
X90595405Y-135573169D01*
X90589968Y-135524215D01*
X90585338Y-135455320D01*
X90582103Y-135378100D01*
X90580848Y-135304169D01*
X90582159Y-135245143D01*
X90582729Y-135242124D01*
X90607587Y-135225938D01*
X90664499Y-135220123D01*
X90673764Y-135220209D01*
G37*
G36*
X89605852Y-135122257D02*
G01*
X89635527Y-135148670D01*
X89655660Y-135190729D01*
X89656286Y-135230402D01*
X89653579Y-135243225D01*
X89664234Y-135263865D01*
X89670024Y-135270892D01*
X89679026Y-135312698D01*
X89684492Y-135387898D01*
X89686301Y-135492161D01*
X89684332Y-135621158D01*
X89678462Y-135770556D01*
X89674570Y-135846763D01*
X89670445Y-135922552D01*
X89667287Y-135974979D01*
X89665571Y-135995734D01*
X89660811Y-135997232D01*
X89627407Y-135999745D01*
X89572995Y-136000738D01*
X89534852Y-135999452D01*
X89489930Y-135989115D01*
X89469454Y-135965710D01*
X89461100Y-135946142D01*
X89444996Y-135920675D01*
X89435997Y-135904488D01*
X89417668Y-135859195D01*
X89395752Y-135796941D01*
X89370591Y-135680580D01*
X89366645Y-135553218D01*
X89384180Y-135432248D01*
X89422385Y-135331848D01*
X89470907Y-135252517D01*
X89521232Y-135183237D01*
X89564456Y-135136921D01*
X89595293Y-135120044D01*
X89605852Y-135122257D01*
G37*
G36*
X92041099Y-138444846D02*
G01*
X92021390Y-138462676D01*
X92013111Y-138466084D01*
X91982088Y-138491041D01*
X91941313Y-138532270D01*
X91922508Y-138551830D01*
X91876430Y-138592171D01*
X91840828Y-138613682D01*
X91820192Y-138625085D01*
X91803622Y-138654175D01*
X91786934Y-138675607D01*
X91734326Y-138682849D01*
X91711819Y-138681513D01*
X91658940Y-138659688D01*
X91628996Y-138608652D01*
X91619662Y-138525208D01*
X91619611Y-138517010D01*
X91615045Y-138446905D01*
X91607129Y-138390935D01*
X91734594Y-138390935D01*
X91735991Y-138411597D01*
X91742447Y-138426147D01*
X91757195Y-138442012D01*
X91763622Y-138423826D01*
X91762912Y-138418389D01*
X91743852Y-138392763D01*
X91734594Y-138390935D01*
X91607129Y-138390935D01*
X91604682Y-138373633D01*
X91590751Y-138307962D01*
X91575483Y-138260662D01*
X91561109Y-138242503D01*
X91555011Y-138237475D01*
X91547643Y-138203547D01*
X91547527Y-138147428D01*
X91553622Y-138052353D01*
X91750671Y-138046600D01*
X91768117Y-138046137D01*
X91873324Y-138046277D01*
X91942261Y-138052761D01*
X91977804Y-138065834D01*
X92002857Y-138084032D01*
X92050756Y-138112079D01*
X92051213Y-138112308D01*
X92085144Y-138146344D01*
X92099890Y-138208948D01*
X92100323Y-138216742D01*
X92095877Y-138273306D01*
X92082052Y-138338171D01*
X92062556Y-138399348D01*
X92051012Y-138423826D01*
X92041099Y-138444846D01*
G37*
G36*
X86845480Y-136649103D02*
G01*
X86873103Y-136660417D01*
X86890758Y-136669352D01*
X86937576Y-136659753D01*
X86938481Y-136659411D01*
X86976587Y-136651109D01*
X87012845Y-136662360D01*
X87062158Y-136697705D01*
X87081469Y-136712581D01*
X87135088Y-136748428D01*
X87176683Y-136769140D01*
X87177802Y-136769506D01*
X87222568Y-136793181D01*
X87270496Y-136830245D01*
X87324225Y-136867578D01*
X87382726Y-136891242D01*
X87407083Y-136897799D01*
X87436506Y-136919243D01*
X87443622Y-136962090D01*
X87452061Y-137005873D01*
X87475092Y-137037177D01*
X87494704Y-137052255D01*
X87536872Y-137108448D01*
X87584983Y-137201683D01*
X87603638Y-137241292D01*
X87626898Y-137288278D01*
X87632451Y-137301701D01*
X87646300Y-137354132D01*
X87656996Y-137418858D01*
X87659222Y-137439151D01*
X87659782Y-137493461D01*
X87643914Y-137533890D01*
X87605287Y-137580200D01*
X87573013Y-137611494D01*
X87520101Y-137642242D01*
X87450043Y-137654443D01*
X87422047Y-137657042D01*
X87371217Y-137664813D01*
X87345668Y-137673343D01*
X87344953Y-137674017D01*
X87334152Y-137678686D01*
X87311543Y-137679469D01*
X87270202Y-137675772D01*
X87203203Y-137667001D01*
X87103622Y-137652560D01*
X87081708Y-137648438D01*
X87017845Y-137627628D01*
X86972333Y-137600610D01*
X86947179Y-137582867D01*
X86895195Y-137564994D01*
X86845315Y-137564087D01*
X86813596Y-137582026D01*
X86799100Y-137589479D01*
X86755982Y-137592179D01*
X86700550Y-137586895D01*
X86648274Y-137575385D01*
X86614622Y-137559408D01*
X86605936Y-137553178D01*
X86566827Y-137541951D01*
X86566268Y-137541947D01*
X86527322Y-137523706D01*
X86496929Y-137479026D01*
X86484259Y-137421306D01*
X86476452Y-137378505D01*
X86451530Y-137324862D01*
X86431247Y-137300651D01*
X86405629Y-137288235D01*
X86363766Y-137286303D01*
X86293982Y-137292454D01*
X86266375Y-137295192D01*
X86199142Y-137297772D01*
X86152164Y-137289595D01*
X86111082Y-137268803D01*
X86081740Y-137249593D01*
X86027814Y-137209378D01*
X85998374Y-137172389D01*
X85986088Y-137126616D01*
X85983622Y-137060047D01*
X85991249Y-136977772D01*
X86020111Y-136909758D01*
X86076374Y-136853907D01*
X86166168Y-136801539D01*
X86189149Y-136790135D01*
X86257573Y-136755482D01*
X86313622Y-136726216D01*
X86360169Y-136707618D01*
X86434475Y-136688066D01*
X86523312Y-136671035D01*
X86617756Y-136657573D01*
X86708882Y-136648731D01*
X86787765Y-136645558D01*
X86845480Y-136649103D01*
G37*
G36*
X87509298Y-134227131D02*
G01*
X87499415Y-134249359D01*
X87485818Y-134279942D01*
X87482423Y-134290249D01*
X87452114Y-134350709D01*
X87414242Y-134395413D01*
X87405563Y-134402960D01*
X87383469Y-134429500D01*
X87364789Y-134451940D01*
X87330047Y-134511577D01*
X87325030Y-134521989D01*
X87284613Y-134588581D01*
X87265688Y-134611897D01*
X87238946Y-134644844D01*
X87229678Y-134654501D01*
X87196879Y-134696947D01*
X87183622Y-134728776D01*
X87176951Y-134750466D01*
X87148315Y-134783645D01*
X87148160Y-134783760D01*
X87107901Y-134830932D01*
X87076369Y-134896982D01*
X87063622Y-134960860D01*
X87060000Y-134983227D01*
X87043622Y-134999950D01*
X87037279Y-135001133D01*
X87023622Y-135022763D01*
X87016864Y-135041332D01*
X86988622Y-135072165D01*
X86956943Y-135093575D01*
X86931270Y-135093737D01*
X86900025Y-135065001D01*
X86899179Y-135064091D01*
X86860762Y-135025391D01*
X86814442Y-134981740D01*
X86768274Y-134930427D01*
X86729410Y-134871653D01*
X86727663Y-134868304D01*
X86699179Y-134820641D01*
X86674653Y-134789784D01*
X86660100Y-134767428D01*
X86637438Y-134716037D01*
X86614070Y-134649674D01*
X86604170Y-134619650D01*
X86903622Y-134619650D01*
X86903852Y-134624180D01*
X86912442Y-134639666D01*
X86915650Y-134638745D01*
X86933622Y-134619650D01*
X86936748Y-134611897D01*
X86924803Y-134599634D01*
X86918998Y-134600404D01*
X86903622Y-134619650D01*
X86604170Y-134619650D01*
X86595225Y-134592522D01*
X86575298Y-134538201D01*
X86562157Y-134509563D01*
X86554818Y-134477340D01*
X86555152Y-134429500D01*
X86843622Y-134429500D01*
X86853622Y-134439508D01*
X86863622Y-134429500D01*
X86853622Y-134419493D01*
X86843622Y-134429500D01*
X86555152Y-134429500D01*
X86555235Y-134417562D01*
X86562346Y-134343564D01*
X86574512Y-134267918D01*
X86578980Y-134249359D01*
X87203622Y-134249359D01*
X87213622Y-134259366D01*
X87223622Y-134249359D01*
X87213622Y-134239351D01*
X87203622Y-134249359D01*
X86578980Y-134249359D01*
X86586209Y-134219335D01*
X86813622Y-134219335D01*
X86817727Y-134225325D01*
X86834803Y-134239351D01*
X86836799Y-134238830D01*
X86843622Y-134219335D01*
X86842809Y-134213849D01*
X86822442Y-134199319D01*
X86815208Y-134200891D01*
X86813622Y-134219335D01*
X86586209Y-134219335D01*
X86590094Y-134203201D01*
X86607454Y-134161986D01*
X86644826Y-134120629D01*
X86721130Y-134061553D01*
X86815928Y-134005496D01*
X86917374Y-133959238D01*
X87013622Y-133929558D01*
X87053912Y-133923264D01*
X87131599Y-133916606D01*
X87224040Y-133912589D01*
X87320309Y-133911312D01*
X87409480Y-133912876D01*
X87480627Y-133917380D01*
X87522823Y-133924923D01*
X87565906Y-133949970D01*
X87610525Y-133992803D01*
X87617398Y-134002046D01*
X87635292Y-134033671D01*
X87633785Y-134064541D01*
X87613296Y-134112763D01*
X87607041Y-134125012D01*
X87575094Y-134170345D01*
X87544213Y-134193365D01*
X87538009Y-134195927D01*
X87516471Y-134219335D01*
X87509298Y-134227131D01*
G37*
G36*
X89458982Y-137867478D02*
G01*
X89571689Y-137870284D01*
X89608668Y-137871360D01*
X89705873Y-137874341D01*
X89785204Y-137876994D01*
X89839290Y-137879064D01*
X89860762Y-137880297D01*
X89862774Y-137885119D01*
X89856390Y-137912243D01*
X89853316Y-137927615D01*
X89864745Y-137942266D01*
X89883529Y-137955616D01*
X89905475Y-137994503D01*
X89921641Y-138043630D01*
X89925492Y-138087381D01*
X89926856Y-138106301D01*
X89944505Y-138122408D01*
X89955868Y-138127850D01*
X89954764Y-138156672D01*
X89953124Y-138161641D01*
X89943616Y-138204317D01*
X89932001Y-138271779D01*
X89920424Y-138351826D01*
X89917791Y-138370611D01*
X89903538Y-138448345D01*
X89887063Y-138510249D01*
X89871423Y-138544315D01*
X89856206Y-138568748D01*
X89843622Y-138619374D01*
X89839427Y-138645929D01*
X89823622Y-138662834D01*
X89812126Y-138670034D01*
X89803622Y-138702192D01*
X89793428Y-138734146D01*
X89759438Y-138787617D01*
X89709132Y-138850108D01*
X89650367Y-138913263D01*
X89591003Y-138968721D01*
X89538896Y-139008125D01*
X89501906Y-139023117D01*
X89477941Y-139029493D01*
X89463622Y-139063149D01*
X89453410Y-139093314D01*
X89414803Y-139103180D01*
X89381035Y-139108070D01*
X89352546Y-139124940D01*
X89336731Y-139135680D01*
X89298132Y-139135975D01*
X89265399Y-139134328D01*
X89215389Y-139149157D01*
X89203420Y-139154747D01*
X89149006Y-139169395D01*
X89083622Y-139177315D01*
X89030400Y-139180067D01*
X88940936Y-139186828D01*
X88878773Y-139195998D01*
X88835238Y-139209130D01*
X88801658Y-139227774D01*
X88754751Y-139254030D01*
X88717897Y-139261516D01*
X88703622Y-139246044D01*
X88702027Y-139243232D01*
X88675575Y-139236484D01*
X88627148Y-139234168D01*
X88570513Y-139235982D01*
X88519434Y-139241624D01*
X88487677Y-139250791D01*
X88458366Y-139253662D01*
X88411470Y-139244438D01*
X88372080Y-139231267D01*
X88274386Y-139182521D01*
X88209965Y-139117244D01*
X88174487Y-139029664D01*
X88163622Y-138914011D01*
X88166060Y-138848247D01*
X88187993Y-138721315D01*
X88235952Y-138596727D01*
X88313867Y-138462676D01*
X88320009Y-138453271D01*
X88361517Y-138384137D01*
X88392514Y-138323139D01*
X88406683Y-138282534D01*
X88406916Y-138280913D01*
X88424549Y-138241665D01*
X88468622Y-138226161D01*
X88506002Y-138214624D01*
X88523622Y-138191134D01*
X88531480Y-138174223D01*
X88564250Y-138162440D01*
X88589219Y-138157295D01*
X88616036Y-138133338D01*
X88617515Y-138129897D01*
X88653516Y-138091083D01*
X88719581Y-138052653D01*
X88806751Y-138018205D01*
X88906068Y-137991338D01*
X89008571Y-137975651D01*
X89020033Y-137974503D01*
X89069798Y-137966034D01*
X89096905Y-137955661D01*
X89113068Y-137947814D01*
X89153896Y-137942266D01*
X89195976Y-137931499D01*
X89243629Y-137902229D01*
X89263305Y-137887349D01*
X89288400Y-137876310D01*
X89324561Y-137869788D01*
X89379014Y-137867079D01*
X89458982Y-137867478D01*
G37*
G36*
X88981683Y-133298981D02*
G01*
X89022653Y-133326769D01*
X89055062Y-133338641D01*
X89059423Y-133338862D01*
X89100639Y-133351824D01*
X89148053Y-133378144D01*
X89187170Y-133408535D01*
X89203496Y-133433716D01*
X89218665Y-133451061D01*
X89258622Y-133459373D01*
X89267987Y-133459669D01*
X89304365Y-133468744D01*
X89332725Y-133475819D01*
X89369182Y-133513063D01*
X89372369Y-133566695D01*
X89365443Y-133589416D01*
X89352120Y-133606095D01*
X89324820Y-133614875D01*
X89274870Y-133618287D01*
X89193594Y-133618862D01*
X89185687Y-133618868D01*
X89104595Y-133620370D01*
X89054525Y-133625629D01*
X89027197Y-133636263D01*
X89014334Y-133653890D01*
X89007619Y-133669743D01*
X88995269Y-133677131D01*
X88973525Y-133651885D01*
X88951389Y-133631736D01*
X88923772Y-133628778D01*
X88911153Y-133633241D01*
X88864663Y-133639725D01*
X88802441Y-133641936D01*
X88767492Y-133642882D01*
X88721594Y-133649300D01*
X88703622Y-133659896D01*
X88701226Y-133664297D01*
X88672557Y-133673343D01*
X88621872Y-133675415D01*
X88614229Y-133675203D01*
X88555338Y-133681003D01*
X88523709Y-133698785D01*
X88510422Y-133712627D01*
X88470460Y-133728841D01*
X88375822Y-133738660D01*
X88302802Y-133748965D01*
X88283294Y-133751718D01*
X88217662Y-133766855D01*
X88171543Y-133785886D01*
X88137556Y-133810622D01*
X88131691Y-133815959D01*
X88092618Y-133846561D01*
X88066635Y-133859051D01*
X88056013Y-133863003D01*
X88035966Y-133890180D01*
X88025970Y-133904255D01*
X87992340Y-133915428D01*
X87928826Y-133915200D01*
X87884573Y-133911745D01*
X87848612Y-133902619D01*
X87833373Y-133880696D01*
X87827611Y-133837322D01*
X87829668Y-133783837D01*
X87847835Y-133748965D01*
X88003622Y-133748965D01*
X88013622Y-133758972D01*
X88023622Y-133748965D01*
X88013622Y-133738957D01*
X88003622Y-133748965D01*
X87847835Y-133748965D01*
X87852611Y-133739797D01*
X87869196Y-133720539D01*
X87883622Y-133678909D01*
X87888012Y-133657026D01*
X87913622Y-133618862D01*
X87929289Y-133600972D01*
X87943622Y-133561024D01*
X87943899Y-133558513D01*
X87960973Y-133527161D01*
X87999029Y-133478582D01*
X88007769Y-133468744D01*
X88343622Y-133468744D01*
X88353622Y-133478752D01*
X88363622Y-133468744D01*
X88353622Y-133458736D01*
X88343622Y-133468744D01*
X88007769Y-133468744D01*
X88050353Y-133420813D01*
X88107227Y-133361891D01*
X88161935Y-133309853D01*
X88206762Y-133272737D01*
X88214745Y-133268586D01*
X88683622Y-133268586D01*
X88693622Y-133278594D01*
X88703622Y-133268586D01*
X88693622Y-133258578D01*
X88683622Y-133268586D01*
X88214745Y-133268586D01*
X88233992Y-133258578D01*
X88244032Y-133257202D01*
X88266956Y-133238655D01*
X88273340Y-133231747D01*
X88308466Y-133211596D01*
X88362947Y-133187160D01*
X88424222Y-133163474D01*
X88479731Y-133145570D01*
X88516912Y-133138484D01*
X88532229Y-133141794D01*
X88567194Y-133163504D01*
X88601348Y-133181360D01*
X88653622Y-133191566D01*
X88667460Y-133192395D01*
X88743573Y-133200489D01*
X88818438Y-133213153D01*
X88879174Y-133227876D01*
X88912900Y-133242143D01*
X88940691Y-133265130D01*
X88944876Y-133268586D01*
X88981683Y-133298981D01*
G37*
G36*
X86912361Y-135233029D02*
G01*
X86919892Y-135240592D01*
X86929980Y-135258973D01*
X86940372Y-135277907D01*
X86940853Y-135310809D01*
X86930372Y-135337954D01*
X86922091Y-135348239D01*
X86921003Y-135350225D01*
X86910035Y-135370241D01*
X86900026Y-135388507D01*
X86899208Y-135390257D01*
X86891852Y-135406002D01*
X86880504Y-135430288D01*
X86873205Y-135445910D01*
X86847291Y-135507396D01*
X86846203Y-135510351D01*
X86827947Y-135559915D01*
X86820835Y-135590414D01*
X86822351Y-135600422D01*
X86823362Y-135607094D01*
X86825025Y-135618067D01*
X86831944Y-135650462D01*
X86835150Y-135665474D01*
X86836242Y-135670478D01*
X86837880Y-135677979D01*
X86837755Y-135711456D01*
X86816335Y-135720517D01*
X86814930Y-135720532D01*
X86797096Y-135725888D01*
X86783353Y-135746457D01*
X86770238Y-135790345D01*
X86770190Y-135790572D01*
X86765950Y-135810588D01*
X86754283Y-135865659D01*
X86754091Y-135870635D01*
X86753589Y-135883626D01*
X86761066Y-135887315D01*
X86765488Y-135889497D01*
X86777971Y-135885086D01*
X86781862Y-135899115D01*
X86774437Y-135927346D01*
X86771123Y-135939947D01*
X86755669Y-135982751D01*
X86744939Y-136012470D01*
X86732938Y-136048644D01*
X86727721Y-136070793D01*
X86715934Y-136120832D01*
X86711391Y-136140121D01*
X86700065Y-136227639D01*
X86696319Y-136275986D01*
X86694175Y-136290966D01*
X86689607Y-136322875D01*
X86682442Y-136341006D01*
X86679615Y-136342321D01*
X86661597Y-136366351D01*
X86637650Y-136411061D01*
X86617180Y-136448203D01*
X86586273Y-136474801D01*
X86538946Y-136481411D01*
X86480789Y-136489203D01*
X86423622Y-136509708D01*
X86418404Y-136512561D01*
X86363126Y-136532286D01*
X86327468Y-136524740D01*
X86317138Y-136490930D01*
X86317308Y-136486618D01*
X86308588Y-136445712D01*
X86287939Y-136397675D01*
X86263027Y-136357706D01*
X86241518Y-136341006D01*
X86235717Y-136336110D01*
X86219526Y-136303421D01*
X86215249Y-136290966D01*
X86283622Y-136290966D01*
X86293622Y-136300974D01*
X86303622Y-136290966D01*
X86293622Y-136280958D01*
X86283622Y-136290966D01*
X86215249Y-136290966D01*
X86201236Y-136250162D01*
X86191999Y-136221864D01*
X86164623Y-136170303D01*
X86129028Y-136147913D01*
X86115792Y-136142936D01*
X86088702Y-136114694D01*
X86088267Y-136110422D01*
X86267896Y-136110422D01*
X86270289Y-136134176D01*
X86276305Y-136137307D01*
X86283622Y-136120832D01*
X86282179Y-136110236D01*
X86270289Y-136107488D01*
X86267896Y-136110422D01*
X86088267Y-136110422D01*
X86085131Y-136079623D01*
X86093234Y-136070793D01*
X86323622Y-136070793D01*
X86333622Y-136080801D01*
X86343622Y-136070793D01*
X86333622Y-136060785D01*
X86323622Y-136070793D01*
X86093234Y-136070793D01*
X86108622Y-136054025D01*
X86116731Y-136047501D01*
X86096956Y-136042349D01*
X86077668Y-136037085D01*
X86069410Y-136015749D01*
X86069448Y-136015646D01*
X86068811Y-136012289D01*
X86207728Y-136012289D01*
X86207877Y-136043536D01*
X86216626Y-136058611D01*
X86231964Y-136043456D01*
X86235697Y-136031291D01*
X86347485Y-136031291D01*
X86356493Y-136031115D01*
X86372337Y-136006605D01*
X86373760Y-136002807D01*
X86377957Y-135982751D01*
X86361141Y-135995400D01*
X86349728Y-136010117D01*
X86348542Y-136021311D01*
X86347485Y-136031291D01*
X86235697Y-136031291D01*
X86238760Y-136021311D01*
X86230774Y-136001495D01*
X86211539Y-136006159D01*
X86207728Y-136012289D01*
X86068811Y-136012289D01*
X86063533Y-135984489D01*
X86036746Y-135944795D01*
X86028330Y-135935179D01*
X86025582Y-135930280D01*
X86127896Y-135930280D01*
X86130289Y-135954034D01*
X86136305Y-135957166D01*
X86143622Y-135940690D01*
X86142625Y-135933367D01*
X86347160Y-135933367D01*
X86363622Y-135940690D01*
X86374210Y-135939246D01*
X86376956Y-135927346D01*
X86374024Y-135924951D01*
X86350289Y-135927346D01*
X86347160Y-135933367D01*
X86142625Y-135933367D01*
X86142179Y-135930094D01*
X86130289Y-135927346D01*
X86127896Y-135930280D01*
X86025582Y-135930280D01*
X86007487Y-135898015D01*
X86008724Y-135893335D01*
X86147160Y-135893335D01*
X86163622Y-135900659D01*
X86174210Y-135899214D01*
X86176956Y-135887315D01*
X86174024Y-135884919D01*
X86150289Y-135887315D01*
X86147160Y-135893335D01*
X86008724Y-135893335D01*
X86014727Y-135870635D01*
X86603622Y-135870635D01*
X86613622Y-135880643D01*
X86623622Y-135870635D01*
X86613622Y-135860627D01*
X86603622Y-135870635D01*
X86014727Y-135870635D01*
X86016155Y-135865234D01*
X86020923Y-135854996D01*
X86026171Y-135804754D01*
X86018200Y-135748354D01*
X86106765Y-135748354D01*
X86111539Y-135775143D01*
X86118366Y-135774833D01*
X86121266Y-135754363D01*
X86223929Y-135754363D01*
X86226643Y-135766353D01*
X86243622Y-135800580D01*
X86246253Y-135804608D01*
X86260080Y-135819157D01*
X86261147Y-135811769D01*
X86323622Y-135811769D01*
X86324142Y-135813767D01*
X86343622Y-135820596D01*
X86349104Y-135819781D01*
X86355652Y-135810588D01*
X86423622Y-135810588D01*
X86433622Y-135820596D01*
X86443622Y-135810588D01*
X86433622Y-135800580D01*
X86423622Y-135810588D01*
X86355652Y-135810588D01*
X86363622Y-135799399D01*
X86362052Y-135792159D01*
X86343622Y-135790572D01*
X86563622Y-135790572D01*
X86572442Y-135799399D01*
X86573622Y-135800580D01*
X86583622Y-135790572D01*
X86573622Y-135780564D01*
X86563622Y-135790572D01*
X86343622Y-135790572D01*
X86337637Y-135794680D01*
X86335934Y-135796757D01*
X86323622Y-135811769D01*
X86261147Y-135811769D01*
X86263316Y-135796757D01*
X86261025Y-135779105D01*
X86243622Y-135750541D01*
X86236172Y-135747098D01*
X86233181Y-135748873D01*
X86223929Y-135754363D01*
X86121266Y-135754363D01*
X86122044Y-135748873D01*
X86118841Y-135729198D01*
X86109960Y-135736780D01*
X86106765Y-135748354D01*
X86018200Y-135748354D01*
X86017477Y-135743235D01*
X85998382Y-135687498D01*
X85984955Y-135670478D01*
X86223622Y-135670478D01*
X86233622Y-135680485D01*
X86243622Y-135670478D01*
X86233622Y-135660470D01*
X86223622Y-135670478D01*
X85984955Y-135670478D01*
X85972427Y-135654597D01*
X85967556Y-135650462D01*
X86363622Y-135650462D01*
X86373622Y-135660470D01*
X86383622Y-135650462D01*
X86373622Y-135640454D01*
X86363622Y-135650462D01*
X85967556Y-135650462D01*
X85950320Y-135635830D01*
X85946830Y-135611471D01*
X85973622Y-135600422D01*
X85992850Y-135591095D01*
X85993039Y-135590414D01*
X86203622Y-135590414D01*
X86213622Y-135600422D01*
X86223622Y-135590414D01*
X86223220Y-135590012D01*
X86387896Y-135590012D01*
X86387936Y-135590414D01*
X86390289Y-135613766D01*
X86396305Y-135616898D01*
X86397985Y-135613115D01*
X86467160Y-135613115D01*
X86483622Y-135620438D01*
X86494210Y-135618994D01*
X86496956Y-135607094D01*
X86494024Y-135604699D01*
X86470289Y-135607094D01*
X86467160Y-135613115D01*
X86397985Y-135613115D01*
X86403622Y-135600422D01*
X86402179Y-135589826D01*
X86390289Y-135587079D01*
X86387896Y-135590012D01*
X86223220Y-135590012D01*
X86213622Y-135580407D01*
X86203622Y-135590414D01*
X85993039Y-135590414D01*
X86003622Y-135552257D01*
X86003448Y-135543431D01*
X85993989Y-135514638D01*
X85963622Y-135514560D01*
X85935024Y-135511423D01*
X85934503Y-135510351D01*
X86383622Y-135510351D01*
X86393622Y-135520359D01*
X86403622Y-135510351D01*
X86393622Y-135500344D01*
X86383622Y-135510351D01*
X85934503Y-135510351D01*
X85922716Y-135486116D01*
X85930968Y-135450212D01*
X85948560Y-135429886D01*
X86027896Y-135429886D01*
X86030289Y-135453640D01*
X86036305Y-135456772D01*
X86043622Y-135440296D01*
X86042420Y-135431470D01*
X86563622Y-135431470D01*
X86563817Y-135434268D01*
X86575394Y-135438676D01*
X86583255Y-135430288D01*
X86743622Y-135430288D01*
X86753622Y-135440296D01*
X86763622Y-135430288D01*
X86753622Y-135420281D01*
X86743622Y-135430288D01*
X86583255Y-135430288D01*
X86595532Y-135417188D01*
X86600399Y-135406002D01*
X86586713Y-135408361D01*
X86577828Y-135414540D01*
X86563622Y-135431470D01*
X86042420Y-135431470D01*
X86042179Y-135429700D01*
X86030289Y-135426952D01*
X86027896Y-135429886D01*
X85948560Y-135429886D01*
X85960221Y-135416412D01*
X85987786Y-135390257D01*
X86083622Y-135390257D01*
X86093622Y-135400265D01*
X86103622Y-135390257D01*
X86343622Y-135390257D01*
X86353622Y-135400265D01*
X86363622Y-135390257D01*
X86353622Y-135380249D01*
X86343622Y-135390257D01*
X86103622Y-135390257D01*
X86093622Y-135380249D01*
X86083622Y-135390257D01*
X85987786Y-135390257D01*
X85995578Y-135382864D01*
X86005364Y-135370241D01*
X86263622Y-135370241D01*
X86273622Y-135380249D01*
X86283622Y-135370241D01*
X86273622Y-135360233D01*
X86263622Y-135370241D01*
X86005364Y-135370241D01*
X86020881Y-135350225D01*
X86103622Y-135350225D01*
X86113622Y-135360233D01*
X86123622Y-135350225D01*
X86113622Y-135340217D01*
X86103622Y-135350225D01*
X86020881Y-135350225D01*
X86032532Y-135335197D01*
X86051213Y-135310194D01*
X86163622Y-135310194D01*
X86164491Y-135323873D01*
X86171483Y-135340217D01*
X86176659Y-135336530D01*
X86190855Y-135310194D01*
X86193999Y-135294842D01*
X86184290Y-135281897D01*
X86258279Y-135281897D01*
X86259336Y-135285954D01*
X86262085Y-135294842D01*
X86268019Y-135314027D01*
X86277231Y-135310311D01*
X86286104Y-135292015D01*
X86369475Y-135292015D01*
X86390522Y-135307157D01*
X86419622Y-135296183D01*
X86431103Y-135282729D01*
X86435758Y-135272847D01*
X86527160Y-135272847D01*
X86543622Y-135280170D01*
X86554210Y-135278726D01*
X86555913Y-135271344D01*
X86723622Y-135271344D01*
X86724142Y-135273341D01*
X86743622Y-135280170D01*
X86749104Y-135279356D01*
X86763622Y-135258973D01*
X86762052Y-135251734D01*
X86743622Y-135250147D01*
X86737637Y-135254255D01*
X86736082Y-135256151D01*
X86727327Y-135266826D01*
X86723622Y-135271344D01*
X86555913Y-135271344D01*
X86556956Y-135266826D01*
X86554024Y-135264431D01*
X86530289Y-135266826D01*
X86527160Y-135272847D01*
X86435758Y-135272847D01*
X86443622Y-135256151D01*
X86443562Y-135254807D01*
X86427613Y-135241251D01*
X86397257Y-135244155D01*
X86372545Y-135261898D01*
X86372310Y-135262284D01*
X86369475Y-135292015D01*
X86286104Y-135292015D01*
X86295468Y-135272706D01*
X86303935Y-135253146D01*
X86305598Y-135233029D01*
X86282791Y-135234557D01*
X86263052Y-135245887D01*
X86258279Y-135281897D01*
X86184290Y-135281897D01*
X86182995Y-135280170D01*
X86174089Y-135283552D01*
X86163622Y-135310194D01*
X86051213Y-135310194D01*
X86054297Y-135306067D01*
X86092454Y-135271251D01*
X86149231Y-135235606D01*
X86199345Y-135210115D01*
X86643622Y-135210115D01*
X86653622Y-135220123D01*
X86663622Y-135210115D01*
X86653622Y-135200107D01*
X86643622Y-135210115D01*
X86199345Y-135210115D01*
X86234029Y-135192473D01*
X86285802Y-135161306D01*
X86330142Y-135123893D01*
X86331835Y-135122044D01*
X86355473Y-135102658D01*
X86387747Y-135092480D01*
X86439040Y-135089820D01*
X86519736Y-135092983D01*
X86531354Y-135093626D01*
X86609023Y-135097729D01*
X86672240Y-135100746D01*
X86708264Y-135102065D01*
X86711027Y-135102182D01*
X86758673Y-135117269D01*
X86817236Y-135151329D01*
X86874911Y-135195418D01*
X86889545Y-135210115D01*
X86912361Y-135233029D01*
G37*
G36*
X90416390Y-134029185D02*
G01*
X90424887Y-134043064D01*
X90455762Y-134059209D01*
X90468712Y-134062672D01*
X90483622Y-134089232D01*
X90495988Y-134110305D01*
X90543622Y-134119256D01*
X90593680Y-134129122D01*
X90641648Y-134157312D01*
X90674834Y-134183987D01*
X90685085Y-134189311D01*
X90723623Y-134209327D01*
X90736399Y-134214119D01*
X90760825Y-134229343D01*
X90787246Y-134245810D01*
X90787450Y-134246023D01*
X90809780Y-134269374D01*
X90827348Y-134287745D01*
X90843623Y-134327087D01*
X90845659Y-134335959D01*
X90875108Y-134362204D01*
X90894508Y-134369453D01*
X90932473Y-134383639D01*
X91008622Y-134396428D01*
X91027056Y-134402242D01*
X91043622Y-134427359D01*
X91038168Y-134444394D01*
X91008622Y-134468934D01*
X90992026Y-134477969D01*
X90996284Y-134491705D01*
X91033622Y-134513939D01*
X91035709Y-134515039D01*
X91081562Y-134544711D01*
X91109616Y-134572443D01*
X91119600Y-134584189D01*
X91156756Y-134599634D01*
X91172237Y-134603524D01*
X91177025Y-134628002D01*
X91175345Y-134642917D01*
X91194885Y-134667405D01*
X91211784Y-134682163D01*
X91223623Y-134721405D01*
X91226634Y-134736610D01*
X91251612Y-134781371D01*
X91293623Y-134828537D01*
X91317770Y-134851998D01*
X91354405Y-134898048D01*
X91362264Y-134928742D01*
X91339622Y-134939902D01*
X91325708Y-134944088D01*
X91339622Y-134963921D01*
X91351180Y-134980048D01*
X91363623Y-135024597D01*
X91368103Y-135045426D01*
X91393977Y-135072910D01*
X91408217Y-135081321D01*
X91421607Y-135107310D01*
X91424781Y-135176060D01*
X91458316Y-135231968D01*
X91478288Y-135262608D01*
X91487135Y-135311549D01*
X91487953Y-135341519D01*
X91502442Y-135369511D01*
X91513642Y-135382217D01*
X91523622Y-135420555D01*
X91524047Y-135427282D01*
X91542567Y-135454869D01*
X91593622Y-135471641D01*
X91603146Y-135473592D01*
X91646148Y-135487512D01*
X91663623Y-135502419D01*
X91677087Y-135532679D01*
X91709425Y-135572017D01*
X91722878Y-135584139D01*
X91747115Y-135605978D01*
X91776630Y-135620438D01*
X91780105Y-135620875D01*
X91810351Y-135640038D01*
X91845548Y-135678812D01*
X91848884Y-135683200D01*
X91890604Y-135725292D01*
X91931147Y-135749196D01*
X91953900Y-135756315D01*
X91961512Y-135767737D01*
X91935553Y-135790350D01*
X91918395Y-135804120D01*
X91909337Y-135820315D01*
X91931702Y-135832636D01*
X91948821Y-135844342D01*
X91955603Y-135872689D01*
X91955212Y-135890244D01*
X91977543Y-135917667D01*
X91993473Y-135931880D01*
X91996838Y-135969545D01*
X91995351Y-135973586D01*
X91995287Y-135994385D01*
X92023748Y-135990690D01*
X92056295Y-135986587D01*
X92059453Y-136004645D01*
X92030523Y-136044197D01*
X92014567Y-136062534D01*
X92008561Y-136077940D01*
X92030523Y-136080801D01*
X92052736Y-136085729D01*
X92062068Y-136107448D01*
X92038623Y-136134849D01*
X92028566Y-136143592D01*
X92011011Y-136180879D01*
X92009076Y-136198842D01*
X91997812Y-136246087D01*
X91973198Y-136294676D01*
X91928622Y-136358896D01*
X91903082Y-136394839D01*
X91874672Y-136439500D01*
X91863622Y-136463978D01*
X91862656Y-136468996D01*
X91858995Y-136471108D01*
X91841645Y-136481116D01*
X91840002Y-136481181D01*
X91805672Y-136489984D01*
X91756645Y-136509113D01*
X91704410Y-136531014D01*
X91618786Y-136559579D01*
X91531254Y-136577349D01*
X91434392Y-136584714D01*
X91320781Y-136582067D01*
X91182997Y-136569798D01*
X91013622Y-136548299D01*
X91008561Y-136547647D01*
X90954941Y-136542932D01*
X90878337Y-136538351D01*
X90793572Y-136534811D01*
X90774874Y-136534109D01*
X90698693Y-136529176D01*
X90639467Y-136522144D01*
X90608717Y-136514291D01*
X90603418Y-136512125D01*
X90563314Y-136505807D01*
X90494554Y-136500891D01*
X90404763Y-136497387D01*
X90301567Y-136495306D01*
X90192591Y-136494657D01*
X90085461Y-136495451D01*
X89987801Y-136497698D01*
X89907237Y-136501408D01*
X89851395Y-136506591D01*
X89827899Y-136513256D01*
X89811299Y-136527178D01*
X89761106Y-136544002D01*
X89677976Y-136557032D01*
X89559589Y-136566595D01*
X89403622Y-136573019D01*
X89383188Y-136573605D01*
X89238991Y-136578506D01*
X89129084Y-136584058D01*
X89048383Y-136590805D01*
X88991806Y-136599291D01*
X88954271Y-136610061D01*
X88930693Y-136623659D01*
X88927921Y-136625782D01*
X88883996Y-136644158D01*
X88826151Y-136653463D01*
X88748399Y-136658485D01*
X88642307Y-136667775D01*
X88527147Y-136679671D01*
X88418622Y-136692660D01*
X88369272Y-136697440D01*
X88333664Y-136693862D01*
X88323316Y-136678148D01*
X88320416Y-136662019D01*
X88306854Y-136676726D01*
X88294642Y-136685436D01*
X88248835Y-136697321D01*
X88181934Y-136704921D01*
X88105803Y-136707925D01*
X88032304Y-136706026D01*
X87973301Y-136698913D01*
X87940657Y-136686277D01*
X87936967Y-136683168D01*
X87896788Y-136667598D01*
X87840803Y-136661258D01*
X87829262Y-136661024D01*
X87779987Y-136654318D01*
X87753622Y-136641242D01*
X87731747Y-136627872D01*
X87687442Y-136620920D01*
X87646225Y-136616436D01*
X87604577Y-136602225D01*
X87571172Y-136591203D01*
X87553780Y-136603644D01*
X87565012Y-136632909D01*
X87576129Y-136655129D01*
X87577855Y-136701183D01*
X87577362Y-136731207D01*
X87604361Y-136741321D01*
X87631190Y-136748461D01*
X87667488Y-136778307D01*
X87673211Y-136784927D01*
X87715698Y-136811763D01*
X87773470Y-136830163D01*
X87789448Y-136833291D01*
X87841481Y-136845676D01*
X87871465Y-136856258D01*
X87886598Y-136861679D01*
X87936887Y-136870294D01*
X88010389Y-136877857D01*
X88098098Y-136883990D01*
X88191008Y-136888314D01*
X88280114Y-136890449D01*
X88356409Y-136890018D01*
X88410887Y-136886641D01*
X88434543Y-136879940D01*
X88435461Y-136878815D01*
X88463432Y-136871719D01*
X88517121Y-136871129D01*
X88584256Y-136875854D01*
X88652566Y-136884701D01*
X88709779Y-136896475D01*
X88743622Y-136909985D01*
X88751080Y-136915540D01*
X88838874Y-136962501D01*
X88957960Y-137001283D01*
X88978901Y-137007226D01*
X89030050Y-137027477D01*
X89057960Y-137047348D01*
X89079666Y-137067317D01*
X89120401Y-137088261D01*
X89133370Y-137094929D01*
X89206619Y-137121496D01*
X89289941Y-137144776D01*
X89373865Y-137162526D01*
X89448919Y-137172505D01*
X89505632Y-137172470D01*
X89534533Y-137160178D01*
X89536244Y-137158115D01*
X89566494Y-137146412D01*
X89616675Y-137141636D01*
X89628071Y-137141815D01*
X89676339Y-137151282D01*
X89696869Y-137177999D01*
X89697234Y-137179346D01*
X89717126Y-137204677D01*
X89761852Y-137206213D01*
X89764025Y-137205915D01*
X89823394Y-137206341D01*
X89888005Y-137217592D01*
X89890504Y-137218281D01*
X89935035Y-137228437D01*
X89951348Y-137223074D01*
X89948817Y-137199387D01*
X89947995Y-137196063D01*
X89949873Y-137167705D01*
X89976816Y-137165478D01*
X90031749Y-137189014D01*
X90041353Y-137193630D01*
X90099103Y-137206608D01*
X90176253Y-137199212D01*
X90204612Y-137194492D01*
X90256161Y-137189328D01*
X90283573Y-137191645D01*
X90296612Y-137191846D01*
X90323805Y-137171439D01*
X90326556Y-137168521D01*
X90366899Y-137149241D01*
X90426343Y-137141636D01*
X90436913Y-137141487D01*
X90496419Y-137135844D01*
X90538894Y-137124565D01*
X90626466Y-137082488D01*
X90688172Y-137055670D01*
X90732824Y-137040676D01*
X90769522Y-137033929D01*
X90808888Y-137026705D01*
X90836988Y-137014837D01*
X90848087Y-137011212D01*
X90892741Y-137006223D01*
X90962299Y-137002798D01*
X91047451Y-137001526D01*
X91090076Y-137001554D01*
X91165711Y-137002542D01*
X91212938Y-137006484D01*
X91239897Y-137015432D01*
X91254728Y-137031443D01*
X91265573Y-137056569D01*
X91286747Y-137115917D01*
X91299668Y-137177317D01*
X91291259Y-137227090D01*
X91262507Y-137271738D01*
X91258564Y-137277861D01*
X91198622Y-137342252D01*
X91189647Y-137351761D01*
X91156877Y-137395702D01*
X91143622Y-137429887D01*
X91141048Y-137445545D01*
X91123622Y-137461888D01*
X91118905Y-137461382D01*
X91103622Y-137444014D01*
X91102872Y-137437370D01*
X91079576Y-137417994D01*
X91022916Y-137417322D01*
X90931865Y-137435301D01*
X90878079Y-137448780D01*
X90813211Y-137464938D01*
X90770901Y-137475357D01*
X90770056Y-137475547D01*
X90731704Y-137477541D01*
X90660146Y-137475564D01*
X90561651Y-137470065D01*
X90442484Y-137461494D01*
X90308913Y-137450298D01*
X90167204Y-137436927D01*
X90023622Y-137421830D01*
X89996253Y-137418971D01*
X89917186Y-137412734D01*
X89854528Y-137410698D01*
X89819908Y-137413348D01*
X89811311Y-137416560D01*
X89782836Y-137446286D01*
X89784593Y-137471592D01*
X89785868Y-137489956D01*
X89808578Y-137521935D01*
X89813316Y-137528607D01*
X89820374Y-137538546D01*
X89824065Y-137542052D01*
X89834099Y-137550291D01*
X89848438Y-137562065D01*
X89871222Y-137571975D01*
X89875602Y-137573880D01*
X89914832Y-137578802D01*
X89975403Y-137578136D01*
X90066588Y-137573185D01*
X90070167Y-137572970D01*
X90197335Y-137569178D01*
X90301659Y-137575561D01*
X90398833Y-137593058D01*
X90434899Y-137600389D01*
X90541498Y-137614486D01*
X90675841Y-137624528D01*
X90829508Y-137629797D01*
X90895541Y-137630931D01*
X90991686Y-137633265D01*
X91058793Y-137636892D01*
X91103997Y-137643000D01*
X91134428Y-137652778D01*
X91157221Y-137667413D01*
X91179508Y-137688093D01*
X91227797Y-137737010D01*
X91283629Y-137800124D01*
X91304581Y-137832180D01*
X91314273Y-137847008D01*
X91320833Y-137872211D01*
X91323622Y-137882925D01*
X91326714Y-137905491D01*
X91340584Y-137922251D01*
X91347819Y-137927200D01*
X91361778Y-137952274D01*
X91365854Y-137959596D01*
X91385640Y-138010875D01*
X91402862Y-138067684D01*
X91413206Y-138116666D01*
X91412727Y-138132416D01*
X91412360Y-138144468D01*
X91409781Y-138150340D01*
X91420254Y-138162440D01*
X91436292Y-138180798D01*
X91449751Y-138229159D01*
X91451066Y-138233883D01*
X91463169Y-138316300D01*
X91467599Y-138372605D01*
X91471536Y-138422645D01*
X91471594Y-138423770D01*
X91468085Y-138518149D01*
X91445623Y-138581674D01*
X91425985Y-138624220D01*
X91420223Y-138667928D01*
X91417149Y-138678638D01*
X91410474Y-138701891D01*
X91365081Y-138728457D01*
X91361353Y-138729912D01*
X91320456Y-138753368D01*
X91303622Y-138777309D01*
X91298012Y-138791082D01*
X91268038Y-138802944D01*
X91239712Y-138811602D01*
X91203775Y-138842763D01*
X91197337Y-138850245D01*
X91148174Y-138882774D01*
X91070198Y-138915152D01*
X90972391Y-138945199D01*
X90863734Y-138970735D01*
X90753207Y-138989579D01*
X90649792Y-138999550D01*
X90562469Y-138998468D01*
X90480184Y-138998062D01*
X90428452Y-139015468D01*
X90402511Y-139028871D01*
X90363622Y-139031098D01*
X90350394Y-139028470D01*
X90300844Y-139024514D01*
X90227524Y-139022074D01*
X90140941Y-139021598D01*
X90137917Y-139021619D01*
X90049659Y-139021634D01*
X89993305Y-139019081D01*
X89960988Y-139012355D01*
X89944846Y-138999851D01*
X89937012Y-138979963D01*
X89936286Y-138938115D01*
X89952285Y-138884944D01*
X89975377Y-138827717D01*
X89993726Y-138762913D01*
X89995568Y-138754645D01*
X90007860Y-138712873D01*
X90443622Y-138712873D01*
X90453622Y-138722881D01*
X90463622Y-138712873D01*
X90456071Y-138705316D01*
X90723622Y-138705316D01*
X90725501Y-138712873D01*
X90726463Y-138716744D01*
X90744232Y-138719162D01*
X90788622Y-138709084D01*
X90806085Y-138702341D01*
X90822796Y-138678638D01*
X90802746Y-138652284D01*
X90801562Y-138651615D01*
X90771048Y-138653923D01*
X90738675Y-138676109D01*
X90723622Y-138705316D01*
X90456071Y-138705316D01*
X90453622Y-138702865D01*
X90443622Y-138712873D01*
X90007860Y-138712873D01*
X90009462Y-138707429D01*
X90022512Y-138682849D01*
X90027950Y-138676310D01*
X90047009Y-138640722D01*
X90070000Y-138587370D01*
X90086372Y-138522970D01*
X90097924Y-138426591D01*
X90100563Y-138372605D01*
X90343622Y-138372605D01*
X90353622Y-138382613D01*
X90363622Y-138372605D01*
X90353622Y-138362597D01*
X90343622Y-138372605D01*
X90100563Y-138372605D01*
X90103506Y-138312393D01*
X90103287Y-138235179D01*
X90687160Y-138235179D01*
X90703622Y-138242503D01*
X90714210Y-138241058D01*
X90716956Y-138229159D01*
X90714024Y-138226763D01*
X90690289Y-138229159D01*
X90687160Y-138235179D01*
X90103287Y-138235179D01*
X90103163Y-138191580D01*
X90099998Y-138132416D01*
X90743622Y-138132416D01*
X90753622Y-138142424D01*
X90763622Y-138132416D01*
X90753622Y-138122408D01*
X90743622Y-138132416D01*
X90099998Y-138132416D01*
X90096945Y-138075358D01*
X90084899Y-137974929D01*
X90079399Y-137952274D01*
X90443622Y-137952274D01*
X90453622Y-137962282D01*
X90463622Y-137952274D01*
X90453622Y-137942266D01*
X90443622Y-137952274D01*
X90079399Y-137952274D01*
X90067072Y-137901499D01*
X90059915Y-137882415D01*
X90055347Y-137872211D01*
X90983622Y-137872211D01*
X90993622Y-137882219D01*
X91003622Y-137872211D01*
X90993622Y-137862203D01*
X90983622Y-137872211D01*
X90055347Y-137872211D01*
X90037424Y-137832180D01*
X90363622Y-137832180D01*
X90373622Y-137842188D01*
X90383622Y-137832180D01*
X90373622Y-137822172D01*
X90363622Y-137832180D01*
X90037424Y-137832180D01*
X90024943Y-137804304D01*
X89986738Y-137754594D01*
X89935921Y-137724202D01*
X89863109Y-137704048D01*
X89820891Y-137694039D01*
X89747812Y-137671778D01*
X89693300Y-137649191D01*
X89635648Y-137625597D01*
X89573622Y-137611480D01*
X89526731Y-137606098D01*
X89493622Y-137600588D01*
X89460218Y-137599953D01*
X89398677Y-137613496D01*
X89330900Y-137638022D01*
X89272134Y-137667785D01*
X89237629Y-137697041D01*
X89236390Y-137698771D01*
X89202307Y-137715413D01*
X89143815Y-137721272D01*
X89074061Y-137716181D01*
X89006189Y-137699973D01*
X88998790Y-137697465D01*
X88948128Y-137687983D01*
X88914164Y-137701627D01*
X88890470Y-137712848D01*
X88844582Y-137712390D01*
X88819243Y-137708525D01*
X88803622Y-137720744D01*
X88796435Y-137733025D01*
X88764332Y-137742109D01*
X88737099Y-137746183D01*
X88671169Y-137772686D01*
X88594100Y-137818216D01*
X88516433Y-137876166D01*
X88481658Y-137908907D01*
X88448709Y-137939929D01*
X88437899Y-137952274D01*
X88409260Y-137984979D01*
X88388079Y-138012322D01*
X88376374Y-138027432D01*
X88363709Y-138050842D01*
X88363703Y-138051040D01*
X88349629Y-138073593D01*
X88315342Y-138112400D01*
X88313723Y-138114232D01*
X88263622Y-138164297D01*
X88214760Y-138214804D01*
X88213294Y-138216319D01*
X88200444Y-138232495D01*
X88177338Y-138261581D01*
X88176888Y-138262519D01*
X88163622Y-138290203D01*
X88156783Y-138311664D01*
X88126265Y-138341166D01*
X88118322Y-138349253D01*
X88099579Y-138368335D01*
X88097939Y-138370005D01*
X88077367Y-138418920D01*
X88074557Y-138430571D01*
X88052693Y-138489951D01*
X88021437Y-138551959D01*
X88010212Y-138571705D01*
X87992801Y-138609458D01*
X87989314Y-138617018D01*
X87984929Y-138632810D01*
X87975146Y-138668043D01*
X87965556Y-138732889D01*
X87965064Y-138736216D01*
X87961786Y-138772920D01*
X87958210Y-138812952D01*
X87956422Y-138832968D01*
X87955471Y-138845309D01*
X87950641Y-138906338D01*
X87946954Y-138950560D01*
X87943306Y-138967876D01*
X87924323Y-138980279D01*
X87879203Y-138975196D01*
X87877621Y-138974871D01*
X87828184Y-138957038D01*
X87798209Y-138932662D01*
X87782762Y-138916540D01*
X87741925Y-138903023D01*
X87705188Y-138895759D01*
X87655742Y-138872548D01*
X87632827Y-138858564D01*
X87606529Y-138853060D01*
X87595046Y-138862991D01*
X87583996Y-138872548D01*
X87565114Y-138888446D01*
X87520180Y-138903023D01*
X87479897Y-138910306D01*
X87427629Y-138930611D01*
X87418725Y-138934560D01*
X87365277Y-138950557D01*
X87289108Y-138966781D01*
X87203622Y-138980263D01*
X87192224Y-138981759D01*
X87093240Y-138995797D01*
X86994296Y-139011345D01*
X86915235Y-139025304D01*
X86857425Y-139035673D01*
X86813943Y-139038936D01*
X86788420Y-139030988D01*
X86769374Y-139010679D01*
X86748508Y-138987822D01*
X86708979Y-138974486D01*
X86671681Y-139000609D01*
X86665313Y-139007879D01*
X86637127Y-139019168D01*
X86589556Y-139008171D01*
X86542404Y-138998116D01*
X86501498Y-139004839D01*
X86479270Y-139015301D01*
X86410686Y-139020126D01*
X86333430Y-138994683D01*
X86267541Y-138976104D01*
X86182084Y-138974279D01*
X86149685Y-138975823D01*
X86098768Y-138972624D01*
X86073383Y-138962683D01*
X86067069Y-138955534D01*
X86033744Y-138943054D01*
X85999293Y-138936532D01*
X85949924Y-138919399D01*
X85903152Y-138902322D01*
X85862824Y-138892310D01*
X85858695Y-138891692D01*
X85816749Y-138879673D01*
X85762824Y-138858731D01*
X85759987Y-138857496D01*
X85696137Y-138830160D01*
X85638622Y-138806186D01*
X85631041Y-138801977D01*
X86243622Y-138801977D01*
X86245382Y-138836414D01*
X86258130Y-138855423D01*
X86291441Y-138851743D01*
X86325314Y-138849116D01*
X86352621Y-138861370D01*
X86365804Y-138875596D01*
X86391127Y-138881609D01*
X86403622Y-138862991D01*
X86400238Y-138853783D01*
X86373622Y-138842976D01*
X86366169Y-138842022D01*
X86346726Y-138820767D01*
X86346843Y-138812952D01*
X86423622Y-138812952D01*
X86433622Y-138822960D01*
X86443622Y-138812952D01*
X86433622Y-138802944D01*
X86423622Y-138812952D01*
X86346843Y-138812952D01*
X86347296Y-138782750D01*
X86352551Y-138772920D01*
X86903622Y-138772920D01*
X86913622Y-138782928D01*
X86923622Y-138772920D01*
X86913622Y-138762913D01*
X86903622Y-138772920D01*
X86352551Y-138772920D01*
X86368622Y-138742861D01*
X86375733Y-138734769D01*
X86376916Y-138732889D01*
X87783622Y-138732889D01*
X87793622Y-138742897D01*
X87803622Y-138732889D01*
X87793622Y-138722881D01*
X87783622Y-138732889D01*
X86376916Y-138732889D01*
X86382025Y-138724768D01*
X86359582Y-138740512D01*
X86333454Y-138752675D01*
X86284582Y-138753209D01*
X86263714Y-138748643D01*
X86247360Y-138760037D01*
X86243622Y-138801977D01*
X85631041Y-138801977D01*
X85600139Y-138784820D01*
X85583622Y-138763970D01*
X85580328Y-138755846D01*
X85556201Y-138754684D01*
X85532538Y-138754258D01*
X85496201Y-138732610D01*
X85475377Y-138713703D01*
X85463623Y-138708322D01*
X85463597Y-138708488D01*
X85449189Y-138699333D01*
X85413378Y-138669300D01*
X85363623Y-138624632D01*
X85330299Y-138591989D01*
X86043622Y-138591989D01*
X86045616Y-138628894D01*
X86055928Y-138640224D01*
X86067012Y-138629528D01*
X86146199Y-138629528D01*
X86149508Y-138687853D01*
X86152626Y-138697993D01*
X86156615Y-138686109D01*
X86158175Y-138642818D01*
X86157976Y-138632810D01*
X87683622Y-138632810D01*
X87693622Y-138642818D01*
X87703622Y-138632810D01*
X87693622Y-138622802D01*
X87683622Y-138632810D01*
X86157976Y-138632810D01*
X86157632Y-138615479D01*
X86247160Y-138615479D01*
X86263622Y-138622802D01*
X86274210Y-138621358D01*
X86276956Y-138609458D01*
X86274024Y-138607063D01*
X86250289Y-138609458D01*
X86247160Y-138615479D01*
X86157632Y-138615479D01*
X86157592Y-138613445D01*
X86154454Y-138588297D01*
X86149508Y-138597782D01*
X86149446Y-138598373D01*
X86146199Y-138629528D01*
X86067012Y-138629528D01*
X86079168Y-138617798D01*
X86088265Y-138598373D01*
X86071617Y-138566970D01*
X86061267Y-138558270D01*
X86047013Y-138557992D01*
X86043622Y-138591989D01*
X85330299Y-138591989D01*
X85313504Y-138575537D01*
X85277400Y-138534411D01*
X85263623Y-138510627D01*
X85261708Y-138503117D01*
X85240582Y-138469200D01*
X85203622Y-138425795D01*
X85180214Y-138393802D01*
X87743622Y-138393802D01*
X87743817Y-138396600D01*
X87755394Y-138401008D01*
X87775532Y-138379520D01*
X87780399Y-138368335D01*
X87766713Y-138370694D01*
X87763965Y-138372605D01*
X87757828Y-138376873D01*
X87743622Y-138393802D01*
X85180214Y-138393802D01*
X85164705Y-138372605D01*
X87463622Y-138372605D01*
X87473622Y-138382613D01*
X87483622Y-138372605D01*
X87473622Y-138362597D01*
X87463622Y-138372605D01*
X85164705Y-138372605D01*
X85161006Y-138367549D01*
X85157497Y-138355274D01*
X87807160Y-138355274D01*
X87823622Y-138362597D01*
X87834210Y-138361153D01*
X87836956Y-138349253D01*
X87834024Y-138346858D01*
X87810289Y-138349253D01*
X87807160Y-138355274D01*
X85157497Y-138355274D01*
X85143622Y-138306735D01*
X85138722Y-138264180D01*
X85124678Y-138231494D01*
X85117102Y-138216410D01*
X85106405Y-138168952D01*
X85099678Y-138105151D01*
X85101372Y-138030936D01*
X85119897Y-137979778D01*
X85156678Y-137963554D01*
X85212320Y-137981600D01*
X85247889Y-138005261D01*
X85263622Y-138025483D01*
X85267709Y-138039650D01*
X85292159Y-138074975D01*
X85325920Y-138107887D01*
X85354080Y-138122408D01*
X85384781Y-138128993D01*
X85428734Y-138147389D01*
X85467020Y-138169588D01*
X85483466Y-138187459D01*
X85495336Y-138197207D01*
X85532442Y-138202471D01*
X85565975Y-138206807D01*
X85593083Y-138221613D01*
X85602081Y-138229266D01*
X85634263Y-138229479D01*
X85651242Y-138227607D01*
X85663622Y-138250369D01*
X85666514Y-138266462D01*
X85686446Y-138282575D01*
X85710528Y-138267522D01*
X85714279Y-138265112D01*
X85748415Y-138259242D01*
X85809210Y-138255817D01*
X85886708Y-138255515D01*
X85911752Y-138255736D01*
X85988626Y-138253446D01*
X86001500Y-138252108D01*
X87407896Y-138252108D01*
X87410289Y-138275862D01*
X87416305Y-138278994D01*
X87423622Y-138262519D01*
X87422179Y-138251922D01*
X87410289Y-138249175D01*
X87407896Y-138252108D01*
X86001500Y-138252108D01*
X86047889Y-138247287D01*
X86078368Y-138238264D01*
X86092647Y-138230440D01*
X86133368Y-138229627D01*
X86148943Y-138232824D01*
X86149383Y-138232495D01*
X86583622Y-138232495D01*
X86593622Y-138242503D01*
X86603622Y-138232495D01*
X86601299Y-138230170D01*
X86990419Y-138230170D01*
X86992463Y-138232495D01*
X87001262Y-138242503D01*
X87007128Y-138241755D01*
X87019861Y-138232495D01*
X87103622Y-138232495D01*
X87113622Y-138242503D01*
X87123622Y-138232495D01*
X87113622Y-138222487D01*
X87103622Y-138232495D01*
X87019861Y-138232495D01*
X87033622Y-138222487D01*
X87036826Y-138214804D01*
X87025983Y-138202471D01*
X87020117Y-138203218D01*
X86993622Y-138222487D01*
X86990419Y-138230170D01*
X86601299Y-138230170D01*
X86593622Y-138222487D01*
X86583622Y-138232495D01*
X86149383Y-138232495D01*
X86163622Y-138221859D01*
X86175667Y-138209196D01*
X86212919Y-138202471D01*
X86246178Y-138195332D01*
X86283623Y-138162440D01*
X86301873Y-138138206D01*
X86330790Y-138122408D01*
X86349998Y-138112400D01*
X87223622Y-138112400D01*
X87233622Y-138122408D01*
X87243622Y-138112400D01*
X87233622Y-138102392D01*
X87223622Y-138112400D01*
X86349998Y-138112400D01*
X86352696Y-138110994D01*
X86391538Y-138074504D01*
X86437199Y-138022329D01*
X86444875Y-138012322D01*
X87043622Y-138012322D01*
X87053622Y-138022329D01*
X87063622Y-138012322D01*
X87053622Y-138002314D01*
X87043622Y-138012322D01*
X86444875Y-138012322D01*
X86481792Y-137964197D01*
X86489609Y-137952274D01*
X87783622Y-137952274D01*
X87793622Y-137962282D01*
X87803622Y-137952274D01*
X87793622Y-137942266D01*
X87783622Y-137952274D01*
X86489609Y-137952274D01*
X86514093Y-137914927D01*
X88287160Y-137914927D01*
X88303622Y-137922251D01*
X88314210Y-137920806D01*
X88316956Y-137908907D01*
X88314024Y-137906511D01*
X88290289Y-137908907D01*
X88287160Y-137914927D01*
X86514093Y-137914927D01*
X86517427Y-137909841D01*
X86536217Y-137868992D01*
X86540370Y-137855577D01*
X86563525Y-137829151D01*
X86611791Y-137822172D01*
X86663816Y-137815039D01*
X86700122Y-137797653D01*
X86725656Y-137783334D01*
X86762308Y-137796689D01*
X86762764Y-137796970D01*
X86809687Y-137810201D01*
X86869767Y-137808913D01*
X86880810Y-137807542D01*
X86956378Y-137811218D01*
X87042733Y-137831884D01*
X87074942Y-137840658D01*
X87158390Y-137853315D01*
X87255003Y-137858615D01*
X87354226Y-137856928D01*
X87445500Y-137848626D01*
X87518269Y-137834078D01*
X87561975Y-137813656D01*
X87590218Y-137795259D01*
X87638663Y-137782140D01*
X87665403Y-137778030D01*
X87726026Y-137745649D01*
X87784649Y-137689082D01*
X87832336Y-137618017D01*
X87849210Y-137571975D01*
X88083622Y-137571975D01*
X88093622Y-137581983D01*
X88103622Y-137571975D01*
X88093622Y-137561967D01*
X88083622Y-137571975D01*
X87849210Y-137571975D01*
X87857347Y-137549773D01*
X88726765Y-137549773D01*
X88730722Y-137571975D01*
X88731539Y-137576562D01*
X88738366Y-137576252D01*
X88738972Y-137571975D01*
X88823622Y-137571975D01*
X88833622Y-137581983D01*
X88843622Y-137571975D01*
X88833622Y-137561967D01*
X88823622Y-137571975D01*
X88738972Y-137571975D01*
X88742044Y-137550291D01*
X88738841Y-137530617D01*
X88729960Y-137538198D01*
X88726765Y-137549773D01*
X87857347Y-137549773D01*
X87860145Y-137542140D01*
X87862356Y-137521935D01*
X88153622Y-137521935D01*
X88157727Y-137527925D01*
X88174803Y-137541951D01*
X88176799Y-137541431D01*
X88179180Y-137534628D01*
X88207160Y-137534628D01*
X88223622Y-137541951D01*
X88234210Y-137540507D01*
X88236956Y-137528607D01*
X88234024Y-137526212D01*
X88210289Y-137528607D01*
X88207160Y-137534628D01*
X88179180Y-137534628D01*
X88183622Y-137521935D01*
X88182809Y-137516449D01*
X88162442Y-137501920D01*
X88155208Y-137503491D01*
X88153622Y-137521935D01*
X87862356Y-137521935D01*
X87866737Y-137481904D01*
X88543622Y-137481904D01*
X88544161Y-137486653D01*
X88562442Y-137501920D01*
X88568053Y-137501156D01*
X88593622Y-137481904D01*
X88595504Y-137471592D01*
X88574803Y-137461888D01*
X88559902Y-137464338D01*
X88543622Y-137481904D01*
X87866737Y-137481904D01*
X87868349Y-137467170D01*
X87864766Y-137370981D01*
X87849013Y-137275824D01*
X87847775Y-137271738D01*
X88263622Y-137271738D01*
X88273622Y-137281746D01*
X88283622Y-137271738D01*
X88273622Y-137261730D01*
X88263622Y-137271738D01*
X87847775Y-137271738D01*
X87823433Y-137191426D01*
X87790369Y-137127512D01*
X87752702Y-137094281D01*
X88047160Y-137094281D01*
X88063622Y-137101604D01*
X88074210Y-137100160D01*
X88076956Y-137088261D01*
X88074024Y-137085865D01*
X88050289Y-137088261D01*
X88047160Y-137094281D01*
X87752702Y-137094281D01*
X87752162Y-137093805D01*
X87738450Y-137084393D01*
X87723622Y-137049356D01*
X87722843Y-137043079D01*
X87703686Y-137004850D01*
X87666896Y-136961614D01*
X87658553Y-136953415D01*
X87619824Y-136909411D01*
X87597524Y-136874380D01*
X87587399Y-136857635D01*
X87558309Y-136841400D01*
X87541097Y-136834662D01*
X87501253Y-136805586D01*
X87453622Y-136761336D01*
X87420142Y-136729176D01*
X87377467Y-136694672D01*
X87350698Y-136681273D01*
X87330438Y-136673683D01*
X87299757Y-136643932D01*
X87280601Y-136621434D01*
X87259271Y-136608905D01*
X87239194Y-136601452D01*
X87204042Y-136576191D01*
X87172119Y-136553075D01*
X87143394Y-136541163D01*
X87138858Y-136540671D01*
X87123622Y-136522738D01*
X87107235Y-136506252D01*
X87066481Y-136491752D01*
X87047329Y-136485460D01*
X87021083Y-136471108D01*
X87503622Y-136471108D01*
X87513622Y-136481116D01*
X87523622Y-136471108D01*
X87513622Y-136461100D01*
X87503622Y-136471108D01*
X87021083Y-136471108D01*
X86992038Y-136455226D01*
X86936481Y-136412403D01*
X86929763Y-136406143D01*
X86901870Y-136373714D01*
X87207160Y-136373714D01*
X87223622Y-136381037D01*
X87234210Y-136379593D01*
X87236186Y-136371029D01*
X87303622Y-136371029D01*
X87313622Y-136381037D01*
X87323622Y-136371029D01*
X87313622Y-136361021D01*
X87306955Y-136367693D01*
X87303622Y-136371029D01*
X87236186Y-136371029D01*
X87236956Y-136367693D01*
X87234024Y-136365298D01*
X87210289Y-136367693D01*
X87207160Y-136373714D01*
X86901870Y-136373714D01*
X86879882Y-136348150D01*
X86864180Y-136302226D01*
X86883622Y-136270950D01*
X86883874Y-136270548D01*
X87267896Y-136270548D01*
X87270289Y-136294302D01*
X87276305Y-136297433D01*
X87279356Y-136290564D01*
X88567896Y-136290564D01*
X88570289Y-136314318D01*
X88576305Y-136317449D01*
X88583622Y-136300974D01*
X88582179Y-136290378D01*
X88570289Y-136287630D01*
X88567896Y-136290564D01*
X87279356Y-136290564D01*
X87283622Y-136280958D01*
X87282179Y-136270362D01*
X87270289Y-136267614D01*
X87267896Y-136270548D01*
X86883874Y-136270548D01*
X86890994Y-136259175D01*
X86900378Y-136215891D01*
X86904358Y-136154678D01*
X86905843Y-136128654D01*
X87546765Y-136128654D01*
X87551539Y-136155443D01*
X87558366Y-136155133D01*
X87562044Y-136129172D01*
X87558841Y-136109498D01*
X87549960Y-136117079D01*
X87546765Y-136128654D01*
X86905843Y-136128654D01*
X86907956Y-136091632D01*
X86912879Y-136050375D01*
X88307896Y-136050375D01*
X88310289Y-136074129D01*
X88316305Y-136077260D01*
X88323622Y-136060785D01*
X88322179Y-136050189D01*
X88310289Y-136047441D01*
X88307896Y-136050375D01*
X86912879Y-136050375D01*
X86918877Y-136000116D01*
X86922025Y-135982025D01*
X87588526Y-135982025D01*
X87593622Y-136000738D01*
X87597731Y-136006663D01*
X87615983Y-136020753D01*
X87618719Y-136019450D01*
X87613622Y-136000738D01*
X87609514Y-135994813D01*
X87591262Y-135980722D01*
X87588526Y-135982025D01*
X86922025Y-135982025D01*
X86934441Y-135910667D01*
X86944884Y-135860775D01*
X86947003Y-135850619D01*
X87703622Y-135850619D01*
X87713622Y-135860627D01*
X87723622Y-135850619D01*
X87713622Y-135840611D01*
X87703622Y-135850619D01*
X86947003Y-135850619D01*
X86955354Y-135810588D01*
X88183622Y-135810588D01*
X88193622Y-135820596D01*
X88203622Y-135810588D01*
X88193622Y-135800580D01*
X88183622Y-135810588D01*
X86955354Y-135810588D01*
X86965513Y-135761886D01*
X86974065Y-135720517D01*
X87423622Y-135720517D01*
X87424436Y-135726003D01*
X87444803Y-135740533D01*
X87452037Y-135738961D01*
X87453622Y-135720517D01*
X87449518Y-135714527D01*
X87432442Y-135700501D01*
X87430446Y-135701022D01*
X87423622Y-135720517D01*
X86974065Y-135720517D01*
X86979313Y-135695134D01*
X88541227Y-135695134D01*
X88542754Y-135720517D01*
X88546066Y-135775593D01*
X88551871Y-135810588D01*
X88557690Y-135845664D01*
X88559591Y-135850619D01*
X88574950Y-135890651D01*
X88590446Y-135912658D01*
X88626559Y-135964799D01*
X88663983Y-136019450D01*
X88667719Y-136024906D01*
X88694939Y-136060785D01*
X88696848Y-136063301D01*
X88738697Y-136106000D01*
X88771039Y-136124985D01*
X88775190Y-136125916D01*
X88779842Y-136129172D01*
X88810418Y-136150575D01*
X88841917Y-136195561D01*
X88845955Y-136203384D01*
X88874159Y-136241077D01*
X88899380Y-136250942D01*
X88913427Y-136250189D01*
X88936519Y-136271288D01*
X88948039Y-136280958D01*
X88961584Y-136292328D01*
X89015762Y-136300974D01*
X89023113Y-136301091D01*
X89066080Y-136307596D01*
X89083622Y-136320990D01*
X89088923Y-136331644D01*
X89118622Y-136341642D01*
X89147606Y-136348000D01*
X89191238Y-136371029D01*
X89192445Y-136371666D01*
X89223142Y-136389351D01*
X89267445Y-136401053D01*
X89287043Y-136404115D01*
X89303622Y-136420130D01*
X89305843Y-136424093D01*
X89335057Y-136432262D01*
X89390102Y-136435639D01*
X89460687Y-136434766D01*
X89536522Y-136430186D01*
X89607317Y-136422441D01*
X89662780Y-136412073D01*
X89692622Y-136399626D01*
X89699869Y-136393844D01*
X89738459Y-136381037D01*
X89751692Y-136379818D01*
X89801157Y-136351280D01*
X89828315Y-136310580D01*
X90027896Y-136310580D01*
X90030289Y-136334334D01*
X90036305Y-136337465D01*
X90043622Y-136320990D01*
X90042179Y-136310393D01*
X90030289Y-136307646D01*
X90027896Y-136310580D01*
X89828315Y-136310580D01*
X89843623Y-136287638D01*
X89877676Y-136192562D01*
X89901904Y-136069722D01*
X89914892Y-135922788D01*
X89917717Y-135858030D01*
X89923282Y-135729879D01*
X89929148Y-135594243D01*
X89934435Y-135471451D01*
X89934443Y-135471270D01*
X89939054Y-135377881D01*
X89944024Y-135300215D01*
X89948756Y-135246366D01*
X89952653Y-135224429D01*
X89953671Y-135216235D01*
X89947251Y-135178800D01*
X89932333Y-135123220D01*
X89925089Y-135097262D01*
X89909964Y-135025493D01*
X89903839Y-134967220D01*
X89903414Y-134952902D01*
X89889621Y-134866895D01*
X89860554Y-134776176D01*
X89844398Y-134742530D01*
X90232399Y-134742530D01*
X90236733Y-134824830D01*
X90241317Y-134895582D01*
X90247751Y-134988136D01*
X90253121Y-135051853D01*
X90258173Y-135093741D01*
X90263654Y-135120807D01*
X90270310Y-135140060D01*
X90271007Y-135141790D01*
X90281172Y-135183651D01*
X90285299Y-135216235D01*
X90288327Y-135240139D01*
X90288947Y-135247315D01*
X90297506Y-135295815D01*
X90309650Y-135322019D01*
X90317357Y-135343221D01*
X90323648Y-135394021D01*
X90326291Y-135462057D01*
X90328374Y-135524586D01*
X90334127Y-135581027D01*
X90342160Y-135610358D01*
X90348385Y-135621776D01*
X90365075Y-135665768D01*
X90383118Y-135725521D01*
X90393178Y-135758281D01*
X90412338Y-135803042D01*
X90428361Y-135820596D01*
X90436656Y-135824633D01*
X90436606Y-135850055D01*
X90433567Y-135861895D01*
X90438618Y-135915102D01*
X90462693Y-135977674D01*
X90498865Y-136037500D01*
X90540210Y-136082469D01*
X90579803Y-136100471D01*
X90590101Y-136102427D01*
X90594903Y-136118758D01*
X90594441Y-136119926D01*
X90604772Y-136144214D01*
X90637191Y-136186661D01*
X90685361Y-136238853D01*
X90697488Y-136250890D01*
X90766516Y-136309747D01*
X90790818Y-136320990D01*
X90825845Y-136337195D01*
X90885030Y-136335684D01*
X90953622Y-136307665D01*
X90999228Y-136279746D01*
X91091665Y-136191521D01*
X91153868Y-136079628D01*
X91162328Y-136057492D01*
X91190692Y-135989566D01*
X91216233Y-135935915D01*
X91226106Y-135912943D01*
X91244000Y-135848289D01*
X91255435Y-135775788D01*
X91259005Y-135738566D01*
X91266071Y-135669692D01*
X91271709Y-135620438D01*
X91272217Y-135584139D01*
X91262440Y-135550198D01*
X91258307Y-135541663D01*
X91245757Y-135499105D01*
X91230243Y-135431858D01*
X91214204Y-135350040D01*
X91207749Y-135315398D01*
X91185560Y-135208726D01*
X91161860Y-135109966D01*
X91138783Y-135026993D01*
X91118464Y-134967680D01*
X91103037Y-134939902D01*
X91096574Y-134931082D01*
X91077707Y-134892823D01*
X91054927Y-134837063D01*
X91042928Y-134809922D01*
X91006794Y-134749667D01*
X90961732Y-134691178D01*
X90915126Y-134642591D01*
X90874358Y-134612043D01*
X90846810Y-134607671D01*
X90840013Y-134610902D01*
X90817754Y-134605208D01*
X90810710Y-134581560D01*
X90826060Y-134557365D01*
X90826167Y-134557296D01*
X90842943Y-134539305D01*
X90823622Y-134520425D01*
X90791533Y-134498494D01*
X90746232Y-134465381D01*
X90737356Y-134459212D01*
X90681264Y-134430513D01*
X90616232Y-134407765D01*
X90563398Y-134396785D01*
X90521359Y-134400482D01*
X90479507Y-134423510D01*
X90427527Y-134454096D01*
X90364507Y-134482230D01*
X90345308Y-134489743D01*
X90312144Y-134516134D01*
X90303622Y-134560857D01*
X90296959Y-134600469D01*
X90264903Y-134638980D01*
X90255551Y-134644585D01*
X90240441Y-134661425D01*
X90233179Y-134691068D01*
X90232399Y-134742530D01*
X89844398Y-134742530D01*
X89821888Y-134695649D01*
X89779298Y-134640213D01*
X89771995Y-134633458D01*
X89737588Y-134592789D01*
X89723565Y-134560150D01*
X89723173Y-134556426D01*
X89703603Y-134524117D01*
X89663622Y-134489548D01*
X89656355Y-134484514D01*
X89618949Y-134451702D01*
X89603680Y-134425683D01*
X89603390Y-134421991D01*
X89588925Y-134414126D01*
X89548622Y-134430564D01*
X89547098Y-134431357D01*
X89487582Y-134455745D01*
X89454105Y-134452437D01*
X89443622Y-134421160D01*
X89447652Y-134398711D01*
X89468622Y-134372701D01*
X89471607Y-134371180D01*
X89469778Y-134369453D01*
X89843622Y-134369453D01*
X89853622Y-134379461D01*
X89863622Y-134369453D01*
X89853622Y-134359445D01*
X89843622Y-134369453D01*
X89469778Y-134369453D01*
X89464574Y-134364538D01*
X89427308Y-134361025D01*
X89370046Y-134354135D01*
X89323521Y-134339375D01*
X89298631Y-134329923D01*
X89272816Y-134340735D01*
X89272547Y-134341151D01*
X89244478Y-134354780D01*
X89196603Y-134358080D01*
X89142280Y-134360069D01*
X89090977Y-134371732D01*
X89071260Y-134382519D01*
X89024278Y-134416298D01*
X88967111Y-134463197D01*
X88908111Y-134515678D01*
X88855629Y-134566198D01*
X88852499Y-134569611D01*
X88818016Y-134607218D01*
X88804546Y-134629658D01*
X88803622Y-134631197D01*
X88803439Y-134633370D01*
X88787727Y-134664016D01*
X88754423Y-134703461D01*
X88716446Y-134760077D01*
X88691763Y-134841297D01*
X88687765Y-134863562D01*
X88671571Y-134922141D01*
X88652951Y-134959918D01*
X88635749Y-134986105D01*
X88606559Y-135067817D01*
X88585352Y-135186403D01*
X88572476Y-135340217D01*
X88570079Y-135383177D01*
X88563906Y-135468909D01*
X88561812Y-135490336D01*
X88557089Y-135538655D01*
X88552498Y-135568731D01*
X88550716Y-135580407D01*
X88544319Y-135618982D01*
X88541227Y-135695134D01*
X86979313Y-135695134D01*
X86980152Y-135691075D01*
X86990434Y-135640454D01*
X86993522Y-135627118D01*
X87008228Y-135580407D01*
X87012577Y-135568213D01*
X87666765Y-135568213D01*
X87671539Y-135595001D01*
X87678366Y-135594691D01*
X87682044Y-135568731D01*
X87678841Y-135549056D01*
X87669960Y-135556638D01*
X87666765Y-135568213D01*
X87012577Y-135568213D01*
X87015858Y-135559014D01*
X87033354Y-135506095D01*
X87038348Y-135490336D01*
X87903622Y-135490336D01*
X87913622Y-135500344D01*
X87923622Y-135490336D01*
X87913622Y-135480328D01*
X87903622Y-135490336D01*
X87038348Y-135490336D01*
X87054206Y-135440296D01*
X87066588Y-135401238D01*
X87097694Y-135307037D01*
X87127743Y-135220123D01*
X87143976Y-135173303D01*
X87165436Y-135106881D01*
X87178571Y-135060348D01*
X87191314Y-135024140D01*
X87216843Y-134983860D01*
X87230571Y-134966399D01*
X87243623Y-134930916D01*
X87248246Y-134913176D01*
X87273623Y-134879855D01*
X87289097Y-134861581D01*
X87303622Y-134817357D01*
X87306613Y-134796451D01*
X87321196Y-134779776D01*
X87340302Y-134763522D01*
X87361820Y-134724084D01*
X87363078Y-134721126D01*
X87393851Y-134665917D01*
X87420466Y-134629658D01*
X87583622Y-134629658D01*
X87593622Y-134639666D01*
X87603622Y-134629658D01*
X87593622Y-134619650D01*
X87583622Y-134629658D01*
X87420466Y-134629658D01*
X87434246Y-134610884D01*
X87441334Y-134602350D01*
X87452257Y-134586373D01*
X87634073Y-134586373D01*
X87654250Y-134599634D01*
X87667935Y-134596154D01*
X87683622Y-134569611D01*
X87681617Y-134555830D01*
X87665762Y-134539587D01*
X87656021Y-134543124D01*
X87636390Y-134569611D01*
X87634073Y-134586373D01*
X87452257Y-134586373D01*
X87471415Y-134558351D01*
X87483622Y-134526466D01*
X87485302Y-134515540D01*
X87503010Y-134499556D01*
X87522265Y-134489788D01*
X87562358Y-134456680D01*
X87613274Y-134408179D01*
X87666936Y-134352691D01*
X87715266Y-134298620D01*
X87738348Y-134269374D01*
X89403622Y-134269374D01*
X89413622Y-134279382D01*
X89423622Y-134269374D01*
X89413622Y-134259366D01*
X89403622Y-134269374D01*
X87738348Y-134269374D01*
X87750187Y-134254373D01*
X87751390Y-134252043D01*
X89207160Y-134252043D01*
X89223622Y-134259366D01*
X89234210Y-134257922D01*
X89236956Y-134246023D01*
X89234024Y-134243627D01*
X89210289Y-134246023D01*
X89207160Y-134252043D01*
X87751390Y-134252043D01*
X87763111Y-134229343D01*
X90143622Y-134229343D01*
X90153622Y-134239351D01*
X90163622Y-134229343D01*
X90153622Y-134219335D01*
X90143622Y-134229343D01*
X87763111Y-134229343D01*
X87763622Y-134228354D01*
X87770795Y-134211647D01*
X87802734Y-134199319D01*
X87836481Y-134190592D01*
X87839145Y-134189311D01*
X90243622Y-134189311D01*
X90253622Y-134199319D01*
X90263622Y-134189311D01*
X90253622Y-134179303D01*
X90243622Y-134189311D01*
X87839145Y-134189311D01*
X87893605Y-134163125D01*
X87958252Y-134123748D01*
X88017778Y-134079506D01*
X88029885Y-134071369D01*
X88070639Y-134059209D01*
X88086435Y-134054991D01*
X88111651Y-134027108D01*
X88122289Y-134011864D01*
X88137728Y-134009169D01*
X89383622Y-134009169D01*
X89393622Y-134019177D01*
X89403622Y-134009169D01*
X89393622Y-133999162D01*
X89383622Y-134009169D01*
X88137728Y-134009169D01*
X88153613Y-134006396D01*
X88158253Y-134007265D01*
X88196238Y-134000503D01*
X88256364Y-133979697D01*
X88327881Y-133948426D01*
X88343907Y-133940842D01*
X88415400Y-133909442D01*
X88474005Y-133887391D01*
X88508330Y-133879067D01*
X88530015Y-133876892D01*
X88578894Y-133861734D01*
X88586332Y-133858077D01*
X88724012Y-133808710D01*
X88883622Y-133785008D01*
X88947153Y-133778060D01*
X89021359Y-133763719D01*
X89073622Y-133746463D01*
X89104917Y-133732246D01*
X89133579Y-133728051D01*
X89151547Y-133744718D01*
X89164810Y-133757577D01*
X89198997Y-133763715D01*
X89260306Y-133755743D01*
X89282491Y-133752089D01*
X89336419Y-133748863D01*
X89362555Y-133757245D01*
X89384332Y-133767362D01*
X89435446Y-133777694D01*
X89503797Y-133785213D01*
X89574128Y-133791410D01*
X89676519Y-133803150D01*
X89779859Y-133817464D01*
X89873953Y-133832792D01*
X89948606Y-133847571D01*
X89993622Y-133860240D01*
X90003568Y-133863885D01*
X90055966Y-133877802D01*
X90119646Y-133889873D01*
X90139739Y-133893458D01*
X90185170Y-133908330D01*
X90197890Y-133926035D01*
X90196359Y-133937804D01*
X90215737Y-133967853D01*
X90263003Y-133989732D01*
X90329250Y-133998525D01*
X90387108Y-134006443D01*
X90390618Y-134009169D01*
X90416390Y-134029185D01*
G37*
%TD*%
M02*
