M48
; DRILL file KiCad 10.0.0 date 2026-04-10T10:11:14
; FORMAT={-:-/ absolute / metric / decimal}
; #@! TF.CreationDate,2026-04-10T10:11:14+02:00
; #@! TF.GenerationSoftware,Kicad,Pcbnew,10.0.0
; #@! TF.FileFunction,Plated,1,2,PTH
FMAT,2
METRIC
; #@! TA.AperFunction,Plated,PTH,ViaDrill
T1C0.300
; #@! TA.AperFunction,Plated,PTH,ComponentDrill
T2C1.000
%
G90
G05
T1
X86.624Y-137.024
X92.9Y-134.9
X100.478Y-133.029
X103.389Y-135.296
X104.212Y-135.082
X105.025Y-139.975
X108.482Y-135.23
X109.981Y-134.001
X111.1Y-133.6
X115.8Y-134.1
X115.956Y-138.274
X119.301Y-134.221
X120.32Y-140.55
X120.407Y-132.202
X120.409Y-134.941
X120.573Y-135.998
X123.4Y-134.463
X125.187Y-136.764
X127.055Y-135.755
X128.4Y-135.9
X128.753Y-139.699
X129.611Y-133.989
X130.451Y-134.193
T2
X83.3Y-134.4
X83.45Y-141.26
X85.99Y-141.26
X88.53Y-141.26
X91.07Y-141.26
X93.61Y-141.26
X96.15Y-141.26
X98.69Y-141.26
X101.23Y-141.26
X103.77Y-141.26
X106.31Y-141.26
X108.85Y-141.26
X111.39Y-141.26
X113.93Y-141.26
X116.47Y-141.26
X119.01Y-141.26
X121.55Y-141.26
X124.09Y-141.26
X126.63Y-141.26
X129.17Y-141.26
M30
